<?xml version="1.0" encoding="UTF-8"?>
<svg version="1.1" viewBox="0 0 90 100" xmlns="http://www.w3.org/2000/svg" xmlns:cc="http://creativecommons.org/ns#" xmlns:dc="http://purl.org/dc/elements/1.1/" xmlns:rdf="http://www.w3.org/1999/02/22-rdf-syntax-ns#">
 <metadata>
  <rdf:RDF>
   <cc:Work rdf:about="">
    <dc:format>image/svg+xml</dc:format>
    <dc:type rdf:resource="http://purl.org/dc/dcmitype/StillImage"/>
    <dc:title/>
   </cc:Work>
  </rdf:RDF>
 </metadata>
 <g transform="translate(22.5 24.995)">
  <rect x="-13.5" y="-22.985" width="72" height="45" rx="5" ry="5" fill="#ffffff" fill-opacity=".28235" stop-color="#000000" stroke-linecap="round" stroke-linejoin="round" stroke-miterlimit="0" stroke-width="1.2948" style="paint-order:markers stroke fill"/>
  <rect transform="scale(-1)" x="-58.5" y="-72.995" width="72" height="46" rx="5" ry="5" fill="#ffffff" fill-opacity=".094118" stop-color="#000000" stroke-linecap="round" stroke-linejoin="round" stroke-miterlimit="0" stroke-width=".72112" style="paint-order:markers stroke fill"/>
  <rect transform="scale(-1)" x="-58.5" y="-72.995" width="72" height="6" fill="#6c78c4" stroke-width="1.5561"/>
  <g transform="matrix(2 0 0 2 -1.464 -25.005)" stroke="#fff" stroke-opacity=".81569" style="fill:none;stroke-opacity:.81569;stroke:#ffffff">
   <g stroke-linecap="round" style="fill:none;stroke-opacity:.81569;stroke:#ffffff">
    <path transform="translate(-.99996 -.99996)" d="m10.221 13.38v4.0348" fill-rule="evenodd" stroke-width=".98244" style="fill:none;stroke-opacity:.81569;stroke:#ffffff"/>
    <circle transform="translate(-.99996 -.99996)" cx="10.221" cy="11" r=".55397" fill-opacity=".28235" stop-color="#000000" stroke-linejoin="round" stroke-width=".89205" style="fill:none;paint-order:markers fill stroke;stroke-opacity:.81569;stroke:#ffffff"/>
    <g transform="translate(-.99996 -.99996)" style="fill:none;stroke-opacity:.81569;stroke:#ffffff">
     <path d="m10.187 14.416v.93728" fill="none" stroke-width="1.5" style="fill:none;stroke-opacity:.81569;stroke:#ffffff"/>
     <path d="m15.704 13.38v4.0348" fill="#806600" fill-rule="evenodd" stroke-width=".98244" style="fill:none;stroke-opacity:.81569;stroke:#ffffff"/>
     <circle cx="15.704" cy="11" r=".55397" fill="#806600" fill-opacity=".28235" stop-color="#000000" stroke-linejoin="round" stroke-width=".89205" style="fill:none;paint-order:markers fill stroke;stroke-opacity:.81569;stroke:#ffffff"/>
     <path d="m15.684 16.577v.93728" fill="none" stroke-width="1.5" style="fill:none;stroke-opacity:.81569;stroke:#ffffff"/>
    </g>
   </g>
   <path d="m12.963 7.463h3.537c.554 0 1 .446 1 1v9.074c0 .554-.446 1-1 1h-3.537c-.554 0-1-.446-1-1v-9.074c0-.554.446-1 1-1zm-5.5 0h3.537c.554 0 1 .446 1 1v9.074c0 .554-.446 1-1 1h-3.537c-.554 0-1-.446-1-1v-9.074c0-.554.446-1 1-1z" fill="none" opacity=".9" stop-color="#000000" stroke-linecap="square" stroke-linejoin="round" stroke-miterlimit="0" stroke-width=".926" style="fill:none;paint-order:markers stroke fill;stroke-opacity:.81569;stroke:#ffffff"/>
  </g>
  <g transform="matrix(2 0 0 2 -1.464 24.995)" stroke="#fff" stroke-opacity=".81569">
   <g stroke-linecap="round">
    <path transform="translate(-.99996 -.99996)" d="m10.221 13.38v4.0348" fill-rule="evenodd" stroke-width=".98244"/>
    <circle transform="translate(-.99996 -.99996)" cx="10.221" cy="11" r=".55397" fill-opacity=".28235" stop-color="#000000" stroke-linejoin="round" stroke-width=".89205" style="paint-order:markers fill stroke"/>
    <g transform="translate(-.99996 -.99996)">
     <path d="m10.187 14.416v.93728" fill="none" stroke-width="1.5"/>
     <path d="m15.704 13.38v4.0348" fill="#806600" fill-rule="evenodd" stroke-width=".98244"/>
     <circle cx="15.704" cy="11" r=".55397" fill="#806600" fill-opacity=".28235" stop-color="#000000" stroke-linejoin="round" stroke-width=".89205" style="paint-order:markers fill stroke"/>
     <path d="m15.684 16.577v.93728" fill="none" stroke-width="1.5"/>
    </g>
   </g>
   <path d="m12.963 7.463h3.537c.554 0 1 .446 1 1v9.074c0 .554-.446 1-1 1h-3.537c-.554 0-1-.446-1-1v-9.074c0-.554.446-1 1-1zm-5.5 0h3.537c.554 0 1 .446 1 1v9.074c0 .554-.446 1-1 1h-3.537c-.554 0-1-.446-1-1v-9.074c0-.554.446-1 1-1z" fill="none" opacity=".9" stop-color="#000000" stroke-linecap="square" stroke-linejoin="round" stroke-miterlimit="0" stroke-width=".926" style="paint-order:markers stroke fill"/>
  </g>
 </g>
</svg>
