<?xml version="1.0" encoding="UTF-8"?>
<svg width="23.317mm" height="15.401mm" version="1.1" viewBox="0 0 23.317 15.401" xmlns="http://www.w3.org/2000/svg" xmlns:cc="http://creativecommons.org/ns#" xmlns:dc="http://purl.org/dc/elements/1.1/" xmlns:rdf="http://www.w3.org/1999/02/22-rdf-syntax-ns#">
 <metadata>
  <rdf:RDF>
   <cc:Work rdf:about="">
    <dc:format>image/svg+xml</dc:format>
    <dc:type rdf:resource="http://purl.org/dc/dcmitype/StillImage"/>
    <dc:title/>
   </cc:Work>
  </rdf:RDF>
 </metadata>
 <g transform="matrix(.857 0 0 .857 -43.166 -1.0675)">
  <g transform="matrix(1.1 0 0 1.1 -86.302 -.41661)" opacity=".9">
   <!--red-->
   <g transform="matrix(.35278 0 0 -.35278 -25.19 217.73)">
    <g transform="translate(488.6,604.65)">
     <path d="m0 0v-11.65l-8.3-8.6h-5.75v6.45l-8.6 8.25h-6v5.3l8.15 8.5h11.9z" fill="#ec1e23" fill-opacity=".62745" fill-rule="evenodd"/>
    </g>
   </g>
   <!--yellow-->
   <g transform="matrix(.35278 0 0 -.35278 148.98 16.172)">
    <path d="m0 0-9.9-4.75h-13.8l-10.15 4.6v6.45l9.7 4.65h13.95l10.2-4.5z" fill="#f0c000" fill-opacity=".62745" fill-rule="evenodd"/>
   </g>
   <!--blue-->
   <g transform="matrix(.35278 0 0 -.35278 136.12 6.3828)">
    <path d="m0 0h-5.95l-8.55-8.25v-6.45h-5.75l-8.35 8.6v11.65l8.5 8.25h11.9l8.2-8.5z" fill="#3f92ed" fill-opacity=".62745" fill-rule="evenodd"/>
   </g>
   <!--green-->
   <g transform="matrix(.35278 0 0 -.35278 136.17 13.897)">
    <path d="m0 0v-6.45l-9.9-4.75h-13.75l-10.15 4.6v6.55l9.65 4.65h14z" fill="#3eca41" fill-opacity=".62745" fill-rule="evenodd"/>
   </g>
  </g>
 </g>
</svg>
