<?xml version="1.0" encoding="UTF-8"?>
<svg width="26.388mm" height="7.9102mm" version="1.1" viewBox="0 0 26.388 7.9102" xmlns="http://www.w3.org/2000/svg" xmlns:cc="http://creativecommons.org/ns#" xmlns:dc="http://purl.org/dc/elements/1.1/" xmlns:rdf="http://www.w3.org/1999/02/22-rdf-syntax-ns#">
 <metadata>
  <rdf:RDF>
   <cc:Work rdf:about="">
    <dc:format>image/svg+xml</dc:format>
    <dc:type rdf:resource="http://purl.org/dc/dcmitype/StillImage"/>
    <dc:title/>
   </cc:Work>
  </rdf:RDF>
 </metadata>
 <g transform="matrix(.857 0 0 .857 -1.2447 -.39996)" fill="#dcdee7" opacity=".99" stroke-width=".34185px" aria-label="SFC">
  <path d="m8.0433 9.6968h-6.3721v-1.7092h6.3721q.629 0 .87514-.20511.24613-.21878.24613-.83411 0-.629-.24613-.83411-.23246-.21878-.87514-.21878h-2.9126q-1.9827 0-2.8305-.64268-.84779-.65635-.84779-2.0648 0-1.4084.84779-2.0648.86146-.65635 2.8305-.65635h6.2353v1.7229h-6.2353q-.629 0-.87514.20511t-.24613.80677q0 .61533.24613.83411.24613.20511.87514.20511h2.9126q1.9827 0 2.8305.65635t.84779 2.0784-.84779 2.0784q-.84779.64268-2.8305.64268z"/>
  <path d="m22.073 6.1962h-6.9874v3.5005h-2.5434v-5.2098q0-4.0202 4.0475-4.0202h5.4696v1.928h-5.0867q-1.0666 0-1.4631.46492t-.42389 1.4084h6.9874z"/>
  <path d="m32.244 9.6968h-5.4833q-4.0475 0-4.0475-4.6081 0-4.6218 4.0475-4.6218h5.4833v1.928h-5.0867q-1.1213 0-1.5041.64268-.38287.629-.38287 2.0511 0 1.4084.38287 2.0511t1.5041.64268h5.0867z"/>
 </g>
</svg>
