<?xml version="1.0" encoding="UTF-8"?>
<svg width="266.76" height="34.6" version="1.1" viewBox="0 0 70.579 9.1546" xmlns="http://www.w3.org/2000/svg" xmlns:cc="http://creativecommons.org/ns#" xmlns:dc="http://purl.org/dc/elements/1.1/" xmlns:rdf="http://www.w3.org/1999/02/22-rdf-syntax-ns#">
 <metadata>
  <rdf:RDF>
   <cc:Work rdf:about="">
    <dc:format>image/svg+xml</dc:format>
    <dc:type rdf:resource="http://purl.org/dc/dcmitype/StillImage"/>
    <dc:title/>
   </cc:Work>
  </rdf:RDF>
 </metadata>
 <g transform="matrix(.6 0 0 .6 -1.4083 -3.0128)" fill="#fff" fill-opacity=".81569">
  <g transform="matrix(.35278 0 0 -.35278 -25.19 217.73)" fill="#fff" fill-opacity=".81569">
   <g fill="#fff" fill-opacity=".81569" opacity=".99608">
    <g transform="translate(216.9,586.45)" fill="#fff" fill-opacity=".81569">
     <path d="m0 0v-1.85h27.85l3.35-3.3v-8.35l-3.35-3.25h-34.35v6.5h31.2v1.8h-27.95l-3.25 3.3v8.45l3.25 3.25h34.45v-6.55zm-12.95 6.55 3.25-3.25v-16.8l-3.25-3.25h-27.95v-10h-6.5v30.05l3.3 3.25zm-3.25-6.55h-24.7v-10.25h24.7zm-34.4-16.75h-6.45v23.3h6.45zm117.3 22.05v-15.55l-1.2-1.25h-24.6l-1.25 1.25v15.55h-4.05v-18.3l2.5-2.6h11.9l1.2-1.15v-8.8h4v8.8l1.25 1.15h11.85l2.55 2.6v18.3zm5.3 1.25v-20.05l-3.25-3.25h-12.3v-10h-6.45v10h-12.4l-3.3 3.25v20.05h6.6v-16.8h24.6v16.8zm-210.85-20.05v16.8l3.2 3.25h34.45v-6.55h-31.2v-10.25h31.2v-6.5h-34.45zm72 13.5h-24.65v-16.75h-6.5v33.25h6.5v-9.95h27.9l3.3-3.25v-20.05h-6.55zm66.85 1.2h29.95v4.1h-32.7l-2.6-2.55v-7.35l2.6-2.6h27.45l1.15-1.15v-1.9l-1.15-1.25h-30.05v-4.1h32.7l2.6 2.6v7.35l-2.6 2.55h-27.35l-1.25 1.25v1.85zm162.3-1.2 1.2 1.2h24.6l1.25-1.2v-15.6h4.1v18.35l-2.6 2.55h-27.35l-1.2 1.25v8.7h-4.1v-30.85h4.1zm1.2 16.5v-9.95h27.85l3.25-3.25v-20.05h-6.5v16.75h-24.6v-16.75h-6.5v33.25zm-53.9-9.95 3.25-3.25v-20.05h-6.45v16.75h-24.7v-16.75h-6.45v20.05l3.25 3.25zm2.05-3.8-2.55 2.55h-30.1l-2.55-2.55v-18.35h4.05v15.6l1.2 1.2h24.7l1.25-1.2v-15.6h4zm40.85 2.55h-29.9l-1.2 1.25v8.7h-4.05v-28.25l2.55-2.6h32.6v4.1h-29.9l-1.2 1.25v10.25l1.2 1.2h29.9zm1.3 1.25v-6.55h-31.2v-10.25h31.2v-6.5h-34.45l-3.25 3.25v30h6.5v-9.95z" fill="#fff" fill-opacity=".81569" fill-rule="evenodd"/>
    </g>
   </g>
  </g>
 </g>
</svg>
