<?xml version="1.0" encoding="UTF-8" standalone="no"?>
<svg
   xmlns:dc="http://purl.org/dc/elements/1.1/"
   xmlns:cc="http://creativecommons.org/ns#"
   xmlns:rdf="http://www.w3.org/1999/02/22-rdf-syntax-ns#"
   xmlns:svg="http://www.w3.org/2000/svg"
   xmlns="http://www.w3.org/2000/svg"
   id="svg2151"
   version="1.1"
   height="45"
   width="45">
  <metadata
     id="metadata2157">
    <rdf:RDF>
      <cc:Work
         rdf:about="">
        <dc:format>image/svg+xml</dc:format>
        <dc:type
           rdf:resource="http://purl.org/dc/dcmitype/StillImage" />
        <dc:title></dc:title>
      </cc:Work>
    </rdf:RDF>
  </metadata>
  <defs
     id="defs2155">
    <filter
       style="color-interpolation-filters:sRGB;"
       id="filter11964">
      <feColorMatrix
         values="1 0 0 0 0 0 1 0 0 0 0 0 1 0 0 -0.21 -0.72 -0.07 2 0 "
         result="color2"
         id="feColorMatrix11962" />
    </filter>
  </defs>
  <g
     id="g2149"
     transform="scale(1.5, 1.5)">
    <g
       transform="matrix(0.06648929,0,0,0.06648929,0.39030831,0.39030831)"
       id="Calque_2-7"
       data-name="Calque 2">
      <g
         id="Calque_2-2-5"
         data-name="Calque 2"
         style="fill:#484b51;fill-opacity:0.627451;stroke:#000000;stroke-opacity:0.50196081;stroke-width:1.99241488;stroke-miterlimit:4;stroke-dasharray:none"
         transform="matrix(1.0064849,0,0,1.0064849,-1.4249376,-1.4249354)">
        <path
           id="path2731-1-0"
           d="M 378.14239,61.30777 A 224.03242,224.04634 0 0 0 61.317946,378.15189 224.03242,224.04634 0 0 0 378.14239,61.30777 Z M 50.184128,219.72983 a 170.09662,170.10718 0 0 1 2.03916,-26.35779 H 236.66541 a 27.227899,27.229589 0 0 1 0,54.45917 h -13.83572 v 0 H 166.4163 a 43.342368,43.345059 0 0 0 -41.47652,30.78305 l -19.943,65.78742 A 169.11782,169.12832 0 0 1 50.184128,219.72983 Z M 219.73017,389.26601 a 169.44408,169.4546 0 0 1 -38.37701,-4.38447 l 22.16568,-73.2512 h 33.16695 a 91.140302,91.145961 0 0 0 91.03836,-91.30911 c -0.14272,-50.32962 -41.5989,-90.74831 -91.92539,-90.74831 H 76.244606 A 169.56644,169.57697 0 0 1 219.73017,50.173259 c 93.48534,0 169.52565,76.024641 169.52565,169.556571 0,93.53193 -76.04031,169.53618 -169.52565,169.53618 z"
           style="fill:#484b51;fill-opacity:0.627451;stroke-width:1.99241488;filter:url(#filter11964);stroke:#000000;stroke-opacity:0.50196081;stroke-miterlimit:4;stroke-dasharray:none" />
      </g>
      <path
         style="fill:#7a7a7a;fill-opacity:0.627451"
         d="M 375.1,64.36 A 219.73,219.73 0 0 0 64.36,375.1 219.73,219.73 0 0 0 375.1,64.36 Z M 53.44,219.73 a 166.83,166.83 0 0 1 2,-25.85 h 180.9 a 26.705,26.705 0 0 1 0,53.41 h -13.57 v 0 h -55.33 a 42.51,42.51 0 0 0 -40.68,30.19 L 107.2,342 A 165.87,165.87 0 0 1 53.44,219.73 Z M 219.73,386 a 166.19,166.19 0 0 1 -37.64,-4.3 l 21.74,-71.84 h 32.53 a 89.39,89.39 0 0 0 89.29,-89.55 c -0.14,-49.36 -40.8,-89 -90.16,-89 H 79 A 166.31,166.31 0 0 1 219.73,53.44 C 311.42,53.44 386,128 386,219.73 386,311.46 311.42,386 219.73,386 Z"
         id="path2731-1" />
    </g>
  </g>
</svg>
