<?xml version="1.0" encoding="UTF-8"?>
<svg width="15" height="15" version="1.1" viewBox="0 0 3.9688 3.9688" xmlns="http://www.w3.org/2000/svg" xmlns:cc="http://creativecommons.org/ns#" xmlns:dc="http://purl.org/dc/elements/1.1/" xmlns:rdf="http://www.w3.org/1999/02/22-rdf-syntax-ns#">
 <metadata>
  <rdf:RDF>
   <cc:Work rdf:about="">
    <dc:format>image/svg+xml</dc:format>
    <dc:type rdf:resource="http://purl.org/dc/dcmitype/StillImage"/>
    <dc:title/>
   </cc:Work>
  </rdf:RDF>
 </metadata>
 <g>
  <g style="fill-opacity:.86667;fill:#ffffff" aria-label="4">
   <path d="m1.3134 2.9263q-.0508 0-.084667-.0254-.029633-.029633-.029633-.080433v-.8382q0-.080433.0127-.1397.016933-.059267.059267-.12277l.7112-1.0499q.046567-.071967.10583-.1016.0635-.033867.1524-.033867h.52917v2.8998h-.42333v-.508zm.9271-.381q.10583 0 .10583-.10583v-1.2065q0-.046567-.0381-.0762t-.093133-.029633q-.084667 0-.127.067733l-.42757.63077q-.0381.055033-.0381.13123v.4826q0 .10583.10583.10583z" style="fill-opacity:.86667;fill:#ffffff"/>
  </g>
 </g>
</svg>
