<?xml version="1.0" encoding="UTF-8"?>
<svg width="15" height="15" version="1.1" viewBox="0 0 3.9688 3.9688" xmlns="http://www.w3.org/2000/svg" xmlns:cc="http://creativecommons.org/ns#" xmlns:dc="http://purl.org/dc/elements/1.1/" xmlns:rdf="http://www.w3.org/1999/02/22-rdf-syntax-ns#">
 <metadata>
  <rdf:RDF>
   <cc:Work rdf:about="">
    <dc:format>image/svg+xml</dc:format>
    <dc:type rdf:resource="http://purl.org/dc/dcmitype/StillImage"/>
    <dc:title/>
   </cc:Work>
  </rdf:RDF>
 </metadata>
 <g>
  <g style="fill-opacity:.86667;fill:#ffffff" aria-label="6">
   <path d="m2.014 3.4555q-.44027 0-.65617-.26247-.21167-.26247-.21167-.8128 0-.51647.22013-.94403.22437-.42757.6096-.6731.38523-.24977.84667-.24977v.33443q-.21167 0-.46143.11853-.24553.1143-.41487.28787-.16933.16933-.16933.31327.16933-.033867.28363-.033867.36407 0 .56303.26247.19897.25823.19897.74507 0 .46567-.19897.69003-.19897.22437-.6096.22437zm-.029633-.38523q.21167 0 .31327-.1397t.1016-.42333q0-.59267-.4318-.59267-.20743 0-.3048.13547-.093133.13547-.093133.42757 0 .3048.1016.44873t.31327.14393z" style="fill-opacity:.86667;fill:#ffffff"/>
  </g>
 </g>
</svg>
