<svg xmlns="http://www.w3.org/2000/svg" width="28" height="28" viewBox="0 0 28 28" version="1.1">
	<g transform="scale(4)">
		<path d="m 5.922154,1.047573 c -0.659932,-0.660519 -1.537367,-1.024291 -2.470621,-1.024291 -0.841207,0 -1.641535,0.297922 -2.274895,0.842859 l -0.677596,-0.665802 -0.135751,2.301946 2.340101,-0.173054 -0.664044,-0.615107 c 0.401926,-0.315586 0.895738,-0.487253 1.412185,-0.487253 1.263511,0 2.291483,1.02888 2.291483,2.293569 0,1.264689 -1.027972,2.293622 -2.291483,2.293622 -0.580106,0 -1.133526,-0.217452 -1.558401,-0.612227 -0.422573,-0.392747 -0.680263,-0.924665 -0.725513,-1.497829 l -0.01494,-0.188742 h -1.201506 l 0.01298,0.217131 c 0.110194,1.842176 1.64201,3.285202 3.487395,3.285202 0.933253,0 1.810689,-0.363771 2.470621,-1.024292 0.659878,-0.660519 1.023331,-1.538757 1.023331,-2.472865 0,-0.934108 -0.363453,-1.812347 -1.023331,-2.472867 z m 0,0" style="stroke-width:0.01366078" fill="#325ECC"  />
	</g>
</svg>
