<?xml version="1.0" encoding="UTF-8"?>
<svg version="1.1" viewBox="0 0 21.335 16.244" xmlns="http://www.w3.org/2000/svg" xmlns:cc="http://creativecommons.org/ns#" xmlns:dc="http://purl.org/dc/elements/1.1/" xmlns:rdf="http://www.w3.org/1999/02/22-rdf-syntax-ns#">
 <metadata>
  <rdf:RDF>
   <cc:Work rdf:about="">
    <dc:format>image/svg+xml</dc:format>
    <dc:type rdf:resource="http://purl.org/dc/dcmitype/StillImage"/>
    <dc:title/>
   </cc:Work>
  </rdf:RDF>
 </metadata>
 <path transform="matrix(-.22559 0 0 .29572 16.396 7.3255)" d="m4.2626 16.236c-27.677 15.979-23.455 18.417-23.455-13.542 1e-6-31.959-4.2219-29.521 23.455-13.542 27.677 15.979 27.677 11.104-1.4e-6 27.084z" style="fill-opacity:.68628;fill:#000000;paint-order:markers stroke fill;stop-color:#000000;stroke-linecap:square;stroke-linejoin:bevel;stroke-miterlimit:0;stroke-opacity:.25098;stroke-width:4.9397;stroke:#4d5055"/>
 <path transform="matrix(-.22789 0 0 .27111 16.449 6.3373)" d="m4.2626 16.236c-27.677 15.979-23.455 18.417-23.455-13.542 1e-6-31.959-4.2219-29.521 23.455-13.542 27.677 15.979 27.677 11.104-1.4e-6 27.084z" style="fill:#4d5055;paint-order:markers stroke fill;stop-color:#000000"/>
 <path transform="matrix(-.23079 0 0 .29572 6.3445 7.3255)" d="m4.2626 16.236c-27.677 15.979-23.455 18.417-23.455-13.542 1e-6-31.959-4.2219-29.521 23.455-13.542 27.677 15.979 27.677 11.104-1.4e-6 27.084z" style="fill-opacity:.68628;fill:#000000;paint-order:markers stroke fill;stop-color:#000000;stroke-linecap:square;stroke-linejoin:bevel;stroke-miterlimit:0;stroke-opacity:.25098;stroke-width:4.9397;stroke:#4d5055"/>
 <path transform="matrix(-.23314 0 0 .27111 6.3983 6.3373)" d="m4.2626 16.236c-27.677 15.979-23.455 18.417-23.455-13.542 1e-6-31.959-4.2219-29.521 23.455-13.542 27.677 15.979 27.677 11.104-1.4e-6 27.084z" style="fill:#4d5055;paint-order:markers stroke fill;stop-color:#000000"/>
</svg>
