<?xml version="1.0" encoding="UTF-8"?>
<svg version="1.1" viewBox="0 0 21.247 10.243" xmlns="http://www.w3.org/2000/svg" xmlns:cc="http://creativecommons.org/ns#" xmlns:dc="http://purl.org/dc/elements/1.1/" xmlns:rdf="http://www.w3.org/1999/02/22-rdf-syntax-ns#">
 <metadata>
  <rdf:RDF>
   <cc:Work rdf:about="">
    <dc:format>image/svg+xml</dc:format>
    <dc:type rdf:resource="http://purl.org/dc/dcmitype/StillImage"/>
    <dc:title/>
   </cc:Work>
  </rdf:RDF>
 </metadata>
 <rect transform="rotate(90)" x="4.3271" y="-14.956" width="2.8727" height="13.941" rx=".86148" ry=".86148" style="fill-opacity:.68628;fill:#000000;font-variation-settings:normal;paint-order:markers stroke fill;stop-color:#000000;stroke-linecap:square;stroke-linejoin:bevel;stroke-miterlimit:0;stroke-opacity:.25098;stroke-width:2.0311;stroke:#4d5055"/>
 <path d="m17.828 7.1253c-4.0743 2.9801-3.4528 3.4348-3.4528-2.5256 0-5.9604-.62151-5.5057 3.4528-2.5256 4.0743 2.9801 4.0743 2.0709 0 5.0512z" style="fill-opacity:.68628;fill:#000000;paint-order:markers stroke fill;stop-color:#000000;stroke-linecap:square;stroke-linejoin:bevel;stroke-miterlimit:0;stroke-opacity:.25098;stroke-width:.81691;stroke:#4d5055"/>
 <path transform="matrix(.14871 0 0 .17098 17.166 3.9958)" d="m4.2626 16.236c-27.677 15.979-23.455 18.417-23.455-13.542 1e-6-31.959-4.2219-29.521 23.455-13.542 27.677 15.979 27.677 11.104-1.4e-6 27.084z" style="fill:#4d5055;paint-order:markers stroke fill;stop-color:#000000"/>
 <rect transform="rotate(90)" x="3.0249" y="-15.476" width="3.2113" height="14.981" rx=".963" ry=".963" style="fill:#4d5055;font-variation-settings:normal;paint-order:markers stroke fill;stop-color:#000000"/>
</svg>
