<?xml version="1.0" encoding="UTF-8"?>
<svg version="1.1" viewBox="0 0 21.12 16.094" xmlns="http://www.w3.org/2000/svg" xmlns:cc="http://creativecommons.org/ns#" xmlns:dc="http://purl.org/dc/elements/1.1/" xmlns:rdf="http://www.w3.org/1999/02/22-rdf-syntax-ns#">
 <metadata>
  <rdf:RDF>
   <cc:Work rdf:about="">
    <dc:format>image/svg+xml</dc:format>
    <dc:type rdf:resource="http://purl.org/dc/dcmitype/StillImage"/>
    <dc:title/>
   </cc:Work>
  </rdf:RDF>
 </metadata>
 <path transform="matrix(-.23076 0 0 .29262 16.063 7.2554)" d="m4.2626 16.236c-27.677 15.979-23.455 18.417-23.455-13.542 1e-6-31.959-4.2219-29.521 23.455-13.542 27.677 15.979 27.677 11.104-1.4e-6 27.084z" style="fill:#4d5055;paint-order:markers stroke fill;stop-color:#000000;stroke-linecap:square;stroke-linejoin:bevel;stroke-miterlimit:0;stroke-opacity:.25098;stroke-width:4.9847;stroke:#4d5055"/>
 <path transform="matrix(-.23076 0 0 .29262 9.5151 7.2554)" d="m4.2626 16.236c-27.677 15.979-23.455 18.417-23.455-13.542 1e-6-31.959-4.2219-29.521 23.455-13.542 27.677 15.979 27.677 11.104-1.4e-6 27.084z" style="fill:#4d5055;paint-order:markers stroke fill;stop-color:#000000;stroke-linecap:square;stroke-linejoin:bevel;stroke-miterlimit:0;stroke-opacity:.25098;stroke-width:4.9847;stroke:#4d5055"/>
 <rect transform="scale(-1,1)" x="-3.8395" y="2.2758" width="2.857" height="12.835" rx=".86148" ry=".86148" style="fill:#4d5055;font-variation-settings:normal;paint-order:markers stroke fill;stop-color:#000000;stroke-linecap:square;stroke-linejoin:bevel;stroke-miterlimit:0;stroke-opacity:.25098;stroke-width:1.9651;stroke:#4d5055"/>
</svg>
