<?xml version="1.0" encoding="UTF-8"?>
<svg width="10" height="30" version="1.1" viewBox="0 0 2.6458 7.9375" xmlns="http://www.w3.org/2000/svg" xmlns:cc="http://creativecommons.org/ns#" xmlns:dc="http://purl.org/dc/elements/1.1/" xmlns:rdf="http://www.w3.org/1999/02/22-rdf-syntax-ns#">
 <metadata>
  <rdf:RDF>
   <cc:Work rdf:about="">
    <dc:format>image/svg+xml</dc:format>
    <dc:type rdf:resource="http://purl.org/dc/dcmitype/StillImage"/>
    <dc:title/>
   </cc:Work>
  </rdf:RDF>
 </metadata>
 <g transform="translate(-57.456 -54.117)">
  <path d="m57.788 60.622a0.99218 0.99218 0 0 1 1.0314-0.94472 0.99218 0.99218 0 0 1 0.9513 1.0253 0.99218 0.99218 0 0 1-1.0192 0.95783 0.99218 0.99218 0 0 1-0.96432-1.0131" style="fill-opacity:.81569;fill-rule:evenodd;fill:#ffffff;paint-order:stroke fill markers;stop-color:#000000;stroke-linecap:round;stroke-opacity:.50196;stroke-width:.13229;stroke:#000000"/>
  <g transform="matrix(1.0895 0 0 .91788 0 5.2285)" style="fill-opacity:.81569;fill:#060606" aria-label="w">
   <path d="m53.32 60.204v-0.12498h0.43869v0.12498h-0.02295q-0.03698 0-0.03698 0.02806 0 0.01403 0.0051 0.03316l0.07397 0.24102 0.08034-0.2423q0.0051-0.0153 0.0051-0.02933 0-0.03061-0.03698-0.03061h-0.02806v-0.12498h0.45527v0.12498l-0.0102 0.0013h-0.01785q-0.05611 0-0.05611 0.02933 0 0.0102 0.0064 0.02933l0.07652 0.22827 0.08927-0.227q0.0089-0.02168 0.0089-0.03571 0-0.01785-0.02678-0.02423l-0.0051-0.0013h-0.02806v-0.12498h0.29458v0.12625l-0.01785 0.0013h-0.0051l-0.01148 0.0013q-0.0204 0.0025-0.03188 0.01148-0.0102 0.0077-0.0204 0.03316l-0.0064 0.01403-0.17088 0.45527h-0.24868l-0.11222-0.29969-0.1186 0.29969h-0.23975l-0.17726-0.45654q-0.02296-0.05994-0.07141-0.05994l-0.0038-0.0013z" style="fill-opacity:.81569;fill:#060606"/>
  </g>
 </g>
</svg>
