<?xml version="1.0" encoding="UTF-8"?>
<svg width="10" height="10" version="1.1" viewBox="0 0 2.6458 2.6458" xmlns="http://www.w3.org/2000/svg" xmlns:cc="http://creativecommons.org/ns#" xmlns:dc="http://purl.org/dc/elements/1.1/" xmlns:rdf="http://www.w3.org/1999/02/22-rdf-syntax-ns#">
 <metadata>
  <rdf:RDF>
   <cc:Work rdf:about="">
    <dc:format>image/svg+xml</dc:format>
    <dc:type rdf:resource="http://purl.org/dc/dcmitype/StillImage"/>
    <dc:title/>
   </cc:Work>
  </rdf:RDF>
 </metadata>
 <g transform="translate(-57.456 -54.117)">
  <path d="m57.788 55.393a0.99218 0.99218 0 0 1 1.0314-0.94472 0.99218 0.99218 0 0 1 0.9513 1.0253 0.99218 0.99218 0 0 1-1.0192 0.95783 0.99218 0.99218 0 0 1-0.96432-1.0131" style="fill-opacity:.81569;fill-rule:evenodd;fill:#000000;paint-order:stroke fill markers;stop-color:#000000;stroke-linecap:round;stroke-opacity:.50196;stroke-width:.13229;stroke:#000000"/>
  <g transform="scale(1.0895 .91788)" style="fill-opacity:.81569;fill:#ffffff" aria-label="b">
   <path d="m53.5 60.054v-0.1237h0.3762v0.33539q0.02933-0.02551 0.07652-0.04846 0.05356-0.02678 0.10457-0.02678 0.15431 0 0.2474 0.07652 0.09947 0.08162 0.09947 0.2321 0 0.08672-0.0153 0.14283t-0.05484 0.10585q-0.09692 0.12242-0.26015 0.12242-0.02678 0-0.05356-0.0038-0.12242-0.01785-0.18874-0.09437l-0.03826 0.07652h-0.18364v-0.73455q0-0.03698-0.0051-0.04591-0.0089-0.01403-0.04081-0.01403-0.0013-0.0013-0.02168-0.0013-0.01403 0-0.02678 0-0.0051 0-0.0153 0.0013zm0.37875 0.50883q0 0.07524 0.02168 0.1135 0.02168 0.03826 0.06249 0.05229 0.02168 0.0077 0.03188 0.0102 0.0102 0.0026 0.02551 0.0026 0.03826 0 0.06249-0.03571 0.0255-0.03698 0.03698-0.13518 0.0013-0.01275 0.0013-0.02806 0.0013-0.0153 0.0013-0.02295 0-0.07907-0.02933-0.12753-0.02806-0.04846-0.07014-0.05866-0.01785-0.0038-0.03188-0.0038-0.11222 0-0.11222 0.17216z" style="fill-opacity:.81569;fill:#ffffff"/>
  </g>
 </g>
</svg>
