<?xml version="1.0" encoding="UTF-8" standalone="no"?>
<svg
   xmlns:dc="http://purl.org/dc/elements/1.1/"
   xmlns:cc="http://creativecommons.org/ns#"
   xmlns:rdf="http://www.w3.org/1999/02/22-rdf-syntax-ns#"
   xmlns:svg="http://www.w3.org/2000/svg"
   xmlns="http://www.w3.org/2000/svg"
   xmlns:sodipodi="http://sodipodi.sourceforge.net/DTD/sodipodi-0.dtd"
   xmlns:inkscape="http://www.inkscape.org/namespaces/inkscape"
   height="20"
   width="40"
   version="1.1"
   viewBox="0 0 40 20"
   id="svg920"
   sodipodi:docname="btn_echo_back_hl.svg"
   inkscape:version="1.0 (4035a4fb49, 2020-05-01)">
  <sodipodi:namedview
     fit-margin-bottom="0"
     fit-margin-right="0"
     fit-margin-left="0"
     fit-margin-top="0"
     inkscape:document-rotation="0"
     pagecolor="#ffffff"
     bordercolor="#666666"
     borderopacity="1"
     objecttolerance="10"
     gridtolerance="10"
     guidetolerance="10"
     inkscape:pageopacity="0"
     inkscape:pageshadow="2"
     inkscape:window-width="1680"
     inkscape:window-height="988"
     id="namedview922"
     showgrid="false"
     inkscape:zoom="12.993087"
     inkscape:cx="16.285396"
     inkscape:cy="-0.56023363"
     inkscape:window-x="-8"
     inkscape:window-y="308"
     inkscape:window-maximized="1"
     inkscape:current-layer="svg920" />
  <metadata
     id="metadata901">
    <rdf:RDF>
      <cc:Work
         rdf:about="">
        <dc:format>image/svg+xml</dc:format>
        <dc:type
           rdf:resource="http://purl.org/dc/dcmitype/StillImage" />
        <dc:title></dc:title>
      </cc:Work>
    </rdf:RDF>
  </metadata>
  <defs
     id="defs908">
    <radialGradient
       id="radialGradient21908"
       cx="7.5"
       cy="10"
       r="7.5"
       gradientTransform="matrix(1.5515,2.01,-1.0555,0.81471,6.4187,-13.222)"
       gradientUnits="userSpaceOnUse">
      <stop
         style="stop-color:#888888;stop-opacity:.50196"
         offset="0"
         id="stop903" />
      <stop
         style="stop-color:#000000;stop-opacity:.50196"
         offset="1"
         id="stop905" />
    </radialGradient>
  </defs>
  <g
     transform="translate(2.2998876,0.53874791)"
     id="g870">
    <path
       id="path918"
       style="opacity:0.9;fill:#000000;fill-opacity:0.815686;stroke-width:1;paint-order:stroke fill markers;stop-color:#000000"
       d="M 7.6779224,6.0033664 C 7.5330553,6.3381945 7.6156396,6.7822376 7.5273784,7.0956242 H 2.1073823 c -0.166607,0.065866 -0.057282,0.3062634 -0.088754,0.450772 0.00467,0.782421 -0.00944,1.5667541 0.00702,2.3480388 0.1198159,0.107471 0.3167451,0.029032 0.4696796,0.05302 C 2.8337841,9.9795942 3.0620027,9.6362798 3.3595538,9.5188662 4.2676705,8.9856631 5.171438,8.4300743 6.1449069,8.0228668 6.5326811,7.9887195 6.3407483,8.6921286 6.4218285,8.9797712 6.3997049,9.1849941 6.7019418,9.050525 6.8390998,9.088962 H 11.143999 C 11.372027,8.8745216 11.93689,8.7186711 11.91239,8.4047342 11.157708,7.7961517 10.294481,7.3376829 9.4592939,6.8501713 8.8868057,6.5475412 8.3302248,6.1900168 7.7089613,5.9988487 Z M 11.144167,9.0889477 C 10.08786,9.7441182 9.0208202,10.39611 7.8830144,10.900952 7.4032592,11.056324 7.6782211,10.17811 7.5291472,9.9473581 H 2.6774568 C 2.4321593,10.137892 1.6834542,10.453155 2.2863123,10.720013 c 1.1457656,0.782805 2.3544929,1.476519 3.60106,2.085461 0.2769096,0.210458 0.5556605,0.146062 0.4947542,-0.243421 0.072473,-0.241509 -0.1080081,-0.731471 0.285563,-0.621311 H 11.87112 c 0.164193,-0.06735 0.05569,-0.306432 0.08704,-0.450773 -0.0045,-0.782444 0.0092,-1.5666339 -0.0068,-2.348039 C 11.832764,9.0341731 11.635452,9.113093 11.483128,9.08891 h -0.339047 z" />
    <g
       aria-label="SELECT"
       transform="matrix(0.91353055,0,0,0.81971385,0.27091979,0.80773448)"
       id="text847"
       style="font-size:7.81266px;line-height:125%;font-family:Changa;-inkscape-font-specification:Changa;letter-spacing:0px;word-spacing:0px;fill:#000000;fill-opacity:0.815686;stroke:#000000;stroke-width:0.11556;stroke-linecap:butt;stroke-linejoin:miter;stroke-miterlimit:4;stroke-dasharray:none;stroke-opacity:0.501961;paint-order:normal">
      <path
         d="m 14.314066,12.545076 q 0.289068,0.0625 0.718764,0.109377 0.429697,0.04688 0.796892,0.04688 0.390633,0 0.968769,-0.04688 v -1.812537 l -0.757828,-0.05469 Q 15.290648,10.740346 14.923453,10.62316 14.564071,10.498158 14.431255,10.24034 14.29844,9.9747094 14.29844,9.4434486 q 0,-0.5312609 0.125003,-0.8437673 0.132815,-0.3203191 0.421883,-0.460947 0.289069,-0.1406279 0.773454,-0.1406279 0.710952,0 1.484405,0.1171899 l -0.0625,0.3984457 q -0.562512,-0.1015646 -1.492218,-0.1015646 -0.390633,0 -0.687514,0.039063 v 1.8281626 l 0.96877,0.05469 q 0.625012,0.03125 0.945332,0.164066 0.320319,0.125002 0.453134,0.414071 0.132815,0.289068 0.132815,0.835954 0,0.539074 -0.156253,0.835955 -0.156253,0.289068 -0.523448,0.414071 -0.359383,0.11719 -1.031272,0.11719 -0.750015,0 -1.414091,-0.156253 z"
         style="fill:#000000;fill-opacity:0.815686;stroke:#000000;stroke-width:0.11556;stroke-miterlimit:4;stroke-dasharray:none;stroke-opacity:0.501961;paint-order:normal"
         id="path849" />
      <path
         d="m 19.033279,12.576326 h 2.257858 V 12.99821 H 18.525456 V 8.1152973 h 2.718805 l -0.05469,0.4218837 h -2.156294 v 1.804724 h 1.953165 v 0.429697 h -1.953165 z"
         style="fill:#000000;fill-opacity:0.815686;stroke:#000000;stroke-width:0.11556;stroke-miterlimit:4;stroke-dasharray:none;stroke-opacity:0.501961;paint-order:normal"
         id="path851" />
      <path
         d="m 22.538599,8.1152973 h 0.507823 v 4.4610287 h 1.906289 v 0.421884 h -2.414112 z"
         style="fill:#000000;fill-opacity:0.815686;stroke:#000000;stroke-width:0.11556;stroke-miterlimit:4;stroke-dasharray:none;stroke-opacity:0.501961;paint-order:normal"
         id="path853" />
      <path
         d="m 26.372907,12.576326 h 2.257859 V 12.99821 H 25.865084 V 8.1152973 H 28.58389 L 28.5292,8.537181 h -2.156294 v 1.804724 h 1.953165 v 0.429697 h -1.953165 z"
         style="fill:#000000;fill-opacity:0.815686;stroke:#000000;stroke-width:0.11556;stroke-miterlimit:4;stroke-dasharray:none;stroke-opacity:0.501961;paint-order:normal"
         id="path855" />
      <path
         d="m 32.620471,12.912271 q -0.281255,0.109377 -0.585949,0.156253 -0.296881,0.04688 -0.70314,0.04688 -0.710952,0 -1.062521,-0.210942 -0.343757,-0.218754 -0.476573,-0.750015 -0.125002,-0.531261 -0.125002,-1.593783 0,-1.0781471 0.132815,-1.609408 0.132815,-0.5312609 0.492198,-0.7422028 0.359382,-0.2109418 1.093772,-0.2109418 0.23438,0 0.554699,0.039063 0.320319,0.039063 0.539074,0.1093773 L 32.40953,8.5840569 Q 32.120461,8.513743 31.737641,8.4824923 31.362633,8.443429 31.112628,8.443429 q -0.343757,0 -0.531261,0.046876 -0.187504,0.039063 -0.281256,0.1718785 -0.09375,0.1250026 -0.09375,0.390633 v 3.5156975 q 0.398446,0.132815 1.039084,0.132815 0.58595,0 1.304714,-0.195317 z"
         style="fill:#000000;fill-opacity:0.815686;stroke:#000000;stroke-width:0.11556;stroke-miterlimit:4;stroke-dasharray:none;stroke-opacity:0.501961;paint-order:normal"
         id="path857" />
      <path
         d="M 34.842564,12.99821 H 34.334741 V 8.537181 H 32.975338 V 8.1152973 h 3.218816 V 8.537181 h -1.35159 z"
         style="fill:#000000;fill-opacity:0.815686;stroke:#000000;stroke-width:0.11556;stroke-miterlimit:4;stroke-dasharray:none;stroke-opacity:0.501961;paint-order:normal"
         id="path859" />
    </g>
  </g>
  <rect
     x="1"
     y="1"
     width="38"
     height="18"
     rx="0.75"
     ry="0.75"
     style="opacity:0.901;fill:#ffffff;fill-opacity:0.75294119;stroke:#000000;stroke-width:2;stroke-linecap:square;stroke-miterlimit:0;stroke-dasharray:none;stroke-opacity:0.3764706;paint-order:stroke fill markers;stop-color:#000000"
     id="rect914" />
</svg>
