<?xml version="1.0" encoding="UTF-8"?>
<svg version="1.1" viewBox="0 0 90 100" xmlns="http://www.w3.org/2000/svg" xmlns:cc="http://creativecommons.org/ns#" xmlns:dc="http://purl.org/dc/elements/1.1/" xmlns:osb="http://www.openswatchbook.org/uri/2009/osb" xmlns:rdf="http://www.w3.org/1999/02/22-rdf-syntax-ns#">
 <metadata>
  <rdf:RDF>
   <cc:Work rdf:about="">
    <dc:format>image/svg+xml</dc:format>
    <dc:type rdf:resource="http://purl.org/dc/dcmitype/StillImage"/>
    <dc:title/>
   </cc:Work>
  </rdf:RDF>
 </metadata>
 <g transform="translate(22.5 24.995)">
  <rect transform="scale(-1)" x="-58.5" y="-72.995" width="72" height="46" rx="5" ry="5" fill="#ffffff" fill-opacity=".094118" stop-color="#000000" stroke-linecap="round" stroke-linejoin="round" stroke-miterlimit="0" stroke-width=".72112" style="paint-order:markers stroke fill"/>
  <rect transform="scale(-1)" x="-58.5" y="-72.995" width="72" height="6" fill="#6c78c4" stroke-width="1.5561"/>
  <g transform="matrix(2 0 0 2 4.0573 24.995)" stroke="#ffffff" stroke-opacity=".81569">
   <g stroke-linecap="round">
    <g transform="matrix(1.9793 0 0 1 -11.01 -.99996)" style="stroke-width:.7108">
     <path d="m10.221 13.38v4.0348" style="color-rendering:auto;color:#000000;dominant-baseline:auto;fill-rule:evenodd;fill:#000000;font-feature-settings:normal;font-variant-alternates:normal;font-variant-caps:normal;font-variant-east-asian:normal;font-variant-ligatures:normal;font-variant-numeric:normal;font-variant-position:normal;font-variation-settings:normal;image-rendering:auto;inline-size:0;isolation:auto;mix-blend-mode:normal;shape-margin:0;shape-padding:0;shape-rendering:auto;solid-color:#000000;stop-color:#000000;stroke:none;text-decoration-color:#000000;text-decoration-line:none;text-decoration-style:solid;text-indent:0;text-orientation:mixed;text-transform:none;white-space:normal"/>
     <path d="m10.221 12.889a0.49122 0.49122 0 0 0-0.49023 0.49219v4.0332a0.49122 0.49122 0 0 0 0.49023 0.49219 0.49122 0.49122 0 0 0 0.49219-0.49219v-4.0332a0.49122 0.49122 0 0 0-0.49219-0.49219z" style="color-rendering:auto;color:#000000;dominant-baseline:auto;fill-opacity:.81569;fill-rule:evenodd;fill:#ffffff;font-feature-settings:normal;font-variant-alternates:normal;font-variant-caps:normal;font-variant-east-asian:normal;font-variant-ligatures:normal;font-variant-numeric:normal;font-variant-position:normal;font-variation-settings:normal;image-rendering:auto;inline-size:0;isolation:auto;mix-blend-mode:normal;shape-margin:0;shape-padding:0;shape-rendering:auto;solid-color:#000000;stop-color:#000000;stroke:none;text-decoration-color:#000000;text-decoration-line:none;text-decoration-style:solid;text-indent:0;text-orientation:mixed;text-transform:none;white-space:normal"/>
    </g>
    <path transform="scale(-1)" d="m-8.6676-10.554a0.55397 0.55397 0 0 1-0.54132 0.55383 0.55397 0.55397 0 0 1-0.56605-0.52852l0.55339-0.0253z" fill-opacity=".28235" stop-color="#000000" stroke-linejoin="round" stroke-width=".89205" style="fill-opacity:.094118;fill:#ffffff;paint-order:markers fill stroke;stroke-opacity:.81569;stroke:#ffffff"/>
   </g>
  </g>
  <g transform="matrix(2 0 0 2 4.0573 -25.005)" stroke="#ffffff" stroke-opacity=".81569">
   <g stroke-linecap="round">
    <g transform="matrix(1.9793 0 0 1 -11.01 -.99996)" style="fill-opacity:.81569;fill:#ffffff;stroke:none">
     <path d="m10.221 13.38v4.0348" style="color-rendering:auto;color:#000000;dominant-baseline:auto;fill-opacity:.81569;fill-rule:evenodd;fill:#ffffff;font-feature-settings:normal;font-variant-alternates:normal;font-variant-caps:normal;font-variant-east-asian:normal;font-variant-ligatures:normal;font-variant-numeric:normal;font-variant-position:normal;font-variation-settings:normal;image-rendering:auto;inline-size:0;isolation:auto;mix-blend-mode:normal;shape-margin:0;shape-padding:0;shape-rendering:auto;solid-color:#000000;stop-color:#000000;text-decoration-color:#000000;text-decoration-line:none;text-decoration-style:solid;text-indent:0;text-orientation:mixed;text-transform:none;white-space:normal"/>
     <path d="m10.221 12.889a0.49122 0.49122 0 0 0-0.49023 0.49219v4.0332a0.49122 0.49122 0 0 0 0.49023 0.49219 0.49122 0.49122 0 0 0 0.49219-0.49219v-4.0332a0.49122 0.49122 0 0 0-0.49219-0.49219z" style="color-rendering:auto;color:#000000;dominant-baseline:auto;fill-opacity:.81569;fill-rule:evenodd;fill:#ffffff;font-feature-settings:normal;font-variant-alternates:normal;font-variant-caps:normal;font-variant-east-asian:normal;font-variant-ligatures:normal;font-variant-numeric:normal;font-variant-position:normal;font-variation-settings:normal;image-rendering:auto;inline-size:0;isolation:auto;mix-blend-mode:normal;shape-margin:0;shape-padding:0;shape-rendering:auto;solid-color:#000000;stop-color:#000000;text-decoration-color:#000000;text-decoration-line:none;text-decoration-style:solid;text-indent:0;text-orientation:mixed;text-transform:none;white-space:normal"/>
    </g>
    <path transform="scale(-1)" d="m-8.6676-10.554a0.55397 0.55397 0 0 1-0.54132 0.55383 0.55397 0.55397 0 0 1-0.56605-0.52852l0.55339-0.0253z" fill-opacity=".28235" stop-color="#000000" stroke-linejoin="round" stroke-width=".89205" style="fill-opacity:.094118;fill:#ffffff;paint-order:markers fill stroke;stroke-opacity:.81569;stroke:#ffffff"/>
    <rect x="3.6845" y="32.463" width="11.074" height="11.074" rx="7.5" ry="7.5" fill="none" opacity=".98" stop-color="#000000" stroke="#ffffff" stroke-linecap="square" stroke-miterlimit=".8" stroke-opacity=".81569" stroke-width=".92627" style="paint-order:fill markers stroke"/>
    <rect x="3.6845" y="7.4632" width="11.074" height="11.074" rx="7.5" ry="7.5" fill="none" opacity=".98" stop-color="#000000" stroke="#ffffff" stroke-linecap="square" stroke-miterlimit=".8" stroke-opacity=".81569" stroke-width=".92627" style="opacity:1;paint-order:fill markers stroke;stroke-opacity:.25098;stroke:#ffffff"/>
   </g>
  </g>
 </g>
</svg>
