<?xml version="1.0" encoding="UTF-8"?>
<svg version="1.1" viewBox="0 0 40 20" xmlns="http://www.w3.org/2000/svg" xmlns:cc="http://creativecommons.org/ns#" xmlns:dc="http://purl.org/dc/elements/1.1/" xmlns:rdf="http://www.w3.org/1999/02/22-rdf-syntax-ns#">
 <metadata>
  <rdf:RDF>
   <cc:Work rdf:about="">
    <dc:format>image/svg+xml</dc:format>
    <dc:type rdf:resource="http://purl.org/dc/dcmitype/StillImage"/>
    <dc:title/>
   </cc:Work>
  </rdf:RDF>
 </metadata>
 <rect x="1" y="1" width="38" height="18" rx=".75" ry=".75" style="fill-opacity:.62745;fill:#ffffff;opacity:.901;paint-order:stroke fill markers;stop-color:#000000;stroke-linecap:square;stroke-miterlimit:0;stroke-opacity:.37647;stroke-width:2;stroke:#000000"/>
 <g transform="translate(2.2999 .53875)">
  <path d="m7.6779 6.0034c-0.14487 0.33483-0.062283 0.77887-0.15054 1.0923h-5.42c-0.16661 0.065866-0.057282 0.30626-0.088754 0.45077 0.00467 0.78242-0.00944 1.5668 0.00702 2.348 0.11982 0.10747 0.31675 0.029032 0.46968 0.05302 0.33846 0.032139 0.56667-0.31118 0.86423-0.42859 0.90812-0.5332 1.8119-1.0888 2.7854-1.496 0.38777-0.034147 0.19584 0.66926 0.27692 0.9569-0.022124 0.20522 0.28011 0.070754 0.41727 0.10919h4.3049c0.22803-0.21444 0.79289-0.37029 0.76839-0.68423-0.75468-0.60858-1.6179-1.0671-2.4531-1.5546-0.57249-0.30263-1.1291-0.66015-1.7503-0.85132zm3.4662 3.0856c-1.0563 0.65517-2.1233 1.3072-3.2612 1.812-0.47976 0.15537-0.20479-0.72284-0.35387-0.95359h-4.8517c-0.2453 0.19053-0.994 0.5058-0.39114 0.77265 1.1458 0.7828 2.3545 1.4765 3.6011 2.0855 0.27691 0.21046 0.55566 0.14606 0.49475-0.24342 0.072473-0.24151-0.10801-0.73147 0.28556-0.62131h5.2034c0.16419-0.06735 0.05569-0.30643 0.08704-0.45077-0.0045-0.78244 0.0092-1.5666-0.0068-2.348-0.1186-0.10776-0.31591-0.028837-0.46823-0.05302h-0.33905z" style="fill-opacity:.81569;fill:#000000;opacity:.9;paint-order:stroke fill markers;stop-color:#000000"/>
  <g transform="matrix(.91353 0 0 .81971 .27092 .80773)" style="fill-opacity:.81569;fill:#000000;paint-order:normal;stroke-opacity:.50196;stroke-width:.11556;stroke:#000000" aria-label="SELECT">
   <path d="m14.314 12.545q0.28907 0.0625 0.71876 0.10938 0.4297 0.04688 0.79689 0.04688 0.39063 0 0.96877-0.04688v-1.8125l-0.75783-0.05469q-0.75002-0.04688-1.1172-0.16407-0.35938-0.125-0.4922-0.38282-0.13282-0.26563-0.13282-0.79689 0-0.53126 0.125-0.84377 0.13282-0.32032 0.42188-0.46095 0.28907-0.14063 0.77345-0.14063 0.71095 0 1.4844 0.11719l-0.0625 0.39845q-0.56251-0.10156-1.4922-0.10156-0.39063 0-0.68751 0.039063v1.8282l0.96877 0.05469q0.62501 0.03125 0.94533 0.16407 0.32032 0.125 0.45313 0.41407 0.13282 0.28907 0.13282 0.83595 0 0.53907-0.15625 0.83596-0.15625 0.28907-0.52345 0.41407-0.35938 0.11719-1.0313 0.11719-0.75002 0-1.4141-0.15625z" style="fill-opacity:.81569;fill:#000000;paint-order:normal;stroke-opacity:.50196;stroke-width:.11556;stroke:#000000"/>
   <path d="m19.033 12.576h2.2579v0.42188h-2.7657v-4.8829h2.7188l-0.05469 0.42188h-2.1563v1.8047h1.9532v0.4297h-1.9532z" style="fill-opacity:.81569;fill:#000000;paint-order:normal;stroke-opacity:.50196;stroke-width:.11556;stroke:#000000"/>
   <path d="m22.539 8.1153h0.50782v4.461h1.9063v0.42188h-2.4141z" style="fill-opacity:.81569;fill:#000000;paint-order:normal;stroke-opacity:.50196;stroke-width:.11556;stroke:#000000"/>
   <path d="m26.373 12.576h2.2579v0.42188h-2.7657v-4.8829h2.7188l-0.05469 0.42188h-2.1563v1.8047h1.9532v0.4297h-1.9532z" style="fill-opacity:.81569;fill:#000000;paint-order:normal;stroke-opacity:.50196;stroke-width:.11556;stroke:#000000"/>
   <path d="m32.62 12.912q-0.28126 0.10938-0.58595 0.15625-0.29688 0.04688-0.70314 0.04688-0.71095 0-1.0625-0.21094-0.34376-0.21875-0.47657-0.75002-0.125-0.53126-0.125-1.5938 0-1.0781 0.13282-1.6094t0.4922-0.7422q0.35938-0.21094 1.0938-0.21094 0.23438 0 0.5547 0.039063t0.53907 0.10938l-0.070314 0.43751q-0.28907-0.070314-0.67189-0.10156-0.37501-0.039063-0.62501-0.039063-0.34376 0-0.53126 0.046876-0.1875 0.039063-0.28126 0.17188-0.09375 0.125-0.09375 0.39063v3.5157q0.39845 0.13282 1.0391 0.13282 0.58595 0 1.3047-0.19532z" style="fill-opacity:.81569;fill:#000000;paint-order:normal;stroke-opacity:.50196;stroke-width:.11556;stroke:#000000"/>
   <path d="m34.843 12.998h-0.50782v-4.461h-1.3594v-0.42188h3.2188v0.42188h-1.3516z" style="fill-opacity:.81569;fill:#000000;paint-order:normal;stroke-opacity:.50196;stroke-width:.11556;stroke:#000000"/>
  </g>
 </g>
</svg>
