<?xml version="1.0" encoding="UTF-8"?>
<svg version="1.1" viewBox="0 0 15 20" xmlns="http://www.w3.org/2000/svg" xmlns:cc="http://creativecommons.org/ns#" xmlns:dc="http://purl.org/dc/elements/1.1/" xmlns:osb="http://www.openswatchbook.org/uri/2009/osb" xmlns:rdf="http://www.w3.org/1999/02/22-rdf-syntax-ns#" xmlns:xlink="http://www.w3.org/1999/xlink">
 <metadata>
  <rdf:RDF>
   <cc:Work rdf:about="">
    <dc:format>image/svg+xml</dc:format>
    <dc:type rdf:resource="http://purl.org/dc/dcmitype/StillImage"/>
    <dc:title/>
   </cc:Work>
  </rdf:RDF>
 </metadata>
 <defs>
  <radialGradient id="radialGradient21908" cx="7.5" cy="10" r="7.5" gradientTransform="matrix(1.5515 2.01 -1.0555 .81471 6.4187 -13.222)" gradientUnits="userSpaceOnUse">
   <stop style="stop-color:#888888;stop-opacity:.50196" offset="0"/>
   <stop style="stop-color:#000000;stop-opacity:.50196" offset="1"/>
  </radialGradient>
 </defs>
 <rect width="15" height="20" style="fill:url(#radialGradient21908);opacity:.9;paint-order:stroke fill markers;stop-color:#000000"/>
 <path d="m0 20h15l-2.2674-2.0538-10.708-0.076127z" style="fill-opacity:.18824;fill:#ffffff;opacity:.9;paint-order:stroke fill markers;stop-color:#000000"/>
 <rect x="2.5" y="2.5" width="10" height="15" rx=".1" ry=".1" style="fill-opacity:.62745;fill:#ffffff;opacity:.9;paint-order:stroke fill markers;stop-color:#000000;stroke-linecap:square;stroke-miterlimit:0;stroke-opacity:.25098;stroke:#000000"/>
 <path d="m0 0h15l-2.1585 2.0353-10.599 0.075438z" style="fill-opacity:.18824;fill:#ffffff;opacity:.9;paint-order:stroke fill markers;stop-color:#000000"/>
 <path d="m8.0769 7.1068c-0.12121 0.28015-0.05211 0.65168-0.12596 0.91389h-4.5349c-0.1394 0.055109-0.047927 0.25625-0.074255 0.37716 0.00393 0.65465-0.00787 1.3109 0.0059 1.9646 0.10025 0.08992 0.26502 0.02429 0.39298 0.04436 0.28319 0.02689 0.47414-0.26036 0.7231-0.3586 0.75982-0.44613 1.516-0.91099 2.3305-1.2517 0.32445-0.028572 0.16386 0.55997 0.2317 0.80064-0.01851 0.17171 0.23437 0.059197 0.34913 0.091359h3.6019c0.19076-0.17942 0.66338-0.30982 0.64288-0.57249-0.63144-0.5092-1.3537-0.8928-2.0525-1.3007-0.479-0.25321-0.94469-0.55235-1.4645-0.7123zm2.9002 2.5817c-0.88381 0.54818-1.7766 1.0937-2.7286 1.5161-0.40141 0.13-0.17135-0.6048-0.29608-0.79787h-4.0594c-0.20524 0.15942-0.83168 0.4232-0.32727 0.64648 0.95866 0.65497 1.97 1.2354 3.013 1.7449 0.23169 0.17609 0.46492 0.12221 0.41396-0.20367 0.060638-0.20207-0.090368-0.61202 0.23893-0.51985h4.3537c0.13738-0.05635 0.04659-0.25639 0.07283-0.37716-0.0038-0.65467 0.0077-1.3108-0.0057-1.9646-0.09923-0.090156-0.26432-0.02413-0.39177-0.044359h-0.28368z" style="fill-opacity:.50196;fill:#000000;opacity:.9;paint-order:stroke fill markers;stop-color:#000000"/>
</svg>
