<?xml version="1.0" encoding="UTF-8"?>
<svg width="88" height="416" version="1.1" viewBox="0 0 23.283 110.07" xmlns="http://www.w3.org/2000/svg" xmlns:cc="http://creativecommons.org/ns#" xmlns:dc="http://purl.org/dc/elements/1.1/" xmlns:rdf="http://www.w3.org/1999/02/22-rdf-syntax-ns#" xmlns:xlink="http://www.w3.org/1999/xlink">
 <defs>
  <filter id="filter11964" style="color-interpolation-filters:sRGB">
   <feColorMatrix result="color2" values="1 0 0 0 0 0 1 0 0 0 0 0 1 0 0 -0.21 -0.72 -0.07 2 0 "/>
  </filter>
  <linearGradient id="linearGradient1060" x1="5.7648" x2="31.056" y1="-12.972" y2="90.242" gradientUnits="userSpaceOnUse">
   <stop style="stop-color:#ffffff;stop-opacity:.25098" offset="0"/>
   <stop style="stop-color:#000000;stop-opacity:.25098" offset="1"/>
  </linearGradient>
 </defs>
 <metadata>
  <rdf:RDF>
   <cc:Work rdf:about="">
    <dc:format>image/svg+xml</dc:format>
    <dc:type rdf:resource="http://purl.org/dc/dcmitype/StillImage"/>
    <dc:title/>
   </cc:Work>
  </rdf:RDF>
 </metadata>
 <g>
  <path d="m1.8175 84.271h20.028c1.3696-0.05789 1.3755 0.04726 1.3755 0.04726l0.09413-82.781c0.0017-1.4606-0.51492-1.5246-1.403-1.5246h-20.562c-0.88807 0-1.3357 0.028354-1.3363 1.5604l-0.033342 82.555c0 0.26632 0.94832 0.14315 1.8364 0.14315z" style="fill:url(#linearGradient1060);mix-blend-mode:darken;paint-order:markers stroke fill;stop-color:#000000;stroke-linecap:square;stroke-linejoin:round;stroke-opacity:.25098;stroke-width:.079163;stroke:#ffffff"/>
  <g transform="matrix(.026559 0 0 .026559 5.8058 96.441)" style="fill-opacity:.75294;fill:#000000;stroke-opacity:.25098;stroke-width:1.9924;stroke:#000000" data-name="Calque 2">
   <g style="fill-opacity:.75294;fill:#000000;filter:url(#filter11964)">
    <path d="m378.14 61.308c-87.634-86.637-228.78-86.23-315.92 0.90924-87.134 87.14-87.541 228.3-0.90919 315.93 87.634 86.637 228.78 86.23 315.92-0.90924 87.134-87.14 87.541-228.3 0.90919-315.93zm-327.96 158.42c-5e-3 -8.8255 0.67676-17.638 2.0392-26.358h184.44c15.032 8e-3 27.213 12.197 27.213 27.23s-12.181 27.221-27.213 27.23h-70.249c-19.097 3e-3 -35.942 12.505-41.477 30.783l-19.943 65.787c-34.934-32.039-54.819-77.269-54.813-124.67zm169.55 169.54c-12.918 6e-3 -25.794-1.4648-38.377-4.3845l22.166-73.251h33.167c50.359-0.0562 91.129-40.947 91.038-91.309-0.14272-50.33-41.599-90.748-91.925-90.748h-159.55c31.001-49.373 85.189-79.359 143.49-79.4 93.485 0 169.53 76.025 169.53 169.56s-76.04 169.54-169.53 169.54z" style="color-rendering:auto;color:#000000;dominant-baseline:auto;fill-opacity:.75294;fill:#000000;font-feature-settings:normal;font-variant-alternates:normal;font-variant-caps:normal;font-variant-east-asian:normal;font-variant-ligatures:normal;font-variant-numeric:normal;font-variant-position:normal;font-variation-settings:normal;image-rendering:auto;inline-size:0;isolation:auto;mix-blend-mode:normal;shape-margin:0;shape-padding:0;shape-rendering:auto;solid-color:#000000;stop-color:#000000;stroke:none;text-decoration-color:#000000;text-decoration-line:none;text-decoration-style:solid;text-indent:0;text-orientation:mixed;text-transform:none;white-space:normal"/>
    <path d="m219.99-4.3945c-57.389 0.16518-114.71 22.147-158.47 65.906-87.514 87.519-87.922 229.32-0.91406 317.34l0.0078 8e-3c88.016 87.014 229.81 86.607 317.32-0.91229s87.922-229.32 0.91406-317.34l-4e-3 -0.0039-6e-3 -0.0039c-44.008-43.507-101.46-65.159-158.85-64.994zm0.00586 1.9805c56.877-0.16371 113.81 21.3 157.44 64.43 86.246 87.259 85.84 227.77-0.91211 314.52-86.752 86.757-227.25 87.163-314.5 0.91211-86.254-87.258-85.851-227.77 0.9043-314.53 43.377-43.38 100.19-65.172 157.07-65.336zm-0.27148 51.592c-58.638 0.040645-113.15 30.203-144.33 79.865l-0.95703 1.5254h161.36c49.793 0 90.789 39.972 90.93 89.756 0.0881 49.823-40.223 90.255-90.043 90.311h-33.906l-22.688 74.977 1.0371 0.24023c12.657 2.9368 25.608 4.4164 38.602 4.4102 94.025 0 170.52-76.459 170.52-170.53 0-94.072-76.496-170.55-170.52-170.55zm2e-3 1.9922c92.945 0 168.53 75.569 168.53 168.56 0 92.992-75.584 168.54-168.53 168.54-12.486 6e-3 -24.929-1.4039-37.107-4.1484l21.635-71.494h32.43c50.898-0.0568 92.124-41.406 92.033-92.307v-2e-3c-0.14426-50.875-42.062-91.742-92.922-91.742h-157.68c30.975-48.155 84.274-77.366 141.61-77.406zm-168.36 141.21-0.13281 0.84375c-1.3704 8.7708-2.0558 17.635-2.0508 26.512-0.0068 47.682 19.998 93.179 55.137 125.41l1.166 1.0703 20.402-67.305c5.4086-17.862 21.861-30.072 40.523-30.074h70.25c15.57-8e-3 28.209-12.656 28.209-28.227s-12.639-28.218-28.209-28.227zm1.7383 1.9941h183.55c14.494 8e-3 26.219 11.738 26.219 26.232s-11.725 26.227-26.219 26.234h-70.248c-19.532 3e-3 -36.769 12.796-42.43 31.49l-19.457 64.182c-33.984-31.781-53.356-76.199-53.35-122.78v-2e-3c-0.0048-8.4905 0.6613-16.965 1.9297-25.359z" style="color-rendering:auto;color:#000000;dominant-baseline:auto;fill-opacity:.75294;fill-rule:evenodd;fill:#000000;font-feature-settings:normal;font-variant-alternates:normal;font-variant-caps:normal;font-variant-east-asian:normal;font-variant-ligatures:normal;font-variant-numeric:normal;font-variant-position:normal;font-variation-settings:normal;image-rendering:auto;inline-size:0;isolation:auto;mix-blend-mode:normal;shape-margin:0;shape-padding:0;shape-rendering:auto;solid-color:#000000;stop-color:#000000;stroke-opacity:.25098;stroke-width:1.9956;stroke:#000000;text-decoration-color:#000000;text-decoration-line:none;text-decoration-style:solid;text-indent:0;text-orientation:mixed;text-transform:none;white-space:normal"/>
   </g>
  </g>
  <g transform="translate(0 3.6081)" style="fill-opacity:.75294;fill:#000000;stroke-opacity:.25098;stroke-width:.099483;stroke:#000000" aria-label="PLOGUE">
   <path d="m4.2875 85.078q-0.027873 0-0.039818 0.01194-0.011946 0.01195-0.011946 0.03982v0.6809q0 0.05176-0.023891 0.07565-0.023891 0.01991-0.075655 0.01991h-0.36235q-0.051764 0-0.075655-0.01991-0.019909-0.02389-0.019909-0.07565v-2.5962q0-0.05176 0.019909-0.07167 0.023891-0.02389 0.075655-0.02389h0.86008q1.1826 0 1.1826 0.96361 0 0.48579-0.31058 0.74062-0.31058 0.25484-0.90388 0.25484zm0-1.4414q-0.027873 0-0.039818 0.01195-0.011946 0.01194-0.011946 0.03982v0.82026q0 0.02787 0.011946 0.03982t0.039818 0.01195h0.31855q0.3066 0 0.46986-0.11547t0.16326-0.35438-0.15927-0.34642-0.47384-0.10751z" style="fill-opacity:.75294;fill:#000000;stroke-opacity:.25098;stroke-width:.099483;stroke:#000000"/>
   <path d="m6.8333 85.337q0 0.02787 0.011946 0.03982 0.011946 0.01194 0.039818 0.01194h1.095q0.051764 0 0.071673 0.02389 0.023891 0.01991 0.023891 0.07167v0.32651q0 0.05176-0.023891 0.07565-0.019909 0.01991-0.071673 0.01991h-1.6087q-0.051764 0-0.075655-0.01991-0.019909-0.02389-0.019909-0.07565v-2.5962q0-0.05176 0.019909-0.07167 0.023891-0.02389 0.075655-0.02389h0.36235q0.051764 0 0.075655 0.02389 0.023891 0.01991 0.023891 0.07167z" style="fill-opacity:.75294;fill:#000000;stroke-opacity:.25098;stroke-width:.099483;stroke:#000000"/>
   <path d="m8.3564 84.525q0-0.41411 0.19113-0.74461 0.19113-0.33448 0.5256-0.52162 0.33448-0.18715 0.75257-0.18715t0.75257 0.18715q0.33448 0.18316 0.52162 0.51366 0.19113 0.32651 0.19113 0.73664 0 0.41411-0.19113 0.74461-0.19113 0.33049-0.52959 0.51764-0.33448 0.18316-0.75655 0.18316-0.41411 0-0.74859-0.18316-0.33049-0.18316-0.52162-0.50968-0.18715-0.32651-0.18715-0.73664zm0.57737-8e-3q0 0.26678 0.11547 0.47782 0.11547 0.20706 0.31457 0.32651 0.20307 0.11547 0.45393 0.11547 0.24687 0 0.44995-0.11547 0.20706-0.11946 0.32651-0.33049t0.11946-0.47384q0-0.27077-0.11946-0.4818-0.11547-0.21502-0.32253-0.33049-0.20307-0.11547-0.44995-0.11547-0.25086 0-0.45393 0.11946-0.19909 0.11547-0.31855 0.32651-0.11547 0.21104-0.11547 0.4818z" style="fill-opacity:.75294;fill:#000000;stroke-opacity:.25098;stroke-width:.099483;stroke:#000000"/>
   <path d="m14.215 85.556q0 0.05575-0.01991 0.0876-0.01593 0.02787-0.06371 0.05176-0.50968 0.25882-1.0671 0.25882-0.40217 0-0.73664-0.1752-0.33049-0.17918-0.52162-0.50171t-0.19113-0.74062q0-0.43402 0.19511-0.76452 0.19511-0.33448 0.53357-0.51764t0.76053-0.18316q0.29068 0 0.55348 0.0876t0.46588 0.23095q0.05973 0.03584 0.05973 0.07964 0 0.03185-0.02787 0.07167l-0.15927 0.24289q-0.03584 0.05176-0.07565 0.05176-0.02787 0-0.07167-0.02389-0.35837-0.22298-0.74461-0.22298-0.27077 0-0.47782 0.11946-0.20706 0.11946-0.32253 0.33049-0.11149 0.21104-0.11149 0.4818t0.11547 0.4818q0.11946 0.20706 0.32253 0.32253t0.45393 0.11547q0.30262 0 0.51764-0.0876 0.03584-0.01593 0.0438-0.03186 0.01195-0.01593 0.01195-0.05176v-0.62913q0-0.05176 0.01991-0.07167 0.02389-0.02389 0.07565-0.02389h0.36633q0.05176 0 0.07167 0.02389 0.02389 0.01991 0.02389 0.07167z" style="fill-opacity:.75294;fill:#000000;stroke-opacity:.25098;stroke-width:.099483;stroke:#000000"/>
   <path d="m17.181 84.712q0 0.40615-0.15927 0.68488-0.15529 0.27873-0.43402 0.41809-0.27475 0.13936-0.6371 0.13936-0.35438 0-0.62117-0.13538t-0.41809-0.41013q-0.14733-0.27475-0.14733-0.68886v-1.5051q0-0.05176 0.01991-0.07167 0.02389-0.02389 0.07566-0.02389h0.36235q0.05176 0 0.07566 0.02389 0.02389 0.01991 0.02389 0.07167v1.4653q0 0.36235 0.16326 0.56144 0.16724 0.19511 0.48579 0.19511 0.31457 0 0.4818-0.19511 0.17122-0.19909 0.17122-0.55746v-1.4693q0-0.05176 0.01991-0.07167 0.02389-0.02389 0.07566-0.02389h0.36235q0.05176 0 0.07565 0.02389 0.02389 0.01991 0.02389 0.07167z" style="fill-opacity:.75294;fill:#000000;stroke-opacity:.25098;stroke-width:.099483;stroke:#000000"/>
   <path d="m19.505 85.389q0.05176 0 0.07566 0.02389 0.02389 0.01991 0.02389 0.07167v0.32651q0 0.05176-0.02389 0.07565-0.02389 0.01991-0.07566 0.01991h-1.6007q-0.05176 0-0.07566-0.01991-0.01991-0.02389-0.01991-0.07565v-2.5962q0-0.05176 0.01991-0.07167 0.02389-0.02389 0.07566-0.02389h1.5967q0.05176 0 0.07566 0.02389 0.02389 0.01991 0.02389 0.07167v0.32651q0 0.05176-0.02389 0.07565-0.02389 0.01991-0.07566 0.01991h-1.0831q-0.02787 0-0.03982 0.01195-0.01195 0.01194-0.01195 0.03982v0.5057q0 0.02787 0.01195 0.03982t0.03982 0.01195h0.94768q0.05176 0 0.07566 0.02389 0.02389 0.02389 0.02389 0.07566v0.32253q0 0.05176-0.02389 0.07566-0.02389 0.01991-0.07566 0.01991h-0.94768q-0.02787 0-0.03982 0.01194-0.01195 8e-3 -0.01195 0.03982v0.52162q0 0.02787 0.01195 0.03982 0.01195 0.01194 0.03982 0.01194z" style="fill-opacity:.75294;fill:#000000;stroke-opacity:.25098;stroke-width:.099483;stroke:#000000"/>
  </g>
  <path d="m0.083298 84.281h23.117v0.16949h-23.117z" style="fill-opacity:.81569;fill:#000000;paint-order:markers stroke fill;stop-color:#000000;stroke-linecap:square;stroke-linejoin:round;stroke-miterlimit:0;stroke-opacity:.062745;stroke-width:.19722;stroke:#000000"/>
  <g transform="matrix(1.1757 0 0 1.1757 -2.0458 -11.628)" style="fill-opacity:.75294;fill:#000000;stroke-opacity:.25098;stroke-width:.072231;stroke:#000000" aria-label="SNES ECHO">
   <path d="m6.2083 88.018h-0.88555v-0.23754h0.88555q0.087415 0 0.12162-0.0285 0.034206-0.03041 0.034206-0.11592 0-0.08742-0.034206-0.11592-0.032306-0.03041-0.12162-0.03041h-0.40477q-0.27555 0-0.39337-0.08931-0.11782-0.09122-0.11782-0.28695t0.11782-0.28695q0.11972-0.09122 0.39337-0.09122h0.86655v0.23944h-0.86655q-0.087415 0-0.12162 0.0285-0.034206 0.0285-0.034206 0.11212 0 0.08552 0.034206 0.11592 0.034206 0.0285 0.12162 0.0285h0.40477q0.27555 0 0.39337 0.09122t0.11782 0.28885-0.11782 0.28885q-0.11782 0.08932-0.39337 0.08932z" style="fill-opacity:.75294;fill:#000000;stroke-opacity:.25098;stroke-width:.072231;stroke:#000000"/>
   <path d="m8.2512 88.018h-0.34966v-0.87035q0-0.06081-0.049409-0.10262-0.047508-0.04181-0.12162-0.04181h-0.54349v1.0148h-0.35346v-1.2827h0.92736q0.23374 0 0.36106 0.10072 0.12922 0.09882 0.12922 0.28505z" style="fill-opacity:.75294;fill:#000000;stroke-opacity:.25098;stroke-width:.072231;stroke:#000000"/>
   <path d="m9.6829 88.018h-0.76203q-0.5625 0-0.5625-0.64041 0-0.64231 0.5625-0.64231h0.76203v0.26225h-0.71072q-0.12922 0-0.18813 0.06271t-0.072213 0.18813h0.96347v0.24704h-0.96537q0.013302 0.13302 0.072213 0.19763 0.05891 0.06271 0.19003 0.06271h0.71072z" style="fill-opacity:.75294;fill:#000000;stroke-opacity:.25098;stroke-width:.072231;stroke:#000000"/>
   <path d="m10.703 88.018h-0.88555v-0.23754h0.88555q0.08742 0 0.12162-0.0285 0.03421-0.03041 0.03421-0.11592 0-0.08742-0.03421-0.11592-0.03231-0.03041-0.12162-0.03041h-0.40477q-0.27555 0-0.39337-0.08931-0.11782-0.09122-0.11782-0.28695t0.11782-0.28695q0.11972-0.09122 0.39337-0.09122h0.86655v0.23944h-0.86655q-0.08742 0-0.12162 0.0285-0.03421 0.0285-0.03421 0.11212 0 0.08552 0.03421 0.11592 0.03421 0.0285 0.12162 0.0285h0.40477q0.27555 0 0.39337 0.09122t0.11782 0.28885-0.11782 0.28885q-0.11782 0.08932-0.39337 0.08932z" style="fill-opacity:.75294;fill:#000000;stroke-opacity:.25098;stroke-width:.072231;stroke:#000000"/>
   <path d="m13.235 88.018h-0.76203q-0.5625 0-0.5625-0.64041 0-0.64231 0.5625-0.64231h0.76203v0.26225h-0.71072q-0.12922 0-0.18813 0.06271t-0.07221 0.18813h0.96347v0.24704h-0.96537q0.0133 0.13302 0.07221 0.19763 0.05891 0.06271 0.19003 0.06271h0.71072z" style="fill-opacity:.75294;fill:#000000;stroke-opacity:.25098;stroke-width:.072231;stroke:#000000"/>
   <path d="m14.675 88.018h-0.76203q-0.5625 0-0.5625-0.64041 0-0.64231 0.5625-0.64231h0.76203v0.26795h-0.70692q-0.15583 0-0.20904 0.08931-0.05321 0.08742-0.05321 0.28505 0 0.19573 0.05321 0.28505t0.20904 0.08932h0.70692z" style="fill-opacity:.75294;fill:#000000;stroke-opacity:.25098;stroke-width:.072231;stroke:#000000"/>
   <path d="m16.241 88.018h-0.35726v-0.53019h-0.73353v0.53019h-0.35536v-1.2827h0.35536v0.49028h0.73353v-0.49028h0.35726z" style="fill-opacity:.75294;fill:#000000;stroke-opacity:.25098;stroke-width:.072231;stroke:#000000"/>
   <path d="m17.311 88.018h-0.26985q-0.33066 0-0.50549-0.16533t-0.17483-0.47508q0-0.31166 0.17483-0.47698 0.17483-0.16533 0.50549-0.16533h0.26985q0.33066 0 0.50549 0.16533t0.17483 0.47698q0 0.30975-0.17483 0.47508t-0.50549 0.16533zm-0.22804-0.25274h0.16533q0.11592 0 0.19573-0.03041 0.07981-0.03231 0.11972-0.08932t0.05511-0.11972q0.0152-0.06461 0.0152-0.14822 0-0.08362-0.0152-0.14633-0.0152-0.06461-0.05511-0.12162t-0.11972-0.08741q-0.07981-0.03231-0.19573-0.03231h-0.16533q-0.10832 0-0.18433 0.03231-0.07411 0.0304-0.11212 0.08741t-0.05321 0.12162q-0.0152 0.06271-0.0152 0.14633 0 0.08361 0.0152 0.14822 0.0152 0.06271 0.05321 0.11972t0.11212 0.08932q0.07601 0.03041 0.18433 0.03041z" style="fill-opacity:.75294;fill:#000000;stroke-opacity:.25098;stroke-width:.072231;stroke:#000000"/>
  </g>
  <path d="m11.084 83.083a1 1 0 0 1-0.27388-1.3864 1 1 0 0 1 1.3859-0.27597 1 1 0 0 1 0.27806 1.3855 1 1 0 0 1-1.3851 0.28015" style="fill-opacity:.75294;fill:#000000;paint-order:markers stroke fill;stop-color:#000000;stroke-linecap:square;stroke-linejoin:round;stroke-opacity:.25098;stroke-width:.072231;stroke:#000000"/>
  <path d="m11.987 82.68-0.35658-0.31839-0.41594 0.23562 0.31839-0.35658-0.23562-0.41593 0.35658 0.31839 0.41593-0.23562-0.31839 0.35658z" style="fill-opacity:.75294;fill:#000000;paint-order:markers stroke fill;stop-color:#000000;stroke-linecap:square;stroke-linejoin:round;stroke-opacity:.25098;stroke-width:.1193;stroke:#ffffff"/>
  <path d="m11.084 2.8149a1 1 0 0 1-0.27388-1.3864 1 1 0 0 1 1.3859-0.27597 1 1 0 0 1 0.27806 1.3855 1 1 0 0 1-1.3851 0.28015" style="fill-opacity:.75294;fill:#000000;paint-order:markers stroke fill;stop-color:#000000;stroke-linecap:square;stroke-linejoin:round;stroke-opacity:.25098;stroke-width:.072231;stroke:#000000"/>
  <path d="m11.834 2.4992-0.23785-0.41467-0.46904 0.092286 0.41467-0.23785-0.09229-0.46904 0.23785 0.41467 0.46904-0.092286-0.41466 0.23785z" style="fill-opacity:.75294;fill:#000000;paint-order:markers stroke fill;stop-color:#000000;stroke-linecap:square;stroke-linejoin:round;stroke-opacity:.25098;stroke-width:.1193;stroke:#ffffff"/>
  <g transform="matrix(2.3453 0 0 1.9787 -15.456 -84.255)" style="fill-opacity:.75294;fill:#000000;stroke-opacity:.25098;stroke-width:.05;stroke:#000000" aria-label="BIT PERFECTION">
   <path d="m8.0127 90.146v0.2426h0.1437q0.072293 0 0.10689-0.02971 0.035038-0.03016 0.035038-0.09181 0-0.06209-0.035038-0.09136-0.034594-0.02972-0.10689-0.02972zm0-0.27232v0.19958h0.13261q0.06564 0 0.097574-0.02439 0.032377-0.02484 0.032377-0.0754 0-0.05012-0.032377-0.07495-0.031933-0.02484-0.097574-0.02484zm-0.08959-0.07362h0.22885q0.10245 0 0.15789 0.04258t0.05544 0.12108q0 0.06076-0.028385 0.09669-0.028385 0.03592-0.083381 0.04479 0.066084 0.01419 0.10245 0.05943 0.036812 0.04479 0.036812 0.11221 0 0.0887-0.060318 0.13705-0.060318 0.04834-0.17164 0.04834h-0.23773z" style="fill-opacity:.75294;fill:#000000;stroke-opacity:.25098;stroke-width:.05;stroke:#000000"/>
   <path d="m8.5458 89.8h0.08959v0.66217h-0.08959z" style="fill-opacity:.75294;fill:#000000;stroke-opacity:.25098;stroke-width:.05;stroke:#000000"/>
   <path d="m8.7219 89.8h0.56016v0.0754h-0.23506v0.58677h-0.090034v-0.58678h-0.23506z" style="fill-opacity:.75294;fill:#000000;stroke-opacity:.25098;stroke-width:.05;stroke:#000000"/>
   <path d="m9.7477 89.874v0.24881h0.11265q0.062536 0 0.096687-0.03238t0.034151-0.09225q0-0.05943-0.034151-0.09181t-0.096687-0.03238zm-0.08959-0.07362h0.20224q0.11132 0 0.16809 0.05056 0.05721 0.05012 0.05721 0.14725 0 0.09802-0.05721 0.14813-0.05677 0.05012-0.16809 0.05012h-0.11265v0.26611h-0.08959z" style="fill-opacity:.75294;fill:#000000;stroke-opacity:.25098;stroke-width:.05;stroke:#000000"/>
   <path d="m10.206 89.8h0.41868v0.0754h-0.32909v0.19604h0.31534v0.0754h-0.31534v0.23994h0.33707v0.0754h-0.42666z" style="fill-opacity:.75294;fill:#000000;stroke-opacity:.25098;stroke-width:.05;stroke:#000000"/>
   <path d="m11.095 90.152q0.02883 0.0098 0.05588 0.04169 0.0275 0.03193 0.055 0.08782l0.09092 0.18096h-0.09624l-0.08471-0.16987q-0.03282-0.06653-0.06387-0.08826-0.0306-0.02173-0.08382-0.02173h-0.09757v0.27986h-0.08959v-0.66217h0.20224q0.11354 0 0.16942 0.04746t0.05588 0.14326q0 0.06254-0.02927 0.10378-0.02883 0.04125-0.08427 0.05721zm-0.22442-0.27808v0.23506h0.11265q0.06475 0 0.09757-0.02972 0.03326-0.03016 0.03326-0.08826t-0.03326-0.08737q-0.03282-0.02972-0.09757-0.02972z" style="fill-opacity:.75294;fill:#000000;stroke-opacity:.25098;stroke-width:.05;stroke:#000000"/>
   <path d="m11.413 89.8h0.38054v0.0754h-0.29095v0.19515h0.26256v0.0754h-0.26256v0.31623h-0.08959z" style="fill-opacity:.75294;fill:#000000;stroke-opacity:.25098;stroke-width:.05;stroke:#000000"/>
   <path d="m11.936 89.8h0.41868v0.0754h-0.32909v0.19604h0.31534v0.0754h-0.31534v0.23994h0.33707v0.0754h-0.42666z" style="fill-opacity:.75294;fill:#000000;stroke-opacity:.25098;stroke-width:.05;stroke:#000000"/>
   <path d="m13.007 89.851v0.09447q-0.04524-0.04213-0.09669-0.06298-0.051-0.02085-0.10866-0.02085-0.11354 0-0.17386 0.06963-0.06032 0.06919-0.06032 0.20047 0 0.13084 0.06032 0.20047 0.06032 0.06919 0.17386 0.06919 0.05766 0 0.10866-0.02084 0.05145-0.02085 0.09669-0.06298v0.09358q-0.04701 0.03193-0.09979 0.0479-0.05234 0.01597-0.11088 0.01597-0.15035 0-0.23684-0.09181-0.08649-0.09225-0.08649-0.25147 0-0.15967 0.08649-0.25147 0.08649-0.09225 0.23684-0.09225 0.05943 0 0.11177 0.01597 0.05278 0.01552 0.0989 0.04701z" style="fill-opacity:.75294;fill:#000000;stroke-opacity:.25098;stroke-width:.05;stroke:#000000"/>
   <path d="m13.054 89.8h0.56016v0.0754h-0.23506v0.58677h-0.09003v-0.58678h-0.23507z" style="fill-opacity:.75294;fill:#000000;stroke-opacity:.25098;stroke-width:.05;stroke:#000000"/>
   <path d="m13.701 89.8h0.08959v0.66217h-0.08959z" style="fill-opacity:.75294;fill:#000000;stroke-opacity:.25098;stroke-width:.05;stroke:#000000"/>
   <path d="m14.238 89.861q-0.09757 0-0.15523 0.07274-0.05721 0.07274-0.05721 0.19825 0 0.12507 0.05721 0.19781 0.05766 0.07274 0.15523 0.07274t0.15434-0.07274q0.05721-0.07274 0.05721-0.19781 0-0.12552-0.05721-0.19825-0.05677-0.07274-0.15434-0.07274zm0-0.07274q0.13926 0 0.22265 0.09358 0.08338 0.09314 0.08338 0.25014 0 0.15656-0.08338 0.25014-0.08338 0.09314-0.22265 0.09314-0.13971 0-0.22353-0.09314-0.08338-0.09314-0.08338-0.25014t0.08338-0.25014q0.08382-0.09358 0.22353-0.09358z" style="fill-opacity:.75294;fill:#000000;stroke-opacity:.25098;stroke-width:.05;stroke:#000000"/>
   <path d="m14.684 89.8h0.12064l0.29361 0.55395v-0.55395h0.08693v0.66217h-0.12064l-0.29361-0.55395v0.55395h-0.08693z" style="fill-opacity:.75294;fill:#000000;stroke-opacity:.25098;stroke-width:.05;stroke:#000000"/>
  </g>
  <rect x="3.167" y="85.724" width="16.96" height="7.3705" rx=".33" ry=".33" style="fill:none;paint-order:markers stroke fill;stop-color:#000000;stroke-linecap:square;stroke-linejoin:round;stroke-opacity:.75294;stroke-width:.25;stroke:#000000"/>
 </g>
</svg>
