<?xml version="1.0" encoding="UTF-8" standalone="no"?>
<svg
   xmlns:dc="http://purl.org/dc/elements/1.1/"
   xmlns:cc="http://creativecommons.org/ns#"
   xmlns:rdf="http://www.w3.org/1999/02/22-rdf-syntax-ns#"
   xmlns:svg="http://www.w3.org/2000/svg"
   xmlns="http://www.w3.org/2000/svg"
   xmlns:sodipodi="http://sodipodi.sourceforge.net/DTD/sodipodi-0.dtd"
   xmlns:inkscape="http://www.inkscape.org/namespaces/inkscape"
   inkscape:version="1.0 (4035a4fb49, 2020-05-01)"
   sodipodi:docname="logo_SFC.svg"
   id="svg2387"
   viewBox="0 0 26.388393 7.9101958"
   version="1.1"
   height="7.9101958mm"
   width="26.388393mm">
  <metadata
     id="metadata2393">
    <rdf:RDF>
      <cc:Work
         rdf:about="">
        <dc:format>image/svg+xml</dc:format>
        <dc:type
           rdf:resource="http://purl.org/dc/dcmitype/StillImage" />
        <dc:title></dc:title>
      </cc:Work>
    </rdf:RDF>
  </metadata>
  <defs
     id="defs2391" />
  <sodipodi:namedview
     inkscape:current-layer="svg2387"
     inkscape:window-maximized="1"
     inkscape:window-y="308"
     inkscape:window-x="-8"
     inkscape:cy="21.896435"
     inkscape:cx="82.165511"
     inkscape:zoom="7.4079554"
     fit-margin-bottom="0"
     fit-margin-right="0"
     fit-margin-left="0"
     fit-margin-top="0"
     showgrid="false"
     id="namedview2389"
     inkscape:window-height="988"
     inkscape:window-width="1680"
     inkscape:pageshadow="2"
     inkscape:pageopacity="0"
     guidetolerance="10"
     gridtolerance="10"
     objecttolerance="10"
     borderopacity="1"
     bordercolor="#666666"
     pagecolor="#ffffff" />
  <g
     style="opacity:0.99;fill:#ffffff;fill-opacity:0.81568629"
     id="g2385"
     aria-label="SFC"
     stroke-width="0.34185px"
     fill-opacity="0.98039"
     fill="#454547"
     transform="matrix(0.857,0,0,0.857,-1.2447154,-0.3999619)">
    <path
       style="fill:#ffffff;fill-opacity:0.81568629"
       id="path2379"
       d="M 8.0433,9.6968 H 1.6712 V 7.9876 h 6.3721 q 0.629,0 0.87514,-0.20511 0.24613,-0.21878 0.24613,-0.83411 0,-0.629 -0.24613,-0.83411 Q 8.68598,5.89549 8.0433,5.89549 H 5.1307 q -1.9827,0 -2.8305,-0.64268 -0.84779,-0.65635 -0.84779,-2.0648 0,-1.4084 0.84779,-2.0648 0.86146,-0.65635 2.8305,-0.65635 h 6.2353 v 1.7229 H 5.1307 q -0.629,0 -0.87514,0.20511 -0.24614,0.20511 -0.24613,0.80677 0,0.61533 0.24613,0.83411 0.24613,0.20511 0.87514,0.20511 h 2.9126 q 1.9827,0 2.8305,0.65635 0.8478,0.65635 0.84779,2.0784 -1e-5,1.42205 -0.84779,2.0784 -0.84779,0.64268 -2.8305,0.64268 z" />
    <path
       style="fill:#ffffff;fill-opacity:0.81568629"
       id="path2381"
       d="M 22.073,6.1962 H 15.0856 V 9.6967 H 12.5422 V 4.4869 q 0,-4.0202 4.0475,-4.0202 h 5.4696 v 1.928 h -5.0867 q -1.0666,0 -1.4631,0.46492 -0.3965,0.46492 -0.42389,1.4084 h 6.9874 z" />
    <path
       style="fill:#ffffff;fill-opacity:0.81568629"
       id="path2383"
       d="m 32.244,9.6968 h -5.4833 q -4.0475,0 -4.0475,-4.6081 0,-4.6218 4.0475,-4.6218 h 5.4833 v 1.928 h -5.0867 q -1.1213,0 -1.5041,0.64268 -0.38287,0.629 -0.38287,2.0511 0,1.4084 0.38287,2.0511 0.38287,0.6427 1.5041,0.64268 h 5.0867 z" />
  </g>
</svg>
