<?xml version="1.0" encoding="UTF-8" standalone="no"?>
<svg
   xmlns:dc="http://purl.org/dc/elements/1.1/"
   xmlns:cc="http://creativecommons.org/ns#"
   xmlns:rdf="http://www.w3.org/1999/02/22-rdf-syntax-ns#"
   xmlns:svg="http://www.w3.org/2000/svg"
   xmlns="http://www.w3.org/2000/svg"
   xmlns:sodipodi="http://sodipodi.sourceforge.net/DTD/sodipodi-0.dtd"
   xmlns:inkscape="http://www.inkscape.org/namespaces/inkscape"
   inkscape:version="1.0 (4035a4fb49, 2020-05-01)"
   sodipodi:docname="madeby.svg"
   id="svg6100"
   viewBox="0 0 16.840599 5.1163126"
   version="1.1"
   height="5.1163125mm"
   width="16.840599mm">
  <defs
     id="defs6104" />
  <sodipodi:namedview
     fit-margin-bottom="0"
     fit-margin-right="0"
     fit-margin-left="0"
     fit-margin-top="0"
     inkscape:current-layer="g6098"
     inkscape:window-maximized="1"
     inkscape:window-y="1042"
     inkscape:window-x="-8"
     inkscape:cy="4.9864931"
     inkscape:cx="45.560791"
     inkscape:zoom="13.11987"
     showgrid="false"
     id="namedview6102"
     inkscape:window-height="1018"
     inkscape:window-width="2560"
     inkscape:pageshadow="2"
     inkscape:pageopacity="0"
     guidetolerance="10"
     gridtolerance="10"
     objecttolerance="10"
     borderopacity="1"
     bordercolor="#666666"
     pagecolor="#ffffff" />
  <metadata
     id="metadata6072">
    <rdf:RDF>
      <cc:Work
         rdf:about="">
        <dc:format>image/svg+xml</dc:format>
        <dc:type
           rdf:resource="http://purl.org/dc/dcmitype/StillImage" />
        <dc:title></dc:title>
      </cc:Work>
    </rdf:RDF>
  </metadata>
  <g
     id="g6098"
     transform="translate(-36.475547,-62.592158)">
    <g
       id="g6082"
       aria-label="TSSF"
       style="fill:#ffffff;fill-opacity:0.81569;stroke:#000000;stroke-width:0.53869;stroke-opacity:0.12549"
       transform="matrix(0.49478,0,-0.15558,0.48757,32.792,33.299)">
      <path
         id="path6074"
         style="fill:#ffffff;fill-opacity:0.81569;stroke:#000000;stroke-width:0.53869;stroke-opacity:0.12549"
         d="m 33.209,70.304 h -1.9791 v -5.6832 h -3.1115 v -1.4605 h 8.2021 v 1.4605 H 33.209 Z" />
      <path
         id="path6076"
         style="fill:#ffffff;fill-opacity:0.81569;stroke:#000000;stroke-width:0.53869;stroke-opacity:0.12549"
         d="m 41.768,70.304 h -4.9318 v -1.3229 h 4.9318 q 0.48683,0 0.67733,-0.15875 0.1905,-0.16933 0.1905,-0.64558 0,-0.48683 -0.1905,-0.64558 -0.17992,-0.16933 -0.67733,-0.16933 h -2.2542 q -1.5346,0 -2.1907,-0.49742 -0.65616,-0.508 -0.65616,-1.5981 0,-1.0901 0.65616,-1.5981 0.66675,-0.508 2.1907,-0.508 h 4.826 v 1.3335 h -4.826 q -0.48683,0 -0.67733,0.15875 -0.1905,0.15875 -0.1905,0.62441 0,0.47625 0.1905,0.64558 0.1905,0.15875 0.67733,0.15875 h 2.2542 q 1.5346,0 2.1907,0.508 0.65616,0.508 0.65616,1.6087 0,1.1007 -0.65616,1.6087 -0.65616,0.49742 -2.1907,0.49742 z" />
      <path
         id="path6078"
         style="fill:#ffffff;fill-opacity:0.81569;stroke:#000000;stroke-width:0.53869;stroke-opacity:0.12549"
         d="M 50.14,70.304 H 45.2082 V 68.9811 H 50.14 q 0.48683,0 0.67733,-0.15875 0.1905,-0.16933 0.1905,-0.64558 0,-0.48683 -0.1905,-0.64558 Q 50.63741,67.36186 50.14,67.36186 h -2.2542 q -1.5346,0 -2.1907,-0.49742 -0.65616,-0.508 -0.65616,-1.5981 0,-1.0901 0.65616,-1.5981 0.66675,-0.508 2.1907,-0.508 h 4.826 v 1.3335 h -4.826 q -0.48683,0 -0.67733,0.15875 -0.1905,0.15875 -0.1905,0.62441 0,0.47625 0.1905,0.64558 0.1905,0.15875 0.67733,0.15875 H 50.14 q 1.5346,0 2.1907,0.508 0.65616,0.508 0.65616,1.6087 0,1.1007 -0.65616,1.6087 -0.65616,0.49742 -2.1907,0.49742 z" />
      <path
         id="path6080"
         style="fill:#ffffff;fill-opacity:0.81569;stroke:#000000;stroke-width:0.53869;stroke-opacity:0.12549"
         d="m 60.998,67.594 h -5.4081 v 2.7093 h -1.9685 v -4.0322 q 0,-3.1115 3.1327,-3.1115 h 4.2333 v 1.4922 h -3.937 q -0.8255,0 -1.1324,0.35983 -0.3069,0.35983 -0.32808,1.0901 h 5.4081 z" />
    </g>
    <g
       style="font-size:10.5833px;line-height:125%;font-family:Changa;-inkscape-font-specification:Changa;letter-spacing:0px;word-spacing:0px;fill:#ffffff;fill-opacity:0.81569;stroke:#000000;stroke-width:0.264583;stroke-linecap:butt;stroke-linejoin:miter;stroke-miterlimit:4;stroke-dasharray:none;stroke-opacity:0.12549;paint-order:stroke fill markers"
       id="text6669"
       aria-label="skin by">
      <path
         id="path6671"
         style="font-style:normal;font-variant:normal;font-weight:normal;font-stretch:normal;font-size:1.41111px;font-family:Snasm;-inkscape-font-specification:Snasm;fill:#ffffff;fill-opacity:0.81569;stroke:#000000;stroke-width:0.264583;stroke-miterlimit:4;stroke-dasharray:none;stroke-opacity:0.12549;paint-order:stroke fill markers"
         d="m 37.554666,63.707996 h -0.591255 v -0.174977 h 0.533399 q 0.06914,0 0.06914,-0.05503 0,-0.02822 -0.01693,-0.03951 -0.01552,-0.01129 -0.05221,-0.01129 h -0.292099 q -0.261056,0 -0.261056,-0.222955 0,-0.108655 0.0635,-0.159455 0.06491,-0.05221 0.197556,-0.05221 h 0.578555 v 0.172155 h -0.524933 q -0.04092,0 -0.05645,0.01129 -0.01552,0.0099 -0.01552,0.04092 0,0.03246 0.01552,0.04374 0.01552,0.0099 0.05645,0.0099 h 0.314677 q 0.129822,0 0.184856,0.05786 0.05503,0.05644 0.05503,0.169333 0,0.110067 -0.05786,0.160867 -0.05644,0.04939 -0.200377,0.04939 z" />
      <path
         id="path6673"
         style="font-style:normal;font-variant:normal;font-weight:normal;font-stretch:normal;font-size:1.41111px;font-family:Snasm;-inkscape-font-specification:Snasm;fill:#ffffff;fill-opacity:0.81569;stroke:#000000;stroke-width:0.264583;stroke-miterlimit:4;stroke-dasharray:none;stroke-opacity:0.12549;paint-order:stroke fill markers"
         d="M 38.815471,63.707996 H 38.48386 l -0.294922,-0.303388 h -0.04657 v 0.303388 H 37.88696 v -0.983543 h 0.255411 v 0.54751 h 0.04657 l 0.296333,-0.279399 h 0.3048 l -0.359833,0.33161 z" />
      <path
         id="path6675"
         style="font-style:normal;font-variant:normal;font-weight:normal;font-stretch:normal;font-size:1.41111px;font-family:Snasm;-inkscape-font-specification:Snasm;fill:#ffffff;fill-opacity:0.81569;stroke:#000000;stroke-width:0.264583;stroke-miterlimit:4;stroke-dasharray:none;stroke-opacity:0.12549;paint-order:stroke fill markers"
         d="m 39.129046,63.707996 h -0.255411 v -0.701321 h 0.255411 z m 0,-0.795866 h -0.255411 v -0.187677 h 0.255411 z" />
      <path
         id="path6677"
         style="font-style:normal;font-variant:normal;font-weight:normal;font-stretch:normal;font-size:1.41111px;font-family:Snasm;-inkscape-font-specification:Snasm;fill:#ffffff;fill-opacity:0.81569;stroke:#000000;stroke-width:0.264583;stroke-miterlimit:4;stroke-dasharray:none;stroke-opacity:0.12549;paint-order:stroke fill markers"
         d="m 40.196925,63.707996 h -0.255411 v -0.385233 q 0,-0.07197 -0.03528,-0.110066 -0.03387,-0.0381 -0.118534,-0.0381 h -0.213077 q -0.04233,0 -0.07902,-0.0042 v 0.537633 h -0.255411 v -0.715432 h 0.592666 q 0.170744,0 0.2667,0.08184 0.09737,0.08184 0.09737,0.248355 z" />
      <path
         id="path6679"
         style="font-style:normal;font-variant:normal;font-weight:normal;font-stretch:normal;font-size:1.41111px;font-family:Snasm;-inkscape-font-specification:Snasm;fill:#ffffff;fill-opacity:0.81569;stroke:#000000;stroke-width:0.264583;stroke-miterlimit:4;stroke-dasharray:none;stroke-opacity:0.12549;paint-order:stroke fill markers"
         d="m 41.310798,63.707996 h -0.2032 q -0.182033,0 -0.276577,-0.08467 -0.09454,-0.08608 -0.09454,-0.235656 v -0.663221 h 0.256822 v 0.268111 h 0.317499 q 0.198967,0 0.3048,0.09313 0.105833,0.09172 0.105833,0.263877 0,0.173567 -0.105833,0.2667 -0.104422,0.09172 -0.3048,0.09172 z m -0.193322,-0.182033 h 0.155222 q 0.1143,0 0.155222,-0.04798 0.04092,-0.04798 0.04092,-0.128411 0,-0.07902 -0.04092,-0.126999 -0.04092,-0.04798 -0.155222,-0.04798 H 41.07091 q -0.04375,0 -0.07761,-0.0042 v 0.237067 q 0,0.04939 0.02963,0.08467 0.03104,0.03387 0.09454,0.03387 z" />
      <path
         id="path6681"
         style="font-style:normal;font-variant:normal;font-weight:normal;font-stretch:normal;font-size:1.41111px;font-family:Snasm;-inkscape-font-specification:Snasm;fill:#ffffff;fill-opacity:0.81569;stroke:#000000;stroke-width:0.264583;stroke-miterlimit:4;stroke-dasharray:none;stroke-opacity:0.12549;paint-order:stroke fill markers"
         d="m 42.160727,63.976107 h -0.268111 l 0.180623,-0.314677 -0.395111,-0.668866 h 0.270933 l 0.136878,0.239888 q 0.08184,0.1397 0.110066,0.210256 h 0.0071 q 0.0071,-0.02117 0.01976,-0.04657 0.0127,-0.0254 0.02258,-0.04374 0.0099,-0.01835 0.03246,-0.05645 0.02258,-0.03951 0.03528,-0.0635 l 0.135467,-0.239888 h 0.270933 z" />
    </g>
  </g>
</svg>
