<?xml version="1.0" encoding="UTF-8"?>
<svg width="16.841mm" height="5.4522mm" version="1.1" viewBox="0 0 16.841 5.4522" xmlns="http://www.w3.org/2000/svg" xmlns:cc="http://creativecommons.org/ns#" xmlns:dc="http://purl.org/dc/elements/1.1/" xmlns:rdf="http://www.w3.org/1999/02/22-rdf-syntax-ns#">
 <metadata>
  <rdf:RDF>
   <cc:Work rdf:about="">
    <dc:format>image/svg+xml</dc:format>
    <dc:type rdf:resource="http://purl.org/dc/dcmitype/StillImage"/>
    <dc:title/>
   </cc:Work>
  </rdf:RDF>
 </metadata>
 <g transform="translate(-36.476 -62.256)">
  <g transform="matrix(.49478 0 -.15558 .48757 32.792 33.299)" style="fill-opacity:.81569;fill:#ffffff;stroke-opacity:.12549;stroke-width:.53869;stroke:#000000" aria-label="TSSF">
   <path d="m33.209 70.304h-1.9791v-5.6832h-3.1115v-1.4605h8.2021v1.4605h-3.1115z" style="fill-opacity:.81569;fill:#ffffff;stroke-opacity:.12549;stroke-width:.53869;stroke:#000000"/>
   <path d="m41.768 70.304h-4.9318v-1.3229h4.9318q0.48683 0 0.67733-0.15875 0.1905-0.16933 0.1905-0.64558 0-0.48683-0.1905-0.64558-0.17992-0.16933-0.67733-0.16933h-2.2542q-1.5346 0-2.1907-0.49742-0.65616-0.508-0.65616-1.5981t0.65616-1.5981q0.66675-0.508 2.1907-0.508h4.826v1.3335h-4.826q-0.48683 0-0.67733 0.15875-0.1905 0.15875-0.1905 0.62441 0 0.47625 0.1905 0.64558 0.1905 0.15875 0.67733 0.15875h2.2542q1.5346 0 2.1907 0.508 0.65616 0.508 0.65616 1.6087t-0.65616 1.6087q-0.65616 0.49742-2.1907 0.49742z" style="fill-opacity:.81569;fill:#ffffff;stroke-opacity:.12549;stroke-width:.53869;stroke:#000000"/>
   <path d="m50.14 70.304h-4.9318v-1.3229h4.9318q0.48683 0 0.67733-0.15875 0.1905-0.16933 0.1905-0.64558 0-0.48683-0.1905-0.64558-0.17992-0.16933-0.67733-0.16933h-2.2542q-1.5346 0-2.1907-0.49742-0.65616-0.508-0.65616-1.5981t0.65616-1.5981q0.66675-0.508 2.1907-0.508h4.826v1.3335h-4.826q-0.48683 0-0.67733 0.15875-0.1905 0.15875-0.1905 0.62441 0 0.47625 0.1905 0.64558 0.1905 0.15875 0.67733 0.15875h2.2542q1.5346 0 2.1907 0.508 0.65616 0.508 0.65616 1.6087t-0.65616 1.6087q-0.65616 0.49742-2.1907 0.49742z" style="fill-opacity:.81569;fill:#ffffff;stroke-opacity:.12549;stroke-width:.53869;stroke:#000000"/>
   <path d="m60.998 67.594h-5.4081v2.7093h-1.9685v-4.0322q0-3.1115 3.1327-3.1115h4.2333v1.4922h-3.937q-0.8255 0-1.1324 0.35983t-0.32808 1.0901h5.4081z" style="fill-opacity:.81569;fill:#ffffff;stroke-opacity:.12549;stroke-width:.53869;stroke:#000000"/>
  </g>
  <g transform="matrix(.49478 0 -.15558 .48757 32.269 33.299)" style="fill-opacity:.81569;fill:#ffffff;stroke-opacity:.12549;stroke-width:.53869px;stroke:#000000" aria-label="made by">
   <path d="m31.534 61.873h-0.5715v-0.86678q0-0.16192-0.0762-0.24765-0.0762-0.08572-0.2667-0.08572h-0.38418v1.2002h-0.54928v-1.2002h-0.55245q-0.09842 0-0.17462-0.0095v1.2097h-0.5715v-1.6097h2.3273q0.38735 0 0.60325 0.18415t0.2159 0.5588z" style="fill-opacity:.81569;fill:#ffffff;stroke-opacity:.12549;stroke-width:.53869px;stroke:#000000"/>
   <path d="m33.746 61.873h-1.5748q-0.47942 0-0.47942-0.51118 0-0.23178 0.11112-0.34925 0.11112-0.12065 0.3683-0.12065h1.0001q-0.02222-0.1397-0.09842-0.1905-0.07303-0.0508-0.24448-0.0508h-1.0732v-0.38735h1.124q0.46355 0 0.66358 0.18415 0.2032 0.18098 0.2032 0.6223zm-0.5588-0.39052v-0.28575h-0.82232q-0.14605 0-0.14605 0.14288t0.14605 0.14288z" style="fill-opacity:.81569;fill:#ffffff;stroke-opacity:.12549;stroke-width:.53869px;stroke:#000000"/>
   <path d="m35.296 61.873h-0.45402q-0.45085 0-0.68898-0.20638-0.23495-0.20955-0.23495-0.60008t0.23495-0.5969q0.23812-0.20638 0.68898-0.20638h0.71438v-0.60325h0.57785v1.4922q0 0.33655-0.21272 0.53022-0.21272 0.1905-0.62548 0.1905zm0.26035-0.67628v-0.5334q-0.0762 0.0095-0.1778 0.0095h-0.45402q-0.254 0-0.34925 0.10795-0.09207 0.10795-0.09207 0.28575 0 0.18098 0.09207 0.28892 0.09525 0.10795 0.34925 0.10795h0.35242q0.1397 0 0.20955-0.0762 0.06985-0.07937 0.06985-0.1905z" style="fill-opacity:.81569;fill:#ffffff;stroke-opacity:.12549;stroke-width:.53869px;stroke:#000000"/>
   <path d="m38.306 61.873h-1.1748q-0.4318 0-0.62548-0.18098-0.19368-0.18415-0.19368-0.62548 0-0.4445 0.18098-0.6223 0.18415-0.18098 0.63818-0.18098h0.6604q0.29845 0 0.44768 0.127t0.14922 0.36512q0 0.22542-0.11748 0.33972-0.11748 0.11112-0.32702 0.11112h-1.0732q0.01905 0.15558 0.09525 0.2159 0.0762 0.05715 0.254 0.05715h1.0858zm-0.61278-1.2668h-0.47308q-0.1778 0-0.25718 0.0635-0.0762 0.06032-0.09208 0.20638h0.82232q0.15558 0 0.15558-0.13335 0-0.13652-0.15558-0.13652z" style="fill-opacity:.81569;fill:#ffffff;stroke-opacity:.12549;stroke-width:.53869px;stroke:#000000"/>
   <path d="m40.854 61.873h-0.4572q-0.40958 0-0.6223-0.1905-0.21272-0.19368-0.21272-0.53022v-1.4922h0.57785v0.60325h0.71438q0.44768 0 0.6858 0.20955 0.23812 0.20638 0.23812 0.59372 0 0.39052-0.23812 0.60008-0.23495 0.20638-0.6858 0.20638zm-0.43498-0.40958h0.34925q0.25718 0 0.34925-0.10795 0.09208-0.10795 0.09208-0.28892 0-0.1778-0.09208-0.28575t-0.34925-0.10795h-0.45402q-0.09843 0-0.17462-0.0095v0.5334q0 0.11112 0.06668 0.1905 0.06985 0.0762 0.21272 0.0762z" style="fill-opacity:.81569;fill:#ffffff;stroke-opacity:.12549;stroke-width:.53869px;stroke:#000000"/>
   <path d="m42.766 62.476h-0.60325l0.4064-0.70802-0.889-1.505h0.6096l0.30798 0.53975q0.18415 0.31432 0.24765 0.47308h0.01588q0.01587-0.04762 0.04445-0.10478 0.02857-0.05715 0.0508-0.09842 0.02222-0.04127 0.07302-0.127 0.0508-0.0889 0.07938-0.14288l0.3048-0.53975h0.6096z" style="fill-opacity:.81569;fill:#ffffff;stroke-opacity:.12549;stroke-width:.53869px;stroke:#000000"/>
  </g>
 </g>
</svg>
