<?xml version="1.0" encoding="UTF-8"?>
<svg width="62" height="88" version="1.1" viewBox="0 0 16.404 23.283" xmlns="http://www.w3.org/2000/svg" xmlns:cc="http://creativecommons.org/ns#" xmlns:dc="http://purl.org/dc/elements/1.1/" xmlns:rdf="http://www.w3.org/1999/02/22-rdf-syntax-ns#" xmlns:xlink="http://www.w3.org/1999/xlink">
 <defs>
  <linearGradient id="linearGradient21230-1" x1="7.2831" x2="7.2831" y1="23.587" y2="-23.38" gradientTransform="matrix(.47059 0 0 .52525 -11.651 -11.388)" gradientUnits="userSpaceOnUse">
   <stop style="stop-color:#000000;stop-opacity:0" offset="0"/>
   <stop style="stop-color:#ffffff;stop-opacity:.12549" offset=".50071"/>
   <stop style="stop-color:#000000;stop-opacity:0" offset="1"/>
  </linearGradient>
 </defs>
 <metadata>
  <rdf:RDF>
   <cc:Work rdf:about="">
    <dc:format>image/svg+xml</dc:format>
    <dc:type rdf:resource="http://purl.org/dc/dcmitype/StillImage"/>
    <dc:title/>
   </cc:Work>
  </rdf:RDF>
 </metadata>
 <g>
  <path transform="scale(-1)" d="m-8.7098-11.493h1.5875c0.14658 0 0.26458 0.118 0.26458 0.26458v11.964c0 0.14658-0.118 0.26458-0.26458 0.26458h-1.5875c-0.14658 0-0.26458-0.118-0.26458-0.26458v-11.964c0-0.14658 0.118-0.26458 0.26458-0.26458zm1.5875 0h-1.5875c-0.14658 0-0.26458-0.118-0.26458-0.26458v-11.964c0-0.14658 0.118-0.26458 0.26458-0.26458h1.5875c0.14658 0 0.26458 0.118 0.26458 0.26458v11.964c0 0.14658-0.118 0.26458-0.26458 0.26458z" style="fill:url(#linearGradient21230-1);mix-blend-mode:normal;opacity:.9;paint-order:markers stroke fill;stop-color:#000000"/>
  <path transform="matrix(-.081946 0 0 -2.7173 15.479 34.556)" d="m-0.4009 4.3431c0.093742 0 4.734 8.0371 4.6871 8.1183-0.046871 0.08118-9.3273 0.08118-9.3742-2e-6 -0.046871-0.08118 4.5934-8.1183 4.6871-8.1183z" style="fill-opacity:.25098;fill:#ffffff;paint-order:markers stroke fill;stop-color:#000000;stroke-linecap:square;stroke-miterlimit:0;stroke-opacity:.25098;stroke-width:.5607"/>
  <path transform="matrix(-.081946 0 0 -1.3586 1.145 17.542)" d="m-0.4009 4.3431c0.093742 0 4.734 8.0371 4.6871 8.1183-0.046871 0.08118-9.3273 0.08118-9.3742-2e-6 -0.046871-0.08118 4.5934-8.1183 4.6871-8.1183z" style="fill-opacity:.25098;fill:#ffffff;paint-order:markers stroke fill;stop-color:#000000;stroke-linecap:square;stroke-miterlimit:0;stroke-opacity:.25098;stroke-width:.79295"/>
  <path transform="matrix(.081946 0 0 1.3586 1.2107 5.741)" d="m-0.4009 4.3431c0.093742 0 4.734 8.0371 4.6871 8.1183-0.046871 0.08118-9.3273 0.08118-9.3742-2e-6 -0.046871-0.08118 4.5934-8.1183 4.6871-8.1183z" style="fill-opacity:.25098;fill:#ffffff;paint-order:markers stroke fill;stop-color:#000000;stroke-linecap:square;stroke-miterlimit:0;stroke-opacity:.25098;stroke-width:.79295"/>
 </g>
</svg>
