<?xml version="1.0" encoding="UTF-8"?>
<svg width="18.458mm" height="3.2028mm" version="1.1" viewBox="0 0 18.458 3.2028" xmlns="http://www.w3.org/2000/svg" xmlns:cc="http://creativecommons.org/ns#" xmlns:dc="http://purl.org/dc/elements/1.1/" xmlns:rdf="http://www.w3.org/1999/02/22-rdf-syntax-ns#">
 <metadata>
  <rdf:RDF>
   <cc:Work rdf:about="">
    <dc:format>image/svg+xml</dc:format>
    <dc:type rdf:resource="http://purl.org/dc/dcmitype/StillImage"/>
    <dc:title/>
   </cc:Work>
  </rdf:RDF>
 </metadata>
 <g transform="translate(-30.74 -145.29)">
  <g style="fill:none;paint-order:markers stroke fill;stroke-linecap:round;stroke-width:2.54;stroke:#000000" aria-label="PLOGUE SPC PLAYER">
   <g style="fill:none;stroke-linecap:butt;stroke-width:.26458px;stroke:#000000" aria-label="PLOGUE SPC700 PLAYER">
    <g transform="translate(-12.988)">
     <path d="m50.852 145.29c-0.32302 0-0.6138 0.0694-0.87222 0.20801-0.25842 0.1386-0.46138 0.33178-0.60905 0.5795-0.14767 0.24478-0.22149 0.52035-0.22149 0.82705 0 0.30375 0.07217 0.57659 0.21676 0.8184 0.14767 0.24182 0.3492 0.43066 0.60454 0.56633 0.25842 0.13566 0.54778 0.20347 0.86772 0.20347 0.3261 0 0.61831-0.0678 0.87673-0.20347 0.26149-0.13861 0.46611-0.33042 0.61378-0.5752 0.14767-0.24476 0.22149-0.52034 0.22149-0.82703 0-0.30374-0.07382-0.57658-0.22149-0.81839-0.14459-0.24478-0.34612-0.435-0.60454-0.57066-0.25842-0.13861-0.5492-0.20801-0.87222-0.20801zm3.7994 0c-0.3261 0-0.61974 0.0678-0.88124 0.20346-0.26149 0.13566-0.46777 0.32748-0.61851 0.57521-0.15074 0.24476-0.226 0.52782-0.226 0.84927 0 0.30966 0.07382 0.58386 0.22149 0.82273s0.3492 0.42478 0.60454 0.55749c0.25842 0.12976 0.54303 0.1946 0.85375 0.1946 0.4307 0 0.84279-0.0958 1.2366-0.28749 0.03692-0.0176 0.06161-0.0371 0.07391-0.0577 0.01539-0.0237 0.02298-0.056 0.02298-0.0973v-1.0175c0-0.0384-0.0091-0.0648-0.0277-0.0794-0.01539-0.0176-0.04292-0.0265-0.08292-0.0265h-0.42451c-0.03999 0-0.06943 9e-3 -0.08788 0.0265-0.01539 0.0148-0.02298 0.0411-0.02298 0.0794v0.69895c0 0.0265-0.0046 0.0456-0.01374 0.0575-0.0061 0.0122-0.02325 0.0237-0.05092 0.0354-0.16612 0.0649-0.366 0.0974-0.59981 0.0974-0.19381 0-0.36923-0.0427-0.52613-0.1283-0.1569-0.0855-0.28152-0.20499-0.37381-0.35834-0.08921-0.15629-0.13384-0.3347-0.13384-0.53522 0-0.20053 0.0432-0.37894 0.12934-0.53523 0.08921-0.15631 0.21384-0.27871 0.37381-0.3672 0.15997-0.0883 0.34442-0.13262 0.55362-0.13262 0.29841 0 0.58611 0.0826 0.86298 0.24774 0.03384 0.0176 0.06162 0.0264 0.08314 0.0264 0.03077 0 0.05997-0.0192 0.08765-0.0575l0.18454-0.26978c0.02153-0.0295 0.03223-0.0561 0.03223-0.0797 0-0.0325-0.02303-0.0619-0.06917-0.0883-0.1569-0.10628-0.33683-0.19174-0.53987-0.2566-0.20304-0.0649-0.41692-0.0974-0.64149-0.0974zm-10.813 0.0532c-0.03999 0-0.0692 9e-3 -0.08765 0.0265-0.01539 0.0148-0.02321 0.0411-0.02321 0.0794v2.8842c0 0.0384 0.0079 0.0663 0.02321 0.0839 0.01845 0.0148 0.04766 0.0223 0.08765 0.0223h0.41978c0.03999 0 0.06943-7e-3 0.08788-0.0223 0.01846-0.0176 0.0275-0.0456 0.0275-0.0839v-0.75641c0-0.0205 0.0048-0.0354 0.01397-0.0443 0.0091-9e-3 0.02465-0.0132 0.04619-0.0132h0.36457c0.45838 0 0.80756-0.0944 1.0475-0.28318 0.23996-0.18873 0.35984-0.46292 0.35984-0.82271 0-0.71366-0.45695-1.0705-1.3706-1.0705zm3.0103 0c-0.03999 0-0.0692 9e-3 -0.08765 0.0265-0.01539 0.0148-0.02321 0.0415-0.02321 0.0797v2.8842c0 0.0384 0.0079 0.0663 0.02321 0.084 0.01845 0.0148 0.04766 0.022 0.08765 0.022h1.8643c0.03999 0 0.06754-6e-3 0.08292-0.022 0.01845-0.0176 0.0277-0.0456 0.0277-0.084v-0.36287c0-0.0383-0.0091-0.0648-0.0277-0.0796-0.01539-0.0176-0.04292-0.0265-0.08292-0.0265h-1.269c-0.02154 0-0.03697-5e-3 -0.04619-0.0134-0.0091-9e-3 -0.01396-0.0237-0.01396-0.0443v-2.3576c0-0.0383-0.0091-0.065-0.0277-0.0797-0.01845-0.0176-0.04766-0.0265-0.08765-0.0265zm9.8369 0c-0.03999 0-0.0692 9e-3 -0.08765 0.0265-0.01539 0.0148-0.02298 0.0415-0.02298 0.0797v1.672c0 0.30671 0.05675 0.56178 0.17057 0.76527 0.1169 0.20347 0.27855 0.35526 0.48467 0.45553 0.20612 0.1003 0.4461 0.15055 0.71991 0.15055 0.27995 0 0.52588-0.0516 0.73815-0.15485 0.21535-0.10323 0.38317-0.25798 0.50315-0.4644 0.12306-0.20645 0.18454-0.46017 0.18454-0.76095v-1.6632c0-0.0383-0.0091-0.065-0.0277-0.0797-0.01845-0.0176-0.04766-0.0265-0.08765-0.0265h-0.42c-0.03999 0-0.0692 9e-3 -0.08765 0.0265-0.01539 0.0148-0.02298 0.0415-0.02298 0.0797v1.6323c0 0.26542-0.06623 0.47181-0.19851 0.61925-0.12921 0.14451-0.31531 0.21664-0.55835 0.21664-0.24611 0-0.43365-0.0722-0.56286-0.21664-0.12613-0.14744-0.18927-0.35542-0.18927-0.62378v-1.6277c0-0.0383-0.0091-0.065-0.02772-0.0797-0.01845-0.0176-0.04766-0.0265-0.08765-0.0265zm3.529 0c-0.03999 0-0.0692 9e-3 -0.08765 0.0265-0.01539 0.0148-0.02298 0.0415-0.02298 0.0797v2.884c0 0.0383 0.0076 0.0666 0.02298 0.0843 0.01845 0.0148 0.04766 0.0221 0.08765 0.0221h1.8551c0.03999 0 0.06943-6e-3 0.08788-0.0221 0.01845-0.0176 0.0275-0.0459 0.0275-0.0843v-0.36266c0-0.0383-0.0091-0.065-0.0275-0.0797-0.01845-0.0176-0.04789-0.0264-0.08788-0.0264h-1.2598c-0.02153 0-0.03674-5e-3 -0.04596-0.0134-0.0091-9e-3 -0.01397-0.0237-0.01397-0.0443v-0.57951c0-0.0236 0.0048-0.0384 0.01397-0.0443 0.0091-9e-3 0.02443-0.0132 0.04596-0.0132h1.0984c0.03999 0 0.0692-6e-3 0.08765-0.0221 0.01846-0.0176 0.0277-0.0459 0.0277-0.0843v-0.35813c0-0.0383-0.0091-0.0665-0.0277-0.0843-0.01845-0.0176-0.04766-0.0265-0.08765-0.0265h-1.0984c-0.02153 0-0.03674-5e-3 -0.04596-0.0134-0.0091-9e-3 -0.01397-0.0237-0.01397-0.0443v-0.56158c0-0.0206 0.0048-0.0354 0.01397-0.0443 0.0091-9e-3 0.02443-0.0134 0.04596-0.0134h1.2553c0.03999 0 0.0692-6e-3 0.08765-0.0221 0.01846-0.0176 0.0277-0.0456 0.0277-0.0839v-0.36265c0-0.0383-0.0091-0.065-0.0277-0.0797-0.01845-0.0176-0.04766-0.0265-0.08765-0.0265zm-9.3673 0.52204c0.19074 0 0.3645 0.0426 0.5214 0.12808 0.15997 0.0855 0.28459 0.20795 0.37381 0.36721 0.0923 0.15629 0.13835 0.33469 0.13835 0.53522 0 0.19464-0.04606 0.37031-0.13835 0.52658-0.09229 0.15632-0.21857 0.27853-0.37854 0.367-0.1569 0.0855-0.33066 0.1283-0.5214 0.1283-0.19381 0-0.36923-0.0427-0.52613-0.1283-0.15382-0.0883-0.27536-0.20931-0.36457-0.36266-0.08921-0.15629-0.13362-0.33334-0.13362-0.53092 0-0.20053 0.04441-0.37893 0.13362-0.53522 0.0923-0.15632 0.21548-0.27715 0.3693-0.36266 0.1569-0.0883 0.33232-0.13263 0.52613-0.13263zm-6.4136 0.053h0.36908c0.24303 0 0.42606 0.0399 0.54911 0.11945 0.12306 0.0796 0.18454 0.20796 0.18454 0.38491 0 0.17694-0.06291 0.30824-0.18904 0.39376-0.12613 0.0855-0.30772 0.12829-0.5446 0.12829h-0.36908c-0.02154 0-0.03697-5e-3 -0.04619-0.0134-0.0091-9e-3 -0.01397-0.0237-0.01397-0.0443v-0.91105c0-0.0206 0.0048-0.0355 0.01397-0.0443 0.0091-9e-3 0.02466-0.0134 0.04619-0.0134z" style="fill-opacity:.81569;fill:#ffffff;paint-order:markers stroke fill;stroke:none"/>
    </g>
   </g>
  </g>
 </g>
</svg>
