<?xml version="1.0" encoding="UTF-8"?>
<svg width="49.516mm" height="4.6213mm" version="1.1" viewBox="0 0 49.516 4.6213" xmlns="http://www.w3.org/2000/svg" xmlns:cc="http://creativecommons.org/ns#" xmlns:dc="http://purl.org/dc/elements/1.1/" xmlns:rdf="http://www.w3.org/1999/02/22-rdf-syntax-ns#">
 <metadata>
  <rdf:RDF>
   <cc:Work rdf:about="">
    <dc:format>image/svg+xml</dc:format>
    <dc:type rdf:resource="http://purl.org/dc/dcmitype/StillImage"/>
    <dc:title/>
   </cc:Work>
  </rdf:RDF>
 </metadata>
 <g transform="translate(-29.595 -144.58)">
  <g style="fill:none;paint-order:markers stroke fill;stroke-linecap:round;stroke-width:2.54;stroke:#000000" aria-label="PLOGUE SPC PLAYER">
   <g style="fill:none;stroke-linecap:butt;stroke-width:.26458px;stroke:#000000" aria-label="PLOGUE SPC700 PLAYER">
    <g transform="translate(-12.988)">
     <g transform="matrix(1.0206 0 0 1.0283 -24.26 -6.3037)" style="fill-opacity:.50196;fill:#000000;stroke-opacity:.6902;stroke-width:1.2914;stroke:#000000">
      <path d="m73.267 147.38c-0.32302 0-0.6138 0.0694-0.87222 0.20801-0.25842 0.1386-0.46138 0.33178-0.60905 0.5795-0.14767 0.24478-0.22149 0.52035-0.22149 0.82705 0 0.30375 0.07217 0.57659 0.21676 0.8184 0.14767 0.24182 0.3492 0.43066 0.60454 0.56633 0.25842 0.13566 0.54778 0.20347 0.86772 0.20347 0.3261 0 0.61831-0.0678 0.87673-0.20347 0.26149-0.13861 0.46611-0.33042 0.61378-0.5752 0.14767-0.24476 0.22149-0.52034 0.22149-0.82703 0-0.30374-0.07382-0.57658-0.22149-0.81839-0.14459-0.24478-0.34612-0.435-0.60454-0.57066-0.25842-0.13861-0.5492-0.20801-0.87222-0.20801zm3.7994 0c-0.3261 0-0.61974 0.0678-0.88124 0.20346-0.26149 0.13566-0.46777 0.32748-0.61851 0.57521-0.15074 0.24476-0.226 0.52782-0.226 0.84927 0 0.30966 0.07382 0.58386 0.22149 0.82273 0.14767 0.23887 0.3492 0.42478 0.60454 0.55749 0.25842 0.12976 0.54303 0.1946 0.85375 0.1946 0.4307 0 0.84279-0.0958 1.2366-0.28749 0.03692-0.0176 0.06161-0.0371 0.07391-0.0577 0.01539-0.0237 0.02298-0.056 0.02298-0.0973v-1.0175c0-0.0384-0.0091-0.0648-0.0277-0.0794-0.01539-0.0176-0.04292-0.0265-0.08292-0.0265h-0.42451c-0.03999 0-0.06943 9e-3 -0.08788 0.0265-0.01539 0.0148-0.02298 0.0411-0.02298 0.0794v0.69895c0 0.0265-0.0046 0.0456-0.01374 0.0575-0.0061 0.0122-0.02325 0.0237-0.05092 0.0354-0.16612 0.0649-0.366 0.0974-0.59981 0.0974-0.19381 0-0.36923-0.0427-0.52613-0.1283-0.1569-0.0855-0.28152-0.20499-0.37381-0.35834-0.08921-0.15629-0.13384-0.3347-0.13384-0.53522 0-0.20053 0.0432-0.37894 0.12934-0.53523 0.08921-0.15631 0.21384-0.27871 0.37381-0.3672 0.15997-0.0883 0.34442-0.13262 0.55362-0.13262 0.29841 0 0.58611 0.0826 0.86298 0.24774 0.03384 0.0176 0.06162 0.0264 0.08314 0.0264 0.03077 0 0.05997-0.0192 0.08765-0.0575l0.18454-0.26978c0.02153-0.0295 0.03223-0.0561 0.03223-0.0797 0-0.0325-0.02303-0.0619-0.06917-0.0883-0.1569-0.10628-0.33683-0.19174-0.53987-0.2566-0.20304-0.0649-0.41692-0.0974-0.64149-0.0974zm-10.813 0.0532c-0.03999 0-0.0692 9e-3 -0.08765 0.0265-0.01539 0.0148-0.02321 0.0411-0.02321 0.0794v2.8842c0 0.0384 0.0079 0.0663 0.02321 0.0839 0.01845 0.0148 0.04766 0.0223 0.08765 0.0223h0.41978c0.03999 0 0.06943-7e-3 0.08788-0.0223 0.01846-0.0176 0.0275-0.0456 0.0275-0.0839v-0.75641c0-0.0205 0.0048-0.0354 0.01397-0.0443 0.0091-9e-3 0.02465-0.0132 0.04619-0.0132h0.36457c0.45838 0 0.80756-0.0944 1.0475-0.28318 0.23996-0.18873 0.35984-0.46292 0.35984-0.82271 0-0.71366-0.45695-1.0705-1.3706-1.0705zm3.0103 0c-0.03999 0-0.0692 9e-3 -0.08765 0.0265-0.01539 0.0148-0.02321 0.0415-0.02321 0.0797v2.8842c0 0.0384 0.0079 0.0663 0.02321 0.084 0.01845 0.0148 0.04766 0.022 0.08765 0.022h1.8643c0.03999 0 0.06754-6e-3 0.08292-0.022 0.01845-0.0176 0.0277-0.0456 0.0277-0.084v-0.36287c0-0.0383-0.0091-0.0648-0.0277-0.0796-0.01539-0.0176-0.04292-0.0265-0.08292-0.0265h-1.269c-0.02154 0-0.03697-5e-3 -0.04619-0.0134-0.0091-9e-3 -0.01396-0.0237-0.01396-0.0443v-2.3576c0-0.0383-0.0091-0.065-0.0277-0.0797-0.01845-0.0176-0.04766-0.0265-0.08765-0.0265zm9.8369 0c-0.03999 0-0.0692 9e-3 -0.08765 0.0265-0.01539 0.0148-0.02298 0.0415-0.02298 0.0797v1.672c0 0.30671 0.05675 0.56178 0.17057 0.76527 0.1169 0.20347 0.27855 0.35526 0.48467 0.45553 0.20612 0.1003 0.4461 0.15055 0.71991 0.15055 0.27995 0 0.52588-0.0516 0.73815-0.15485 0.21535-0.10323 0.38317-0.25798 0.50315-0.4644 0.12306-0.20645 0.18454-0.46017 0.18454-0.76095v-1.6632c0-0.0383-0.0091-0.065-0.0277-0.0797-0.01845-0.0176-0.04766-0.0265-0.08765-0.0265h-0.42c-0.03999 0-0.0692 9e-3 -0.08765 0.0265-0.01539 0.0148-0.02298 0.0415-0.02298 0.0797v1.6323c0 0.26542-0.06623 0.47181-0.19851 0.61925-0.12921 0.14451-0.31531 0.21664-0.55835 0.21664-0.24611 0-0.43365-0.0722-0.56286-0.21664-0.12614-0.14744-0.18927-0.35542-0.18927-0.62378v-1.6277c0-0.0383-0.0091-0.065-0.02772-0.0797-0.01845-0.0176-0.04766-0.0265-0.08765-0.0265zm3.529 0c-0.03999 0-0.0692 9e-3 -0.08765 0.0265-0.01539 0.0148-0.02298 0.0415-0.02298 0.0797v2.884c0 0.0383 0.0076 0.0666 0.02298 0.0843 0.01845 0.0148 0.04766 0.0221 0.08765 0.0221h1.8551c0.03999 0 0.06943-6e-3 0.08788-0.0221 0.01845-0.0176 0.0275-0.0459 0.0275-0.0843v-0.36266c0-0.0383-0.0091-0.065-0.0275-0.0797-0.01845-0.0176-0.04789-0.0264-0.08788-0.0264h-1.2598c-0.02153 0-0.03674-5e-3 -0.04596-0.0134-0.0091-9e-3 -0.01397-0.0237-0.01397-0.0443v-0.57951c0-0.0236 0.0048-0.0384 0.01397-0.0443 0.0091-9e-3 0.02443-0.0132 0.04596-0.0132h1.0984c0.03999 0 0.0692-6e-3 0.08765-0.0221 0.01846-0.0176 0.0277-0.0459 0.0277-0.0843v-0.35813c0-0.0383-0.0091-0.0665-0.0277-0.0843-0.01845-0.0176-0.04766-0.0265-0.08765-0.0265h-1.0984c-0.02153 0-0.03674-5e-3 -0.04596-0.0134-0.0091-9e-3 -0.01397-0.0237-0.01397-0.0443v-0.56158c0-0.0206 0.0048-0.0354 0.01397-0.0443 0.0091-9e-3 0.02443-0.0134 0.04596-0.0134h1.2553c0.03999 0 0.0692-6e-3 0.08765-0.0221 0.01846-0.0176 0.0277-0.0456 0.0277-0.0839v-0.36265c0-0.0383-0.0091-0.065-0.0277-0.0797-0.01845-0.0176-0.04766-0.0265-0.08765-0.0265zm-9.3673 0.52204c0.19074 0 0.3645 0.0426 0.5214 0.12808 0.15997 0.0855 0.28459 0.20795 0.37381 0.36721 0.0923 0.15629 0.13835 0.33469 0.13835 0.53522 0 0.19464-0.04606 0.37031-0.13835 0.52658-0.09229 0.15632-0.21857 0.27853-0.37854 0.367-0.1569 0.0855-0.33066 0.1283-0.5214 0.1283-0.19381 0-0.36923-0.0427-0.52613-0.1283-0.15382-0.0883-0.27536-0.20931-0.36457-0.36266-0.08921-0.15629-0.13362-0.33334-0.13362-0.53092 0-0.20053 0.04441-0.37893 0.13362-0.53522 0.0923-0.15632 0.21548-0.27715 0.3693-0.36266 0.1569-0.0883 0.33232-0.13263 0.52613-0.13263zm-6.4136 0.053h0.36908c0.24303 0 0.42606 0.0399 0.54911 0.11945 0.12306 0.0796 0.18454 0.20796 0.18454 0.38491 0 0.17694-0.06291 0.30824-0.18904 0.39376-0.12613 0.0855-0.30772 0.12829-0.5446 0.12829h-0.36908c-0.02154 0-0.03697-5e-3 -0.04619-0.0134-0.0091-9e-3 -0.01397-0.0237-0.01397-0.0443v-0.91105c0-0.0206 0.0048-0.0355 0.01397-0.0443 0.0091-9e-3 0.02466-0.0134 0.04619-0.0134z" style="fill-opacity:.50196;fill:#000000;paint-order:markers stroke fill;stroke-linecap:butt;stroke-opacity:.6902;stroke-width:1.2914;stroke:#000000"/>
      <g style="fill-opacity:.50196;fill:#000000;stroke-opacity:.6902;stroke-width:1.2914;stroke:#000000">
       <g style="fill-opacity:.50196;fill:#000000;stroke-opacity:.6902;stroke-width:1.2914;stroke:#000000">
        <path d="m87.091 147.82c-0.16469 0-0.31258 0.0281-0.44344 0.0843-0.12859 0.054-0.23018 0.13422-0.30463 0.24018-0.07219 0.10383-0.10816 0.22813-0.10816 0.37302 0 0.12977 0.02809 0.23792 0.0845 0.32443 0.05866 0.0865 0.14114 0.15674 0.24718 0.21081 0.10829 0.0542 0.24472 0.10054 0.40941 0.13954 0.12408 0.0303 0.21871 0.0583 0.28413 0.0843 0.06768 0.026 0.11623 0.0553 0.14556 0.0876 0.02933 0.0324 0.04416 0.0744 0.04416 0.12636 0 0.08-0.0362 0.14379-0.10838 0.19137-0.07219 0.0454-0.17491 0.0683-0.30802 0.0683-0.10603 0-0.21077-0.0183-0.31455-0.0551-0.10153-0.039-0.19525-0.0909-0.28098-0.15573-0.02257-0.0195-0.04279-0.0294-0.06084-0.0294-0.0091 0-0.01937 5e-3 -0.03065 0.013-0.0091 5e-3 -0.01802 0.0165-0.02703 0.0294l-0.14196 0.21081c-0.01804 0.0282-0.02727 0.0486-0.02727 0.0615 0 0.0195 0.01595 0.0412 0.04754 0.065 0.10829 0.0865 0.23348 0.15458 0.37561 0.20433 0.14213 0.0497 0.29429 0.0746 0.45673 0.0746 0.17823 0 0.33624-0.0279 0.47386-0.0843 0.13762-0.0584 0.24483-0.1407 0.32153-0.24666 0.07671-0.10604 0.11492-0.23136 0.11492-0.37626 0-0.12328-0.02809-0.22712-0.0845-0.31147-0.05416-0.0865-0.13663-0.15783-0.24718-0.21404-0.11055-0.0583-0.2526-0.10823-0.42631-0.14925-0.11506-0.0282-0.20406-0.0539-0.26723-0.0777-0.06092-0.0238-0.10722-0.0531-0.1388-0.0876-0.03158-0.0346-0.04731-0.0787-0.04731-0.13285 0-0.0756 0.03146-0.13623 0.09464-0.18164 0.06543-0.0454 0.15353-0.0683 0.26408-0.0683 0.09927 0 0.19389 0.0173 0.28413 0.0519 0.09025 0.0345 0.18172 0.0832 0.27422 0.146 0.02482 0.0174 0.04505 0.0259 0.06085 0.0259 0.02032 0 0.0394-0.014 0.05746-0.0422l0.14218-0.21404c0.0158-0.0216 0.02365-0.041 0.02365-0.0584 0-0.0216-0.01236-0.0412-0.03718-0.0584-0.23463-0.17951-0.50187-0.26914-0.80192-0.26914zm4.5896 0c-0.23914 0-0.45446 0.052-0.64622 0.15573-0.18951 0.10164-0.33965 0.24211-0.45019 0.42161-0.10829 0.17951-0.16246 0.3816-0.16246 0.60652 0 0.22059 0.05417 0.41967 0.16246 0.597 0.10829 0.17733 0.25618 0.31675 0.44344 0.41839 0.18951 0.0994 0.39921 0.14925 0.62933 0.14925 0.16469 0 0.3227-0.0259 0.47385-0.0777 0.15115-0.054 0.28758-0.12991 0.40941-0.22721 0.01582-0.0131 0.02701-0.0248 0.03383-0.0356 7e-3 -0.011 0.01021-0.0215 0.01021-0.0325 0-0.013-7e-3 -0.0292-0.02028-0.0486l-0.14894-0.20434c-0.01801-0.0238-0.03602-0.0359-0.05407-0.0359-0.01804 0-0.03961 0.01-0.06444 0.0294-0.18274 0.14059-0.3902 0.21082-0.62256 0.21082-0.14438 0-0.27408-0.0326-0.38913-0.0974-0.11506-0.0649-0.20631-0.15343-0.27399-0.26589-0.06542-0.11458-0.09823-0.24346-0.09823-0.3862 0-0.14706 0.03282-0.27784 0.09823-0.39245 0.06768-0.11469 0.15893-0.20318 0.27399-0.26591 0.11731-0.0649 0.247-0.0974 0.38913-0.0974 0.11279 0 0.22114 0.0183 0.32492 0.0551 0.10378 0.0367 0.20088 0.0876 0.29112 0.1525 0.02483 0.0175 0.04505 0.0259 0.06084 0.0259 0.02033 0 0.04055-0.0129 0.06085-0.0389l0.14894-0.20109c0.01582-0.0216 0.02369-0.04 0.02369-0.0551 9e-6 -9e-3 -0.0035-0.0174-0.01021-0.0259-7e-3 -0.011-0.01573-0.0218-0.02702-0.0327-0.11957-0.0931-0.25264-0.16647-0.39928-0.22053-0.14664-0.054-0.3024-0.081-0.4671-0.081zm4.118 0c-0.20078 0-0.37678 0.0487-0.52793 0.146-0.1489 0.0952-0.26511 0.23241-0.34858 0.41192-0.08121 0.17731-0.1219 0.38718-0.1219 0.6294 0 0.24004 0.04064 0.44754 0.1219 0.62271 0.08122 0.17518 0.19629 0.30919 0.34519 0.40218 0.15115 0.0909 0.32715 0.13629 0.52793 0.13629 0.20079 0 0.37678-0.0476 0.52793-0.14278 0.15116-0.0952 0.26736-0.23132 0.34858-0.40865 0.08348-0.17951 0.12505-0.39044 0.12505-0.63266 0-0.23788-0.04161-0.44429-0.12505-0.61947-0.08121-0.17516-0.19743-0.30918-0.34858-0.40217-0.14889-0.0952-0.32376-0.14277-0.52455-0.14277zm2.3398 0c-0.2008 0-0.37678 0.0487-0.52794 0.146-0.14889 0.0952-0.2651 0.23241-0.34857 0.41192-0.08121 0.17731-0.1219 0.38718-0.1219 0.6294 0 0.24004 0.04064 0.44754 0.1219 0.62271 0.08121 0.17518 0.1963 0.30919 0.3452 0.40218 0.15116 0.0909 0.32715 0.13629 0.52793 0.13629 0.20078 0 0.37677-0.0476 0.52793-0.14278 0.15115-0.0952 0.26736-0.23132 0.34857-0.40865 0.08348-0.17951 0.12505-0.39044 0.12505-0.63266 0-0.23788-0.04162-0.44429-0.12505-0.61947-0.08121-0.17516-0.19742-0.30918-0.34857-0.40217-0.1489-0.0952-0.32376-0.14277-0.52454-0.14277zm7.5913 0c-0.20304 0-0.3824 0.0388-0.53807 0.11664-0.15566 0.0756-0.27749 0.19032-0.36548 0.34387-0.0858 0.15353-0.12842 0.34185-0.12842 0.5646v1.2068c0 0.0282 5e-3 0.0486 0.0169 0.0615 0.0136 0.011 0.0349 0.0162 0.0643 0.0162h0.30801c0.0293 0 0.0507-5e-3 0.0642-0.0162 0.0136-0.013 0.0203-0.0334 0.0203-0.0615v-0.59054c0-0.0174 4e-3 -0.0292 0.0102-0.0356 7e-3 -5e-3 0.0193-0.01 0.0374-0.01h1.0151c0.0158 0 0.027 5e-3 0.0338 0.01 7e-3 5e-3 0.0102 0.0184 0.0102 0.0356v0.59054c0 0.0282 6e-3 0.0486 0.0171 0.0615 0.0135 0.011 0.0349 0.0162 0.0643 0.0162h0.30802c0.0293 0 0.0507-5e-3 0.0643-0.0162 0.0135-0.013 0.0203-0.0334 0.0203-0.0615v-1.2068c0-0.22708-0.0441-0.41646-0.13204-0.56783-0.0858-0.15356-0.20531-0.26818-0.35872-0.34387-0.1534-0.0756-0.33052-0.11335-0.5313-0.11335zm-17.299 0.0389c-0.02933 0-0.05067 5e-3 -0.06422 0.0194-0.01129 0.011-0.0169 0.0303-0.0169 0.0583v2.1152c0 0.0282 0.0056 0.0486 0.0169 0.0615 0.01354 0.011 0.03489 0.0162 0.06422 0.0162h0.30802c0.02934 0 0.05067-5e-3 0.06422-0.0162 0.01354-0.013 0.02028-0.0334 0.02028-0.0615v-0.55491c0-0.0151 0.0034-0.0259 0.01021-0.0325 0.0067-5e-3 0.01801-0.01 0.03379-0.01h0.26746c0.33615 0 0.59216-0.0692 0.76813-0.20756 0.17597-0.13842 0.26408-0.33966 0.26408-0.60351 0-0.52335-0.33512-0.78493-1.0052-0.78493zm4.4481 0c-0.03156 0-0.05429 5e-3 -0.06783 0.0194-0.01355 0.0131-0.02029 0.0345-0.02029 0.0648v0.25314c0 0.0303 7e-3 0.0517 0.02029 0.0648 0.01355 0.013 0.0362 0.0194 0.06783 0.0194h1.1099l-0.83257 1.742c-0.0113 0.0216-0.01688 0.0425-0.01688 0.0617 0 0.0151 7e-3 0.0271 0.02029 0.0356 0.01355 5e-3 0.034 0.01 0.06111 0.01h0.31455c0.0361 0 0.06216-5e-3 0.07798-0.0194 0.01802-0.0129 0.03602-0.0379 0.05411-0.0747l0.95763-2.0535c0.01355-0.0303 0.02027-0.053 0.02027-0.0681 0-0.0194-0.0079-0.0334-0.02368-0.0422-0.01582-9e-3 -0.03943-0.0131-0.07099-0.0131zm7.6736 0c-0.0293 0-0.0507 5e-3 -0.0643 0.0194-0.0113 0.011-0.0169 0.0303-0.0169 0.0583v2.1152c0 0.0282 5e-3 0.0486 0.0169 0.0615 0.0136 0.011 0.0349 0.0162 0.0643 0.0162h0.30802c0.0293 0 0.0507-5e-3 0.0643-0.0162 0.0135-0.013 0.0203-0.0334 0.0203-0.0615v-0.55491c0-0.0151 4e-3 -0.0259 0.0102-0.0325 7e-3 -5e-3 0.018-0.01 0.0338-0.01h0.26724c0.33615 0 0.59215-0.0692 0.76812-0.20756 0.17597-0.13842 0.26408-0.33966 0.26408-0.60351 0-0.52335-0.33513-0.78493-1.0052-0.78493zm2.2077 0c-0.0293 0-0.0509 5e-3 -0.0644 0.0194-0.0113 0.011-0.0169 0.0303-0.0169 0.0583v2.1152c0 0.0282 5e-3 0.0486 0.0169 0.0615 0.0135 0.011 0.0351 0.0162 0.0644 0.0162h1.367c0.0293 0 0.0498-5e-3 0.061-0.0162 0.0136-0.013 0.0203-0.0334 0.0203-0.0615v-0.26612c0-0.0282-7e-3 -0.0475-0.0203-0.0583-0.0113-0.0131-0.0317-0.0195-0.061-0.0195h-0.93058c-0.0158 0-0.027-5e-3 -0.0338-0.01-7e-3 -5e-3 -0.0102-0.0173-0.0102-0.0323v-1.729c0-0.0282-7e-3 -0.0475-0.0203-0.0583-0.0136-0.0129-0.0352-0.0195-0.0644-0.0195zm4.3088 0c-0.0451 0-0.0676 0.0129-0.0676 0.0389 0 0.0151 5e-3 0.0312 0.0169 0.0486l0.84609 1.3528v0.75252c0 0.0282 5e-3 0.0489 0.0169 0.0617 0.0136 0.011 0.0349 0.0162 0.0643 0.0162h0.30801c0.0293 0 0.0507-5e-3 0.0642-0.0162 0.0136-0.013 0.0203-0.0337 0.0203-0.0617v-0.76872l0.83595-1.3366c0.0113-0.0174 0.0169-0.0334 0.0169-0.0486 0-0.026-0.0213-0.0389-0.0642-0.0389h-0.33506c-0.0406 0-0.07 5e-3 -0.0881 0.0162-0.018 0.011-0.0383 0.0334-0.0608 0.0681l-0.54145 0.90199-0.53469-0.90199c-0.0226-0.0345-0.0439-0.0572-0.0643-0.0681-0.018-0.011-0.0463-0.0162-0.0847-0.0162zm2.4657 0c-0.0293 0-0.0507 5e-3 -0.0643 0.0194-0.0113 0.011-0.0169 0.0303-0.0169 0.0583v2.1152c0 0.0282 5e-3 0.0486 0.0169 0.0615 0.0136 0.011 0.0349 0.0162 0.0643 0.0162h1.3605c0.0293 0 0.0507-5e-3 0.0643-0.0162 0.0135-0.013 0.0203-0.0334 0.0203-0.0615v-0.26612c0-0.0282-7e-3 -0.0475-0.0203-0.0583-0.0135-0.0131-0.0349-0.0195-0.0643-0.0195h-0.92382c-0.0158 0-0.027-5e-3 -0.0338-0.01-7e-3 -5e-3 -0.0104-0.0174-0.0104-0.0327v-0.42487c0-0.0174 4e-3 -0.0281 0.0104-0.0324 7e-3 -6e-3 0.018-0.01 0.0338-0.01h0.8053c0.0293 0 0.0509-5e-3 0.0644-0.0162 0.0135-0.0131 0.0203-0.0337 0.0203-0.0617v-0.26266c0-0.0282-7e-3 -0.0488-0.0203-0.0617-0.0136-0.013-0.0351-0.0194-0.0644-0.0194h-0.8053c-0.0158 0-0.027-5e-3 -0.0338-0.01-7e-3 -5e-3 -0.0104-0.0173-0.0104-0.0323v-0.41191c0-0.0151 4e-3 -0.0262 0.0104-0.0327 7e-3 -6e-3 0.018-0.01 0.0338-0.01h0.92044c0.0293 0 0.0507-5e-3 0.0643-0.0162 0.0135-0.0131 0.0203-0.0334 0.0203-0.0615v-0.26609c0-0.0282-7e-3 -0.0475-0.0203-0.0583-0.0136-0.0131-0.0349-0.0194-0.0643-0.0194zm1.963 0c-0.0293 0-0.0507 5e-3 -0.0643 0.0194-0.0113 0.011-0.0169 0.0303-0.0169 0.0583v2.1152c0 0.0282 5e-3 0.0486 0.0169 0.0615 0.0135 0.011 0.0349 0.0162 0.0643 0.0162h0.30802c0.0293 0 0.0507-5e-3 0.0643-0.0162 0.0135-0.013 0.0203-0.0334 0.0203-0.0615v-0.6683c0-0.0174 3e-3 -0.0292 7e-3 -0.0356 7e-3 -5e-3 0.0193-0.01 0.0374-0.01h0.32807c0.0226 0 0.0396 5e-3 0.051 0.01 0.0136 5e-3 0.0259 0.0185 0.0372 0.0359l0.43307 0.6551c0.0248 0.0345 0.0486 0.0586 0.0713 0.0715 0.0248 0.0129 0.0586 0.0194 0.1014 0.0194h0.33843c0.0496 0 0.0746-0.014 0.0746-0.0421 0-0.0174-8e-3 -0.0368-0.0239-0.0586l-0.55159-0.80112c0.13536-0.0563 0.24145-0.13745 0.31815-0.24342 0.0767-0.10823 0.11514-0.24214 0.11514-0.40219 0-0.23788-0.0814-0.41736-0.2438-0.53847-0.16243-0.12327-0.40608-0.1849-0.73094-0.1849zm-15.703 0.38274c0.10604 0 0.19729 0.0304 0.274 0.091 0.07667 0.0605 0.13537 0.14696 0.17598 0.25941 0.04065 0.1125 0.06111 0.24648 0.06111 0.40219 0 0.14706-0.02159 0.27805-0.06443 0.39267-0.04064 0.1125-0.09928 0.20101-0.17598 0.26588-0.07667 0.0626-0.16683 0.0942-0.27061 0.0942-0.10379 0-0.19413-0.0304-0.27083-0.091-0.07667-0.0605-0.13537-0.14696-0.17598-0.25942-0.03838-0.1125-0.05744-0.24559-0.05744-0.39915 0-0.15571 0.01916-0.28973 0.05744-0.40219 0.04064-0.11457 0.09815-0.20208 0.1726-0.26264 0.07667-0.0605 0.16818-0.091 0.27422-0.091zm2.3398 0c0.10603 0 0.19729 0.0304 0.274 0.091 0.07667 0.0605 0.13537 0.14696 0.17597 0.25941 0.04056 0.1125 0.06103 0.24648 0.06103 0.40219 0 0.14706-0.02159 0.27805-0.06443 0.39267-0.04056 0.1125-0.09928 0.20101-0.17597 0.26588-0.07667 0.0626-0.16684 0.0942-0.27061 0.0942s-0.19413-0.0304-0.27084-0.091c-0.07667-0.0605-0.13537-0.14696-0.17597-0.25942-0.03838-0.1125-0.05744-0.24559-0.05744-0.39915 0-0.15571 0.01916-0.28973 0.05744-0.40219 0.04065-0.11457 0.09814-0.20208 0.1726-0.26264 0.07667-0.0605 0.16818-0.091 0.27422-0.091zm7.5882 0c0.17824 0 0.31467 0.0542 0.40941 0.16221 0.097 0.10823 0.14557 0.2596 0.14557 0.45424v0.094c0 0.0151-3e-3 0.0271-0.0102 0.0356-7e-3 5e-3 -0.0183 0.01-0.034 0.01h-1.0151c-0.018 0-0.0306-5e-3 -0.0374-0.01-7e-3 -5e-3 -0.0102-0.0184-0.0102-0.0356l2.2e-4 -0.0973c0-0.19248 0.0472-0.34286 0.14196-0.45099 0.097-0.10823 0.23367-0.16221 0.40963-0.16221zm-16.856 0.0389h0.27084c0.17823 0 0.31241 0.0294 0.40265 0.0876 0.09024 0.0584 0.13542 0.15233 0.13542 0.2821s-0.0463 0.22606-0.1388 0.28879c-0.0925 0.0627-0.22556 0.0942-0.39927 0.0942h-0.27084c-0.0158 0-0.02702-5e-3 -0.03379-0.01-0.0067-5e-3 -0.01021-0.0176-0.01021-0.0327v-0.66806c0-0.0151 0.0034-0.0262 0.01021-0.0327 0.0067-6e-3 0.01801-0.01 0.03379-0.01zm12.122 0h0.27061c0.17823 0 0.31241 0.0294 0.40265 0.0876 0.0902 0.0584 0.13542 0.15233 0.13542 0.2821s-0.0463 0.22606-0.1388 0.28879c-0.0925 0.0627-0.22555 0.0942-0.39927 0.0942h-0.27061c-0.0158 0-0.027-5e-3 -0.0338-0.01-7e-3 -5e-3 -0.0103-0.0176-0.0103-0.0327v-0.66806c0-0.0151 3e-3 -0.0262 0.0103-0.0327 7e-3 -6e-3 0.018-0.01 0.0338-0.01zm10.945 0h0.29765c0.16696 0 0.29215 0.0261 0.37562 0.078 0.0858 0.0497 0.12866 0.13184 0.12866 0.24645 0 0.1125-0.0406 0.19585-0.1219 0.24991-0.0812 0.054-0.20528 0.081-0.37223 0.081h-0.3078c-0.0181 0-0.0306-5e-3 -0.0374-0.01-4e-3 -5e-3 -7e-3 -0.0184-7e-3 -0.0356v-0.56763c0-0.0151 4e-3 -0.0262 0.0104-0.0327 7e-3 -6e-3 0.018-0.01 0.0338-0.01z" style="fill-opacity:.50196;fill:#000000;paint-order:markers stroke fill;stroke-linecap:butt;stroke-opacity:.6902;stroke-width:1.2914;stroke:#000000"/>
       </g>
      </g>
     </g>
     <path d="m50.852 145.29c-0.32302 0-0.6138 0.0694-0.87222 0.20801-0.25842 0.1386-0.46138 0.33178-0.60905 0.5795-0.14767 0.24478-0.22149 0.52035-0.22149 0.82705 0 0.30375 0.07217 0.57659 0.21676 0.8184 0.14767 0.24182 0.3492 0.43066 0.60454 0.56633 0.25842 0.13566 0.54778 0.20347 0.86772 0.20347 0.3261 0 0.61831-0.0678 0.87673-0.20347 0.26149-0.13861 0.46611-0.33042 0.61378-0.5752 0.14767-0.24476 0.22149-0.52034 0.22149-0.82703 0-0.30374-0.07382-0.57658-0.22149-0.81839-0.14459-0.24478-0.34612-0.435-0.60454-0.57066-0.25842-0.13861-0.5492-0.20801-0.87222-0.20801zm3.7994 0c-0.3261 0-0.61974 0.0678-0.88124 0.20346-0.26149 0.13566-0.46777 0.32748-0.61851 0.57521-0.15074 0.24476-0.226 0.52782-0.226 0.84927 0 0.30966 0.07382 0.58386 0.22149 0.82273 0.14767 0.23887 0.3492 0.42478 0.60454 0.55749 0.25842 0.12976 0.54303 0.1946 0.85375 0.1946 0.4307 0 0.84279-0.0958 1.2366-0.28749 0.03692-0.0176 0.06161-0.0371 0.07391-0.0577 0.01539-0.0237 0.02298-0.056 0.02298-0.0973v-1.0175c0-0.0384-0.0091-0.0648-0.0277-0.0794-0.01539-0.0176-0.04292-0.0265-0.08292-0.0265h-0.42451c-0.03999 0-0.06943 9e-3 -0.08788 0.0265-0.01539 0.0148-0.02298 0.0411-0.02298 0.0794v0.69895c0 0.0265-0.0046 0.0456-0.01374 0.0575-0.0061 0.0122-0.02325 0.0237-0.05092 0.0354-0.16612 0.0649-0.366 0.0974-0.59981 0.0974-0.19381 0-0.36923-0.0427-0.52613-0.1283-0.1569-0.0855-0.28152-0.20499-0.37381-0.35834-0.08921-0.15629-0.13384-0.3347-0.13384-0.53522 0-0.20053 0.0432-0.37894 0.12934-0.53523 0.08921-0.15631 0.21384-0.27871 0.37381-0.3672 0.15997-0.0883 0.34442-0.13262 0.55362-0.13262 0.29841 0 0.58611 0.0826 0.86298 0.24774 0.03384 0.0176 0.06162 0.0264 0.08314 0.0264 0.03077 0 0.05997-0.0192 0.08765-0.0575l0.18454-0.26978c0.02153-0.0295 0.03223-0.0561 0.03223-0.0797 0-0.0325-0.02303-0.0619-0.06917-0.0883-0.1569-0.10628-0.33683-0.19174-0.53987-0.2566-0.20304-0.0649-0.41692-0.0974-0.64149-0.0974zm-10.813 0.0532c-0.03999 0-0.0692 9e-3 -0.08765 0.0265-0.01539 0.0148-0.02321 0.0411-0.02321 0.0794v2.8842c0 0.0384 0.0079 0.0663 0.02321 0.0839 0.01845 0.0148 0.04766 0.0223 0.08765 0.0223h0.41978c0.03999 0 0.06943-7e-3 0.08788-0.0223 0.01846-0.0176 0.0275-0.0456 0.0275-0.0839v-0.75641c0-0.0205 0.0048-0.0354 0.01397-0.0443 0.0091-9e-3 0.02465-0.0132 0.04619-0.0132h0.36457c0.45838 0 0.80756-0.0944 1.0475-0.28318 0.23996-0.18873 0.35984-0.46292 0.35984-0.82271 0-0.71366-0.45695-1.0705-1.3706-1.0705zm3.0103 0c-0.03999 0-0.0692 9e-3 -0.08765 0.0265-0.01539 0.0148-0.02321 0.0415-0.02321 0.0797v2.8842c0 0.0384 0.0079 0.0663 0.02321 0.084 0.01845 0.0148 0.04766 0.022 0.08765 0.022h1.8643c0.03999 0 0.06754-6e-3 0.08292-0.022 0.01845-0.0176 0.0277-0.0456 0.0277-0.084v-0.36287c0-0.0383-0.0091-0.0648-0.0277-0.0796-0.01539-0.0176-0.04292-0.0265-0.08292-0.0265h-1.269c-0.02154 0-0.03697-5e-3 -0.04619-0.0134-0.0091-9e-3 -0.01396-0.0237-0.01396-0.0443v-2.3576c0-0.0383-0.0091-0.065-0.0277-0.0797-0.01845-0.0176-0.04766-0.0265-0.08765-0.0265zm9.8369 0c-0.03999 0-0.0692 9e-3 -0.08765 0.0265-0.01539 0.0148-0.02298 0.0415-0.02298 0.0797v1.672c0 0.30671 0.05675 0.56178 0.17057 0.76527 0.1169 0.20347 0.27855 0.35526 0.48467 0.45553 0.20612 0.1003 0.4461 0.15055 0.71991 0.15055 0.27995 0 0.52588-0.0516 0.73815-0.15485 0.21535-0.10323 0.38317-0.25798 0.50315-0.4644 0.12306-0.20645 0.18454-0.46017 0.18454-0.76095v-1.6632c0-0.0383-0.0091-0.065-0.0277-0.0797-0.01845-0.0176-0.04766-0.0265-0.08765-0.0265h-0.42c-0.03999 0-0.0692 9e-3 -0.08765 0.0265-0.01539 0.0148-0.02298 0.0415-0.02298 0.0797v1.6323c0 0.26542-0.06623 0.47181-0.19851 0.61925-0.12921 0.14451-0.31531 0.21664-0.55835 0.21664-0.24611 0-0.43365-0.0722-0.56286-0.21664-0.12613-0.14744-0.18927-0.35542-0.18927-0.62378v-1.6277c0-0.0383-0.0091-0.065-0.02772-0.0797-0.01845-0.0176-0.04766-0.0265-0.08765-0.0265zm3.529 0c-0.03999 0-0.0692 9e-3 -0.08765 0.0265-0.01539 0.0148-0.02298 0.0415-0.02298 0.0797v2.884c0 0.0383 0.0076 0.0666 0.02298 0.0843 0.01845 0.0148 0.04766 0.0221 0.08765 0.0221h1.8551c0.03999 0 0.06943-6e-3 0.08788-0.0221 0.01845-0.0176 0.0275-0.0459 0.0275-0.0843v-0.36266c0-0.0383-0.0091-0.065-0.0275-0.0797-0.01845-0.0176-0.04789-0.0264-0.08788-0.0264h-1.2598c-0.02153 0-0.03674-5e-3 -0.04596-0.0134-0.0091-9e-3 -0.01397-0.0237-0.01397-0.0443v-0.57951c0-0.0236 0.0048-0.0384 0.01397-0.0443 0.0091-9e-3 0.02443-0.0132 0.04596-0.0132h1.0984c0.03999 0 0.0692-6e-3 0.08765-0.0221 0.01846-0.0176 0.0277-0.0459 0.0277-0.0843v-0.35813c0-0.0383-0.0091-0.0665-0.0277-0.0843-0.01845-0.0176-0.04766-0.0265-0.08765-0.0265h-1.0984c-0.02153 0-0.03674-5e-3 -0.04596-0.0134-0.0091-9e-3 -0.01397-0.0237-0.01397-0.0443v-0.56158c0-0.0206 0.0048-0.0354 0.01397-0.0443 0.0091-9e-3 0.02443-0.0134 0.04596-0.0134h1.2553c0.03999 0 0.0692-6e-3 0.08765-0.0221 0.01846-0.0176 0.0277-0.0456 0.0277-0.0839v-0.36265c0-0.0383-0.0091-0.065-0.0277-0.0797-0.01845-0.0176-0.04766-0.0265-0.08765-0.0265zm-9.3673 0.52204c0.19074 0 0.3645 0.0426 0.5214 0.12808 0.15997 0.0855 0.28459 0.20795 0.37381 0.36721 0.0923 0.15629 0.13835 0.33469 0.13835 0.53522 0 0.19464-0.04606 0.37031-0.13835 0.52658-0.09229 0.15632-0.21857 0.27853-0.37854 0.367-0.1569 0.0855-0.33066 0.1283-0.5214 0.1283-0.19381 0-0.36923-0.0427-0.52613-0.1283-0.15382-0.0883-0.27536-0.20931-0.36457-0.36266-0.08921-0.15629-0.13362-0.33334-0.13362-0.53092 0-0.20053 0.04441-0.37893 0.13362-0.53522 0.0923-0.15632 0.21548-0.27715 0.3693-0.36266 0.1569-0.0883 0.33232-0.13263 0.52613-0.13263zm-6.4136 0.053h0.36908c0.24303 0 0.42606 0.0399 0.54911 0.11945 0.12306 0.0796 0.18454 0.20796 0.18454 0.38491 0 0.17694-0.06291 0.30824-0.18904 0.39376-0.12613 0.0855-0.30772 0.12829-0.5446 0.12829h-0.36908c-0.02154 0-0.03697-5e-3 -0.04619-0.0134-0.0091-9e-3 -0.01397-0.0237-0.01397-0.0443v-0.91105c0-0.0206 0.0048-0.0355 0.01397-0.0443 0.0091-9e-3 0.02466-0.0134 0.04619-0.0134z" style="fill:#aaaeaa;paint-order:markers stroke fill;stroke:none"/>
     <path d="m64.677 145.72c-0.16469 0-0.31258 0.0281-0.44344 0.0843-0.12859 0.054-0.23018 0.13422-0.30463 0.24018-0.07219 0.10383-0.10816 0.22813-0.10816 0.37302 0 0.12977 0.02809 0.23792 0.0845 0.32443 0.05866 0.0865 0.14114 0.15674 0.24718 0.21081 0.10829 0.0542 0.24472 0.10054 0.40941 0.13954 0.12408 0.0303 0.21871 0.0583 0.28413 0.0843 0.06768 0.026 0.11623 0.0553 0.14556 0.0876 0.02933 0.0324 0.04416 0.0744 0.04416 0.12636 0 0.08-0.0362 0.14379-0.10838 0.19137-0.07219 0.0454-0.17491 0.0683-0.30802 0.0683-0.10603 0-0.21077-0.0183-0.31455-0.0551-0.10153-0.039-0.19525-0.0909-0.28098-0.15573-0.02257-0.0195-0.04279-0.0294-0.06084-0.0294-0.0091 0-0.01937 5e-3 -0.03065 0.013-0.0091 5e-3 -0.01802 0.0165-0.02703 0.0294l-0.14196 0.21081c-0.01804 0.0282-0.02727 0.0486-0.02727 0.0615 0 0.0195 0.01595 0.0412 0.04754 0.065 0.10829 0.0865 0.23348 0.15458 0.37561 0.20433 0.14213 0.0497 0.29429 0.0746 0.45673 0.0746 0.17823 0 0.33624-0.0279 0.47386-0.0843 0.13762-0.0584 0.24483-0.1407 0.32153-0.24666 0.07671-0.10604 0.11492-0.23136 0.11492-0.37626 0-0.12328-0.02809-0.22712-0.0845-0.31147-0.05416-0.0865-0.13663-0.15783-0.24718-0.21404-0.11055-0.0583-0.2526-0.10823-0.42631-0.14925-0.11506-0.0282-0.20406-0.0539-0.26723-0.0777-0.06092-0.0238-0.10722-0.0531-0.1388-0.0876-0.03158-0.0346-0.04731-0.0787-0.04731-0.13285 0-0.0756 0.03146-0.13623 0.09464-0.18164 0.06543-0.0454 0.15353-0.0683 0.26408-0.0683 0.09927 0 0.19389 0.0173 0.28413 0.0519 0.09025 0.0345 0.18172 0.0832 0.27422 0.146 0.02482 0.0174 0.04505 0.0259 0.06085 0.0259 0.02032 0 0.0394-0.014 0.05746-0.0422l0.14218-0.21404c0.0158-0.0216 0.02365-0.041 0.02365-0.0584 0-0.0216-0.01236-0.0412-0.03718-0.0584-0.23463-0.17951-0.50187-0.26914-0.80192-0.26914zm4.5896 0c-0.23914 0-0.45446 0.052-0.64622 0.15573-0.18951 0.10164-0.33965 0.24211-0.45019 0.42161-0.10829 0.17951-0.16246 0.3816-0.16246 0.60652 0 0.22059 0.05417 0.41967 0.16246 0.597 0.10829 0.17733 0.25618 0.31675 0.44344 0.41839 0.18951 0.0994 0.39921 0.14925 0.62933 0.14925 0.16469 0 0.3227-0.0259 0.47385-0.0777 0.15115-0.054 0.28758-0.12991 0.40941-0.22721 0.01582-0.0131 0.02701-0.0248 0.03383-0.0356 7e-3 -0.011 0.01021-0.0215 0.01021-0.0325 0-0.013-7e-3 -0.0292-0.02028-0.0486l-0.14894-0.20434c-0.01801-0.0238-0.03602-0.0359-0.05407-0.0359-0.01804 0-0.03961 0.01-0.06444 0.0294-0.18274 0.14059-0.3902 0.21082-0.62256 0.21082-0.14438 0-0.27408-0.0326-0.38913-0.0974-0.11506-0.0649-0.20631-0.15343-0.27399-0.26589-0.06542-0.11458-0.09823-0.24346-0.09823-0.3862 0-0.14706 0.03282-0.27784 0.09823-0.39245 0.06768-0.11469 0.15893-0.20318 0.27399-0.26591 0.11731-0.0649 0.247-0.0974 0.38913-0.0974 0.11279 0 0.22114 0.0183 0.32492 0.0551 0.10378 0.0367 0.20088 0.0876 0.29112 0.1525 0.02483 0.0175 0.04505 0.0259 0.06084 0.0259 0.02033 0 0.04055-0.0129 0.06085-0.0389l0.14894-0.20109c0.01582-0.0216 0.02369-0.04 0.02369-0.0551 9e-6 -9e-3 -0.0035-0.0174-0.01021-0.0259-7e-3 -0.011-0.01573-0.0218-0.02702-0.0327-0.11957-0.0931-0.25264-0.16647-0.39928-0.22053-0.14664-0.054-0.3024-0.081-0.4671-0.081zm4.118 0c-0.20078 0-0.37678 0.0487-0.52793 0.146-0.1489 0.0952-0.26511 0.23241-0.34857 0.41192-0.08121 0.17731-0.1219 0.38718-0.1219 0.6294 0 0.24004 0.04064 0.44754 0.1219 0.62271 0.08122 0.17518 0.19629 0.30919 0.34519 0.40218 0.15115 0.0909 0.32715 0.13629 0.52793 0.13629 0.20079 0 0.37678-0.0476 0.52793-0.14278 0.15116-0.0952 0.26736-0.23132 0.34858-0.40865 0.08348-0.17951 0.12505-0.39044 0.12505-0.63266 0-0.23788-0.04161-0.44429-0.12505-0.61947-0.08121-0.17516-0.19743-0.30918-0.34858-0.40217-0.14889-0.0952-0.32376-0.14277-0.52455-0.14277zm2.3398 0c-0.20079 0-0.37678 0.0487-0.52794 0.146-0.14889 0.0952-0.2651 0.23241-0.34857 0.41192-0.08121 0.17731-0.1219 0.38718-0.1219 0.6294 0 0.24004 0.04064 0.44754 0.1219 0.62271 0.08121 0.17518 0.1963 0.30919 0.3452 0.40218 0.15116 0.0909 0.32715 0.13629 0.52793 0.13629 0.20078 0 0.37678-0.0476 0.52793-0.14278 0.15115-0.0952 0.26736-0.23132 0.34857-0.40865 0.08348-0.17951 0.12505-0.39044 0.12505-0.63266 0-0.23788-0.04162-0.44429-0.12505-0.61947-0.08121-0.17516-0.19742-0.30918-0.34857-0.40217-0.1489-0.0952-0.32376-0.14277-0.52455-0.14277zm7.5913 0c-0.20304 0-0.3824 0.0388-0.53806 0.11664-0.15567 0.0756-0.27749 0.19032-0.36548 0.34387-0.08575 0.15353-0.12843 0.34185-0.12843 0.5646v1.2068c0 0.0282 0.0053 0.0486 0.01687 0.0615 0.01355 0.011 0.03487 0.0162 0.06425 0.0162h0.30801c0.02928 0 0.0507-5e-3 0.06425-0.0162 0.01355-0.013 0.02028-0.0334 0.02028-0.0615v-0.59054c0-0.0174 0.0035-0.0292 0.01021-0.0356 7e-3 -5e-3 0.01932-0.01 0.03742-0.01h1.0151c0.01582 0 0.02701 5e-3 0.03383 0.01 7e-3 5e-3 0.01021 0.0184 0.01021 0.0356v0.59054c0 0.0282 0.0061 0.0486 0.01713 0.0615 0.01355 0.011 0.03487 0.0162 0.06425 0.0162h0.30802c0.02928 0 0.0507-5e-3 0.06425-0.0162 0.01355-0.013 0.02028-0.0334 0.02028-0.0615v-1.2068c0-0.22708-0.04407-0.41646-0.13204-0.56783-0.08575-0.15356-0.2053-0.26818-0.35871-0.34387-0.1534-0.0756-0.33052-0.11335-0.5313-0.11335zm-17.299 0.0389c-0.02933 0-0.05067 5e-3 -0.06422 0.0194-0.01129 0.011-0.0169 0.0303-0.0169 0.0583v2.1152c0 0.0282 0.0056 0.0486 0.0169 0.0615 0.01354 0.011 0.03489 0.0162 0.06422 0.0162h0.30802c0.02934 0 0.05067-5e-3 0.06422-0.0162 0.01354-0.013 0.02028-0.0334 0.02028-0.0615v-0.55491c0-0.0151 0.0034-0.0259 0.01021-0.0325 0.0067-5e-3 0.01801-0.01 0.03379-0.01h0.26746c0.33615 0 0.59216-0.0692 0.76813-0.20756 0.17597-0.13842 0.26408-0.33966 0.26408-0.60351 0-0.52335-0.33512-0.78493-1.0052-0.78493zm4.4481 0c-0.03156 0-0.05429 5e-3 -0.06783 0.0194-0.01355 0.0131-0.02028 0.0345-0.02028 0.0648v0.25314c0 0.0303 7e-3 0.0517 0.02028 0.0648 0.01355 0.013 0.0362 0.0194 0.06783 0.0194h1.1099l-0.83257 1.742c-0.01129 0.0216-0.01687 0.0425-0.01687 0.0617 0 0.0151 7e-3 0.0271 0.02028 0.0356 0.01355 5e-3 0.034 0.01 0.06111 0.01h0.31455c0.0361 0 0.06216-5e-3 0.07798-0.0194 0.01801-0.0129 0.03602-0.0379 0.05411-0.0747l0.95763-2.0535c0.01355-0.0303 0.02028-0.053 0.02028-0.0681 0-0.0194-0.0079-0.0334-0.02369-0.0422-0.01582-9e-3 -0.03943-0.0131-0.07099-0.0131zm7.6736 0c-0.02928 0-0.05071 5e-3 -0.06425 0.0194-0.01129 0.011-0.01688 0.0303-0.01688 0.0583v2.1152c0 0.0282 0.0053 0.0486 0.01688 0.0615 0.01355 0.011 0.03487 0.0162 0.06425 0.0162h0.30802c0.02928 0 0.05071-5e-3 0.06425-0.0162 0.01355-0.013 0.02028-0.0334 0.02028-0.0615v-0.55491c0-0.0151 0.0035-0.0259 0.01021-0.0325 7e-3 -5e-3 0.01801-0.01 0.03383-0.01h0.26723c0.33615 0 0.59216-0.0692 0.76812-0.20756 0.17597-0.13842 0.26408-0.33966 0.26408-0.60351 0-0.52335-0.33513-0.78493-1.0052-0.78493zm2.2077 0c-0.02928 0-0.05088 5e-3 -0.06443 0.0194-0.01129 0.011-0.01687 0.0303-0.01687 0.0583v2.1152c0 0.0282 0.0053 0.0486 0.01687 0.0615 0.01355 0.011 0.03515 0.0162 0.06443 0.0162h1.367c0.02928 0 0.04983-5e-3 0.06103-0.0162 0.01355-0.013 0.02028-0.0334 0.02028-0.0615v-0.26612c0-0.0282-7e-3 -0.0475-0.02028-0.0583-0.01129-0.0131-0.03174-0.0195-0.06103-0.0195h-0.93058c-0.01582 0-0.02701-5e-3 -0.03383-0.01-7e-3 -5e-3 -0.01021-0.0173-0.01021-0.0323v-1.729c0-0.0282-7e-3 -0.0475-0.02028-0.0583-0.01355-0.0129-0.03515-0.0195-0.06443-0.0195zm4.3088 0c-0.0451 0-0.06758 0.0129-0.06758 0.0389 0 0.0151 0.0053 0.0312 0.01687 0.0486l0.84609 1.3528v0.75252c0 0.0282 0.0053 0.0489 0.01687 0.0617 0.01355 0.011 0.03487 0.0162 0.06425 0.0162h0.30801c0.02928 0 0.05071-5e-3 0.06425-0.0162 0.01355-0.013 0.02028-0.0337 0.02028-0.0617v-0.76872l0.83595-1.3366c0.01129-0.0174 0.01687-0.0334 0.01687-0.0486 0-0.026-0.02132-0.0389-0.06425-0.0389h-0.33506c-0.04056 0-0.07003 5e-3 -0.08811 0.0162-0.01801 0.011-0.03829 0.0334-0.06084 0.0681l-0.54146 0.90199-0.53469-0.90199c-0.02256-0.0345-0.04389-0.0572-0.06425-0.0681-0.01801-0.011-0.04634-0.0162-0.08471-0.0162zm2.4657 0c-0.02928 0-0.05071 5e-3 -0.06425 0.0194-0.01129 0.011-0.01688 0.0303-0.01688 0.0583v2.1152c0 0.0282 0.0053 0.0486 0.01688 0.0615 0.01355 0.011 0.03487 0.0162 0.06425 0.0162h1.3605c0.02928 0 0.0507-5e-3 0.06425-0.0162 0.01355-0.013 0.02028-0.0334 0.02028-0.0615v-0.26612c0-0.0282-7e-3 -0.0475-0.02028-0.0583-0.01355-0.0131-0.03487-0.0195-0.06425-0.0195h-0.92382c-0.01582 0-0.02702-5e-3 -0.03383-0.01-7e-3 -5e-3 -0.01033-0.0174-0.01033-0.0327v-0.42487c0-0.0174 0.0035-0.0281 0.01033-0.0324 7e-3 -6e-3 0.01801-0.01 0.03383-0.01h0.8053c0.02928 0 0.05088-5e-3 0.06442-0.0162 0.01355-0.0131 0.02028-0.0337 0.02028-0.0617v-0.26266c0-0.0282-7e-3 -0.0488-0.02028-0.0617-0.01355-0.013-0.03514-0.0194-0.06442-0.0194h-0.8053c-0.01582 0-0.02702-5e-3 -0.03383-0.01-7e-3 -5e-3 -0.01033-0.0173-0.01033-0.0323v-0.41191c0-0.0151 0.0035-0.0262 0.01033-0.0327 7e-3 -6e-3 0.01801-0.01 0.03383-0.01h0.92044c0.02928 0 0.0507-5e-3 0.06425-0.0162 0.01355-0.0131 0.02028-0.0334 0.02028-0.0615v-0.26609c0-0.0282-7e-3 -0.0475-0.02028-0.0583-0.01355-0.0131-0.03487-0.0194-0.06425-0.0194zm1.963 0c-0.02928 0-0.0507 5e-3 -0.06425 0.0194-0.01129 0.011-0.01687 0.0303-0.01687 0.0583v2.1152c0 0.0282 0.0053 0.0486 0.01687 0.0615 0.01355 0.011 0.03487 0.0162 0.06425 0.0162h0.30802c0.02928 0 0.05071-5e-3 0.06425-0.0162 0.01355-0.013 0.02028-0.0334 0.02028-0.0615v-0.6683c0-0.0174 0.0026-0.0292 7e-3 -0.0356 7e-3 -5e-3 0.01932-0.01 0.03742-0.01h0.32808c0.02256 0 0.0396 5e-3 0.05096 0.01 0.01355 5e-3 0.02588 0.0185 0.03716 0.0359l0.43307 0.6551c0.02483 0.0345 0.04859 0.0586 0.07125 0.0715 0.02483 0.0129 0.05858 0.0194 0.10139 0.0194h0.33843c0.04965 0 0.07458-0.014 0.07458-0.0421 0-0.0174-0.0079-0.0368-0.02387-0.0586l-0.55159-0.80112c0.13536-0.0563 0.24145-0.13745 0.31815-0.24342 0.07667-0.10823 0.11514-0.24214 0.11514-0.40219 0-0.23788-0.08138-0.41736-0.2438-0.53847-0.16243-0.12327-0.40608-0.1849-0.73094-0.1849zm-15.703 0.38274c0.10604 0 0.19729 0.0304 0.274 0.091 0.07667 0.0605 0.13537 0.14696 0.17597 0.25941 0.04065 0.1125 0.06111 0.24648 0.06111 0.40219 0 0.14706-0.0216 0.27805-0.06443 0.39267-0.04064 0.1125-0.09928 0.20101-0.17598 0.26588-0.07667 0.0626-0.16683 0.0942-0.27061 0.0942-0.10378 0-0.19413-0.0304-0.27083-0.091-0.07667-0.0605-0.13537-0.14696-0.17598-0.25942-0.03838-0.1125-0.05744-0.24559-0.05744-0.39915 0-0.15571 0.01915-0.28973 0.05744-0.40219 0.04064-0.11457 0.09815-0.20208 0.1726-0.26264 0.07667-0.0605 0.16818-0.091 0.27421-0.091zm2.3398 0c0.10603 0 0.19729 0.0304 0.274 0.091 0.07667 0.0605 0.13537 0.14696 0.17597 0.25941 0.04056 0.1125 0.06103 0.24648 0.06103 0.40219 0 0.14706-0.0216 0.27805-0.06443 0.39267-0.04056 0.1125-0.09928 0.20101-0.17597 0.26588-0.07667 0.0626-0.16684 0.0942-0.27061 0.0942s-0.19413-0.0304-0.27084-0.091c-0.07667-0.0605-0.13537-0.14696-0.17597-0.25942-0.03838-0.1125-0.05744-0.24559-0.05744-0.39915 0-0.15571 0.01915-0.28973 0.05744-0.40219 0.04065-0.11457 0.09814-0.20208 0.1726-0.26264 0.07667-0.0605 0.16818-0.091 0.27422-0.091zm7.5882 0c0.17823 0 0.31466 0.0542 0.40941 0.16221 0.09701 0.10823 0.14556 0.2596 0.14556 0.45424v0.094c0 0.0151-0.0035 0.0271-0.01021 0.0356-7e-3 5e-3 -0.01827 0.01-0.034 0.01h-1.0151c-0.01801 0-0.03059-5e-3 -0.03742-0.01-7e-3 -5e-3 -0.01021-0.0184-0.01021-0.0356l2.28e-4 -0.0973c0-0.19248 0.0472-0.34286 0.14195-0.45099 0.09701-0.10823 0.23367-0.16221 0.40964-0.16221zm-16.856 0.0389h0.27084c0.17823 0 0.31241 0.0294 0.40265 0.0876 0.09024 0.0584 0.13542 0.15233 0.13542 0.2821s-0.0463 0.22606-0.1388 0.28879c-0.0925 0.0627-0.22556 0.0942-0.39927 0.0942h-0.27084c-0.0158 0-0.02702-5e-3 -0.03379-0.01-0.0067-5e-3 -0.01021-0.0176-0.01021-0.0327v-0.66806c0-0.0151 0.0034-0.0262 0.01021-0.0327 0.0067-6e-3 0.01801-0.01 0.03379-0.01zm12.122 0h0.27061c0.17823 0 0.31241 0.0294 0.40265 0.0876 0.09024 0.0584 0.13542 0.15233 0.13542 0.2821s-0.04633 0.22606-0.1388 0.28879c-0.09249 0.0627-0.22555 0.0942-0.39927 0.0942h-0.27061c-0.01582 0-0.02701-5e-3 -0.03383-0.01-7e-3 -5e-3 -0.01033-0.0176-0.01033-0.0327v-0.66806c0-0.0151 0.0035-0.0262 0.01033-0.0327 7e-3 -6e-3 0.01801-0.01 0.03383-0.01zm10.945 0h0.29765c0.16695 0 0.29214 0.0261 0.37561 0.078 0.08576 0.0497 0.12866 0.13184 0.12866 0.24645 0 0.1125-0.04065 0.19585-0.1219 0.24991-0.08121 0.054-0.20528 0.081-0.37224 0.081h-0.30779c-0.0181 0-0.03059-5e-3 -0.03742-0.01-0.0043-5e-3 -7e-3 -0.0184-7e-3 -0.0356v-0.56763c0-0.0151 0.0035-0.0262 0.01033-0.0327 7e-3 -6e-3 0.01801-0.01 0.03383-0.01z" style="fill:#aaaeaa;paint-order:markers stroke fill;stroke:none"/>
    </g>
   </g>
  </g>
 </g>
</svg>
