<?xml version="1.0" encoding="UTF-8"?>
<svg width="49.729" height="4.9582" version="1.1" viewBox="0 0 13.157 1.3119" xmlns="http://www.w3.org/2000/svg" xmlns:cc="http://creativecommons.org/ns#" xmlns:dc="http://purl.org/dc/elements/1.1/" xmlns:rdf="http://www.w3.org/1999/02/22-rdf-syntax-ns#" xmlns:xlink="http://www.w3.org/1999/xlink">
 <defs>
  <linearGradient id="linearGradient1840">
   <stop style="stop-color:#ffffff;stop-opacity:.37647" offset="0"/>
   <stop style="stop-color:#ffffff;stop-opacity:.62745" offset="1"/>
  </linearGradient>
  <linearGradient id="linearGradient1842" x1="43.258" x2="45.311" y1="46.721" y2="41.873" gradientUnits="userSpaceOnUse" xlink:href="#linearGradient1840"/>
 </defs>
 <metadata>
  <rdf:RDF>
   <cc:Work rdf:about="">
    <dc:format>image/svg+xml</dc:format>
    <dc:type rdf:resource="http://purl.org/dc/dcmitype/StillImage"/>
    <dc:title/>
   </cc:Work>
  </rdf:RDF>
 </metadata>
 <g transform="translate(-28.929 -32.965)">
  <g transform="matrix(.29295 0 0 .19637 21.99 25.059)" style="fill:url(#linearGradient1842)" aria-label="PLOGUE">
   <path d="m23.685 46.754v-0.90981h0.77117q0.28594 0 0.28594-0.39858l-0.0087-3.6219q0-0.39858-0.26861-0.39858h-0.77984v-0.90981h5.0949q0.99646 0 1.577 0.48523 0.55455 0.45924 0.55455 1.1957 0 0.12997-0.01733 0.21662-0.01733 0.07798-0.01733 0.11264-0.10398 0.58054-0.50256 0.94447-0.39858 0.35526-1.1264 0.4939-0.1733 0.03466-0.39858 0.03466h-1.9929v1.447q0 0.21662 0.07798 0.3206 0.08665 0.09531 0.30327 0.09531l0.9358-0.0087v0.90114zm4.0898-3.6566q0.9618 0 1.0658-0.75384 0.0087-0.04332 0.0087-0.12131 0-0.48523-0.50256-0.75384-0.11264-0.06065-0.28594-0.07798-0.1733-0.026-0.4939-0.026h-0.71052v1.733z" style="fill:url(#linearGradient1842)"/>
   <path d="m30.979 46.754v-0.90114h0.62387l0.13864-0.0087h0.05199q0.13864 0 0.1733-0.28594l0.0087-0.11264v-3.6219q0-0.22529-0.04332-0.30327-0.04332-0.07798-0.16463-0.09531h-0.7885v-0.90981h4.1245v0.90981h-0.79716q-0.11264 0.01733-0.16463 0.10398-0.05199 0.07798-0.05199 0.2946v3.9772h0.65853q1.1091 0 1.4904-0.25994 0.38125-0.26861 0.38125-1.0484l0.01733-0.33793h1.1091v2.5995z" style="fill:url(#linearGradient1842)"/>
   <path d="m38.013 43.583q0-1.473 0.92714-2.3742 0.97046-0.94447 2.6514-0.94447 0.35526 0 0.76251 0.05199 1.2304 0.15597 1.9929 0.79717 0.77117 0.6412 0.94447 1.577 0.08665 0.45924 0.08665 0.91847 0 1.4817-0.95313 2.3915-0.94447 0.90114-2.6081 0.90114-0.37259 0-0.77984-0.05199-1.4644-0.18196-2.2615-1.0744-0.7625-0.85782-0.7625-2.1922zm4.0118 2.3655q0.45057-0.12131 0.75384-0.58054 0.34659-0.52856 0.34659-1.3344 0-1.421-0.39858-2.1402-0.38992-0.71918-1.0398-0.71918-0.13864 0-0.32926 0.04332-0.4939 0.12997-0.7885 0.69319-0.32926 0.63253-0.32926 1.6723 0 1.1871 0.42458 1.8283 0.38992 0.58921 1.0138 0.58921 0.16463 0 0.34659-0.05199z" style="fill:url(#linearGradient1842)"/>
   <path d="m51.163 41.009 0.1733-0.4939h1.0484v2.4088h-1.0484q0-0.09531-0.02599-0.18196-0.02599-0.08665-0.04332-0.13864-0.18196-0.60654-0.6152-0.89248-0.43324-0.2946-1.0831-0.2946-0.67586 0-1.0744 0.4939-0.43324 0.53722-0.43324 1.4817 0 1.2651 0.45057 1.9496 0.42458 0.6412 1.1611 0.6412 0.13864 0 0.24262-0.026 0.11264-0.02599 0.22529-0.07798 0.24262-0.10398 0.34659-0.23395 0.11264-0.12997 0.11264-0.26861v-0.60654l-0.01733-0.10398q-0.03466-0.20796-0.09531-0.25994-0.06065-0.05199-0.25994-0.05199l-0.42458 0.0087-0.18196-0.0087v-0.90981l3.7259 0.04332v0.90114l-0.36392 0.0087h-0.21662q-0.07798 0-0.13864 0.07798-0.08665 0.11264-0.08665 0.26861l-0.0087 0.05199v1.9583h-0.91847l-0.24262-0.62387-0.21662 0.20796q-0.35526 0.30327-0.79716 0.45057-0.44191 0.15597-1.0225 0.15597-0.39858 0-0.79717-0.06065-1.2997-0.1733-2.0709-1.0398-0.76251-0.86648-0.76251-2.1056 0-0.43324 0.11264-0.9358 0.12131-0.51122 0.4679-0.99646 0.35526-0.4939 0.90981-0.85782 0.24262-0.16463 0.50256-0.26861 0.26861-0.11264 0.6152-0.19063 0.51122-0.10398 0.95313-0.10398 0.60654 0 1.0744 0.16463 0.47657 0.15597 0.82316 0.45924z" style="fill:url(#linearGradient1842)"/>
   <path d="m53.47 41.425v-0.90981h4.0985v0.90981h-0.62387q-0.20796 0-0.28594 0.08665-0.06932 0.07798-0.06932 0.31194v2.6168l0.0087 0.38125q0 0.55455 0.26861 0.84915 0.27728 0.28594 0.84049 0.28594 0.10398 0 0.22529-0.0087t0.25128-0.03466q0.89248-0.15597 0.89248-0.95313l0.01733-0.26861v-2.8681q0-0.22529-0.03466-0.30327-0.03466-0.07798-0.13864-0.09531h-0.7625v-0.90981h3.1887v0.90981h-0.78849q-0.11264 0.01733-0.16463 0.10398-0.04332 0.08665-0.04332 0.2946v2.7034q0 1.0831-0.45057 1.6203-0.45057 0.53722-1.5077 0.71052-0.38125 0.05199-0.90981 0.05199-1.733 0-2.3742-0.56321-0.6412-0.56322-0.6412-1.9929v-2.5301q0-0.37259-0.21662-0.39858h-0.18196z" style="fill:url(#linearGradient1842)"/>
   <path d="m61.441 41.425v-0.90981h7.1572v2.3222h-1.0831v-0.30327q0-0.54588-0.36392-0.84049-0.35526-0.2946-1.1178-0.2946l-0.27728-0.0087h-1.1178v1.6636h0.37259q0.36392 0 0.54588-0.18196 0.18196-0.18196 0.18196-0.58921v-0.09531h0.97046v2.6515h-0.9358v-0.18196q0-0.3206-0.20796-0.51989-0.19929-0.20796-0.51989-0.20796h-0.40725v1.8889h1.2131q0.9618 0 1.3084-0.27728 0.35526-0.28594 0.35526-1.0571l0.0087-0.27728h1.0658v2.5475h-7.1485v-0.90981h0.82316q0.25128 0 0.25128-0.39858v-3.6219q0-0.21662-0.05199-0.2946-0.05199-0.08665-0.18196-0.10398h-0.19063z" style="fill:url(#linearGradient1842)"/>
  </g>
 </g>
</svg>
