<?xml version="1.0" encoding="UTF-8"?>
<svg width="86.14" height="19.865" version="1.1" viewBox="0 0 22.791 5.2559" xmlns="http://www.w3.org/2000/svg" xmlns:cc="http://creativecommons.org/ns#" xmlns:dc="http://purl.org/dc/elements/1.1/" xmlns:rdf="http://www.w3.org/1999/02/22-rdf-syntax-ns#" xmlns:xlink="http://www.w3.org/1999/xlink">
 <defs>
  <radialGradient id="radialGradient3834" cx="27.154" cy="47.864" r="9.8353" gradientTransform="matrix(1.1602 0 0 .2672 -.43455 44.309)" gradientUnits="userSpaceOnUse">
   <stop style="stop-color:#000000;stop-opacity:.12549" offset="0"/>
   <stop style="stop-color:#000000;stop-opacity:.25098" offset="1"/>
  </radialGradient>
 </defs>
 <metadata>
  <rdf:RDF>
   <cc:Work rdf:about="">
    <dc:format>image/svg+xml</dc:format>
    <dc:type rdf:resource="http://purl.org/dc/dcmitype/StillImage"/>
    <dc:title/>
   </cc:Work>
  </rdf:RDF>
 </metadata>
 <g transform="translate(-19.636 -54.47)">
  <path d="m23.042 54.57c5.4054.0022 10.811-.0044 16.216.0033 1.7465.01866 3.3178 1.3462 3.0822 2.7784-.14768 1.3869-1.8699 2.3916-3.5362 2.2643-5.3103-.0022-10.621.0044-15.931-.0033-1.7465-.01866-3.283-1.3423-3.0822-2.7784.18143-1.2981 1.6674-2.2915 3.2509-2.2643z" style="fill:url(#radialGradient3834);paint-order:stroke fill markers;stop-color:#000000"/>
  <path d="m19.735 57.03c.02159-1.1529 1.5574-2.2854 2.8443-2.253 5.6661.0016 11.332-.0577 16.998-.03662 1.2408.0046 2.6847 1.1719 2.6975 2.2896m-19.233-2.46c5.3953.0022 10.791-.0044 16.186.0033 1.7432.01866 3.3116 1.3462 3.0765 2.7784-.14741 1.3869-1.8664 2.3916-3.5296 2.2643-5.3004-.0022-10.601.0044-15.901-.0033-1.7432-.01866-3.3116-1.3462-3.0765-2.7784.14618-1.3014 1.6643-2.2915 3.2448-2.2643z" style="fill:none;paint-order:stroke fill markers;stop-color:#000000;stroke-linecap:round;stroke-opacity:.18824;stroke-width:.19844;stroke:#000000"/>
  <circle cx="22.467" cy="57.009" r="1.9946" style="fill-rule:evenodd;fill:#2b2e2e;mix-blend-mode:normal;paint-order:stroke fill markers;stop-color:#000000"/>
  <ellipse cx="22.477" cy="57.078" rx="2.356" ry="2.1326" style="fill-rule:evenodd;fill:#3d4045;mix-blend-mode:normal;paint-order:stroke fill markers;stop-color:#000000"/>
  <ellipse cx="22.451" cy="57.105" rx="2.152" ry="2.0647" style="fill-rule:evenodd;fill:#4d5055;mix-blend-mode:normal;paint-order:stroke fill markers;stop-color:#000000;stroke-linecap:round;stroke-opacity:.062745;stroke-width:.19844;stroke:#000000"/>
 </g>
</svg>
