<?xml version="1.0" encoding="UTF-8"?>
<svg width="20" height="20" version="1.1" viewBox="0 0 5.2917 5.2917" xmlns="http://www.w3.org/2000/svg" xmlns:cc="http://creativecommons.org/ns#" xmlns:dc="http://purl.org/dc/elements/1.1/" xmlns:rdf="http://www.w3.org/1999/02/22-rdf-syntax-ns#">
 <metadata>
  <rdf:RDF>
   <cc:Work rdf:about="">
    <dc:format>image/svg+xml</dc:format>
    <dc:type rdf:resource="http://purl.org/dc/dcmitype/StillImage"/>
    <dc:title/>
   </cc:Work>
  </rdf:RDF>
 </metadata>
 <g>
  <g transform="translate(.56447 -.12378)">
   <path transform="matrix(.26458 0 0 .26458 -.56447 .12378)" d="m9.9062 3a7 7 0 0 0-6.9062 7 7 7 0 0 0 7 7 7 7 0 0 0 7-7 7 7 0 0 0-7-7 7 7 0 0 0-0.09375 0zm-1.2559 4.3379 1.4707 1.4707 1.8984-1.4512 1.2656 1.2656-1.918 1.4336 1.4707 1.4707-1.4707 1.1348-1.4883-1.4902-1.918 1.4336-1.2461-1.2461 1.918-1.4336-1.4707-1.4707 1.4883-1.1172z" style="fill-opacity:.81569;fill:#ffffff;paint-order:stroke fill markers;stop-color:#000000;stroke-linecap:round;stroke-opacity:.25098;stroke-width:.99998;stroke:#ffffff"/>
  </g>
 </g>
</svg>
