<?xml version="1.0" encoding="UTF-8"?>
<svg width="20" height="20" version="1.1" viewBox="0 0 5.2917 5.2917" xmlns="http://www.w3.org/2000/svg" xmlns:cc="http://creativecommons.org/ns#" xmlns:dc="http://purl.org/dc/elements/1.1/" xmlns:rdf="http://www.w3.org/1999/02/22-rdf-syntax-ns#">
 <metadata>
  <rdf:RDF>
   <cc:Work rdf:about="">
    <dc:format>image/svg+xml</dc:format>
    <dc:type rdf:resource="http://purl.org/dc/dcmitype/StillImage"/>
    <dc:title/>
   </cc:Work>
  </rdf:RDF>
 </metadata>
 <g>
  <g transform="translate(.011693 -.093544)" style="fill-opacity:.25098;fill:#ffffff;stroke-opacity:.81569;stroke:#000000">
   <path d="m.68264.79431h2.451c.067235-.038002.50996.42623.57304.52034v3.3698c0 .1385-.1115.25-.25.25h-2.7741c-.1385 0-.25-.1115-.25-.25v-3.6402c0-.1385.1115-.25.25-.25z" style="fill-opacity:.25098;fill:#ffffff;paint-order:stroke fill markers;stop-color:#000000;stroke-opacity:.81569;stroke-width:.26458;stroke:#ffffff"/>
   <path d="m1.3421 3.998v-.93646" style="fill-opacity:.25098;fill:#ffffff;stroke-opacity:.81569;stroke-width:.26458;stroke:#ffffff"/>
   <path d="m2.0862 3.9855v-1.2893" style="fill-opacity:.25098;fill:#ffffff;stroke-opacity:.81569;stroke-width:.26458;stroke:#ffffff"/>
   <path d="m2.8634 3.9794v-1.9014" style="fill-opacity:.25098;fill:#ffffff;stroke-opacity:.81569;stroke-width:.26458;stroke:#ffffff"/>
  </g>
  <path d="m3.0146.83331v.39661c.00311.12956.063579.15974.16283.15912h.41134" style="fill:none;stroke-opacity:.81569;stroke-width:.26458px;stroke:#ffffff"/>
  <g transform="translate(1.2044 -.40762)" style="fill:none;stroke-opacity:.81569;stroke:#ffffff">
   <path d="m.43264.9303c0-.1385.1115-.13599.25-.13599h2.451c.067235-.038002.50996.42623.57304.52034v3.3698c0 .1385-.13892.25-.13892.25h-.73222" style="fill:none;paint-order:stroke fill markers;stop-color:#000000;stroke-opacity:.81569;stroke-width:.26458;stroke:#ffffff"/>
  </g>
  <path d="m4.2049.51834v.39661c.00311.12956.063579.15974.16283.15912h.41134" style="fill:none;stroke-opacity:.81569;stroke-width:.26458px;stroke:#ffffff"/>
 </g>
</svg>
