<?xml version="1.0" encoding="UTF-8"?>
<svg width="20" height="20" version="1.1" viewBox="0 0 5.2917 5.2917" xmlns="http://www.w3.org/2000/svg" xmlns:cc="http://creativecommons.org/ns#" xmlns:dc="http://purl.org/dc/elements/1.1/" xmlns:rdf="http://www.w3.org/1999/02/22-rdf-syntax-ns#">
 <metadata>
  <rdf:RDF>
   <cc:Work rdf:about="">
    <dc:format>image/svg+xml</dc:format>
    <dc:type rdf:resource="http://purl.org/dc/dcmitype/StillImage"/>
    <dc:title/>
   </cc:Work>
  </rdf:RDF>
 </metadata>
 <g>
  <path transform="scale(.26458)" d="m2.623 2.6484c-.52346 0-.94336.42185-.94336.94531v13.758c0 .52346.4199.94531.94336.94531h10.486c.52346 0 .94336-.42185.94336-.94531v-12.736c-.23841-.35569-1.9099-2.1104-2.1641-1.9668h-9.2656zm9.0781 1.0254.02734 1.1699 2.3241.027344-.0073 1.0039-2.2953-.027344c-.26535.015609-.56289.028857-.78906-.13477-.21043-.15979-.22632-.45485-.19141-.69531-.03522-1.0124.0035-1.664-.04883-2.3482l.98047-.0008885zm-1.3613 3.8359h1.0176v7.1777h-1.0176zm-2.9023 2.3281h1.0156v4.8535h-1.0156zm-2.8574 1.4043h1.0176v3.6113h-1.0176z" style="fill-opacity:.81569;fill:#ffffff;paint-order:stroke fill markers;stop-color:#000000"/>
  <g transform="translate(1.2044 -.40762)" style="fill:none;stroke-opacity:.81569;stroke:#ffffff">
   <path d="m.43264.9303c0-.1385.1115-.13599.25-.13599h2.451c.067235-.038002.50996.42623.57304.52034v3.3698c0 .1385-.13892.25-.13892.25h-.73222" style="fill:none;paint-order:stroke fill markers;stop-color:#000000;stroke-opacity:.81569;stroke-width:.26458;stroke:#ffffff"/>
  </g>
  <g transform="matrix(1.8652 0 0 1.7773 -3.7893 -.66929)" style="stroke-width:.54923">
   <path d="m4.3607.67084c-.068008-.002619-.16734-.002602-.16734-.002602l.01158.24671c.00311.12956.063579.15974.16283.15912h.2307l-.00499-.1652-.092001-.10258-.093751-.097652" style="color-rendering:auto;color:#000000;dominant-baseline:auto;fill-opacity:.81569;fill:#ffffff;font-feature-settings:normal;font-variant-alternates:normal;font-variant-caps:normal;font-variant-east-asian:normal;font-variant-ligatures:normal;font-variant-numeric:normal;font-variant-position:normal;font-variation-settings:normal;image-rendering:auto;inline-size:0;isolation:auto;mix-blend-mode:normal;shape-margin:0;shape-padding:0;shape-rendering:auto;solid-color:#000000;stop-color:#000000;text-decoration-color:#000000;text-decoration-line:none;text-decoration-style:solid;text-indent:0;text-orientation:mixed;text-transform:none;white-space:normal"/>
  </g>
 </g>
</svg>
