<?xml version="1.0" encoding="UTF-8"?>
<svg width="20" height="20" version="1.1" viewBox="0 0 5.2917 5.2917" xmlns="http://www.w3.org/2000/svg" xmlns:cc="http://creativecommons.org/ns#" xmlns:dc="http://purl.org/dc/elements/1.1/" xmlns:rdf="http://www.w3.org/1999/02/22-rdf-syntax-ns#">
 <metadata>
  <rdf:RDF>
   <cc:Work rdf:about="">
    <dc:format>image/svg+xml</dc:format>
    <dc:type rdf:resource="http://purl.org/dc/dcmitype/StillImage"/>
    <dc:title/>
   </cc:Work>
  </rdf:RDF>
 </metadata>
 <g transform="matrix(.89459 0 0 .89467 .27908 .2776)" style="fill-opacity:.81569;fill:#ffffff;stroke-opacity:.81569;stroke-width:.29575;stroke:#ffffff">
  <g transform="translate(0 .11533)" style="fill-opacity:.81569;fill:#ffffff;stroke-opacity:.81569;stroke-width:.29575;stroke:#ffffff">
   <g transform="matrix(1.5649 0 0 1.3761 -1.1954 -1.2238)" style="fill-opacity:.81569;fill:#ffffff;stroke-opacity:1;stroke:none" aria-label="?">
    <g transform="matrix(.91837 0 0 1 .20036 .19379)" style="stroke-width:.2103">
     <path d="m2.9163 2.7772c-0.25887-0.0087003-0.58475 0.010282-0.58475 0.010282l-0.24097 0.44876h-0.65026c0.2937-0.55213 0.49354-0.88233 0.62559-1.0186 0.068309-0.071527 0.196-0.067624 0.69899-0.076702 0.22274-0.011449 0.42792-0.00193 0.67952-0.00879 0 0 0.16318 0.031015 0.17482-0.35875 0.0042-0.3152-0.18613-0.33197-0.18613-0.33197-0.63297-0.013104-1.4753-0.00404-2.1084-0.00673h-0.51662l0.38122-0.61829c0.76118 0.00158 1.1412-0.003263 1.9024 0.002616 0.2745 0.015336 0.59542-0.003607 0.81608 0.1728 0.20175 0.20078 0.18707 0.54505 0.19298 0.81066-4.992e-4 0.30143 0.00286 0.66314-0.26934 0.84254-0.22336 0.15746-0.57111 0.12011-0.83005 0.13194-0.028349 1.849e-4 -0.056698 2.629e-4 -0.085047 2.631e-4z" style="fill-opacity:.81569;fill:#ffffff;stroke-width:.2103"/>
     <path d="m2.1218 3.6595h0.6644c-7e-3 0.67084 0.064949 0.59196-0.35001 0.59196-0.37767 0.00172-0.3039 0.073041-0.31439-0.59196z" style="fill-opacity:.81569;fill:#ffffff;paint-order:stroke fill markers;stop-color:#000000;stroke-width:.2103"/>
    </g>
   </g>
  </g>
 </g>
</svg>
