<?xml version="1.0" encoding="UTF-8"?>
<svg width="20" height="20" version="1.1" viewBox="0 0 5.2917 5.2917" xmlns="http://www.w3.org/2000/svg" xmlns:cc="http://creativecommons.org/ns#" xmlns:dc="http://purl.org/dc/elements/1.1/" xmlns:rdf="http://www.w3.org/1999/02/22-rdf-syntax-ns#">
 <metadata>
  <rdf:RDF>
   <cc:Work rdf:about="">
    <dc:format>image/svg+xml</dc:format>
    <dc:type rdf:resource="http://purl.org/dc/dcmitype/StillImage"/>
    <dc:title/>
   </cc:Work>
  </rdf:RDF>
 </metadata>
 <g transform="matrix(.89459 0 0 .89467 .27908 .2776)" style="fill-opacity:.81569;fill:#ffffff;stroke-opacity:.81569;stroke-width:.29575;stroke:#ffffff">
  <g transform="translate(0 .11533)" style="fill-opacity:.81569;fill:#ffffff;stroke-opacity:.81569;stroke-width:.29575;stroke:#ffffff">
   <rect x=".42743" y=".31373" width="4.4364" height="4.436" rx=".59152" ry=".59147" style="fill:none;paint-order:stroke fill markers;stop-color:#000000;stroke-linecap:round;stroke-opacity:.81569;stroke-width:.29575;stroke:#ffffff"/>
   <g transform="scale(1.0779 .92772)" style="fill-opacity:.81569;fill:#ffffff;stroke-opacity:1;stroke:none" aria-label="?">
    <g transform="matrix(.91837 0 0 1 .20036 .19379)" style="stroke-width:.30861">
     <path d="m2.9163 2.7772c-.25887-.0087003-.58475.010282-.58475.010282l-.24097.44876h-.65026c.2937-.55213.49354-.88233.62559-1.0186.068309-.071527.196-.067624.69899-.076702.22274-.011449.42792-.00193.67952-.00879 0 0 .16318.031015.17482-.35875.0042-.3152-.18613-.33197-.18613-.33197-.63297-.013104-1.4753-.00404-2.1084-.00673h-.51662v-.61829c.76118.00158 1.5224-.003263 2.2836.002616.2745.015336.59542-.003607.81608.1728.20175.20078.18707.54505.19298.81066-.0004992.30143.0028558.66314-.26934.84254-.22336.15746-.57111.12011-.83005.13194-.028349.0001849-.056698.0002629-.085047.0002631z" style="fill-opacity:.81569;fill:#ffffff"/>
     <path d="m1.4094 3.6595h.6644c-.007.67084.064949.59196-.35001.59196-.37767.00172-.3039.073041-.31439-.59196z" style="fill-opacity:.81569;fill:#ffffff;paint-order:stroke fill markers;stop-color:#000000"/>
    </g>
   </g>
  </g>
 </g>
</svg>
