<?xml version="1.0" encoding="UTF-8" standalone="no"?>
<svg
   xmlns:dc="http://purl.org/dc/elements/1.1/"
   xmlns:cc="http://creativecommons.org/ns#"
   xmlns:rdf="http://www.w3.org/1999/02/22-rdf-syntax-ns#"
   xmlns:svg="http://www.w3.org/2000/svg"
   xmlns="http://www.w3.org/2000/svg"
   xmlns:sodipodi="http://sodipodi.sourceforge.net/DTD/sodipodi-0.dtd"
   xmlns:inkscape="http://www.inkscape.org/namespaces/inkscape"
   inkscape:version="1.0 (4035a4fb49, 2020-05-01)"
   sodipodi:docname="steps_generate_close.svg"
   id="svg1111"
   viewBox="0 0 5.2917 5.2917"
   version="1.1"
   height="20"
   width="20">
  <defs
     id="defs1115" />
  <sodipodi:namedview
     inkscape:current-layer="g1109"
     inkscape:window-maximized="1"
     inkscape:window-y="308"
     inkscape:window-x="-8"
     inkscape:cy="4.9880179"
     inkscape:cx="15.923946"
     inkscape:zoom="26.728636"
     showgrid="false"
     id="namedview1113"
     inkscape:window-height="988"
     inkscape:window-width="1680"
     inkscape:pageshadow="2"
     inkscape:pageopacity="1"
     guidetolerance="10"
     gridtolerance="10"
     objecttolerance="10"
     borderopacity="1"
     bordercolor="#666666"
     pagecolor="#000000" />
  <metadata
     id="metadata1097">
    <rdf:RDF>
      <cc:Work
         rdf:about="">
        <dc:format>image/svg+xml</dc:format>
        <dc:type
           rdf:resource="http://purl.org/dc/dcmitype/StillImage" />
        <dc:title></dc:title>
      </cc:Work>
    </rdf:RDF>
  </metadata>
  <g
     id="g1109">
    <path
       transform="scale(0.264585)"
       d="M 1.375 1.375 L 1.375 18.625 L 18.625 18.625 L 18.625 1.375 L 1.375 1.375 z M 3.375 3.375 L 16.625 3.375 L 16.625 16.625 L 3.375 16.625 L 3.375 3.375 z "
       style="fill:#ffffff;fill-rule:evenodd;stroke:none;stroke-width:0.750001;stroke-linecap:round;stroke-opacity:0.852552;paint-order:stroke fill markers;stop-color:#000000;fill-opacity:0.81568629"
       id="rect1117" />
    <path
       sodipodi:nodetypes="ccccc"
       d="M 3.4396048,3.17502 H 3.9687747 V 3.968775 H 3.4396048 Z"
       style="fill:#ffffff;fill-opacity:0.81568629;fill-rule:evenodd;stroke:none;stroke-width:0.198439;stroke-linecap:round;stroke-opacity:0.852552;paint-order:stroke fill markers;stop-color:#000000"
       id="rect1147-2-3" />
    <path
       sodipodi:nodetypes="ssscsccccccccccccccc"
       d="m 1.2004368,3.5618676 c -0.026099,0.00687 -0.1393555,0.5769226 -0.1201259,0.5961454 0.01923,0.019223 0.3192301,-0.041315 0.3261,-0.067404 0.00413,-0.015665 -0.2094429,-0.00945 -0.2094429,-0.00945 0,0 0.013896,-0.5220305 0.00347,-0.5192872 z m 0.7839254,-0.6867883 -0.00863,0.7261866 0.2639144,-0.2300411 0.00234,-0.7496766 0.1236895,-0.1298479 0.6435211,0.01352 0.00701,0.1329999 0.828029,-0.8347471 -0.3903443,-0.3902056 z m 1.7061212,-1.6695411 0.380022,0.379887 C 4.1737383,1.4822272 4.2328728,1.3506452 4.2256109,1.2402954 4.2184018,1.1300402 4.1460302,1.0576942 4.0357358,1.0504877 3.9253468,1.0432284 3.793718,1.102342 3.6904834,1.2055382 Z"
       style="fill:#ffffff;fill-opacity:0.501961;fill-rule:evenodd;stroke:none;stroke-width:0.198438;stroke-linecap:round;stroke-opacity:0.852552;paint-order:stroke fill markers;stop-color:#000000"
       id="rect1129" />
    <path
       id="rect1147-2-3-8"
       style="fill:#ffffff;fill-opacity:0.81568629;fill-rule:evenodd;stroke:none;stroke-width:0.198438;stroke-linecap:round;stroke-opacity:0.852552;paint-order:stroke fill markers;stop-color:#000000"
       d="m 1.322925,1.322925 h 0.52917 v 2.6458499 h -0.52917 z"
       sodipodi:nodetypes="ccccc" />
    <path
       sodipodi:nodetypes="ccccc"
       d="m 2.381265,2.64585 h 0.52917 v 1.322925 h -0.52917 z"
       style="fill:#ffffff;fill-opacity:0.81568629;fill-rule:evenodd;stroke:none;stroke-width:0.198438;stroke-linecap:round;stroke-opacity:0.852552;paint-order:stroke fill markers;stop-color:#000000"
       id="rect1147-2-3-8-9" />
  </g>
</svg>
