<?xml version="1.0" encoding="UTF-8"?>
<svg width="20.365mm" height="3.6813mm" version="1.1" viewBox="0 0 20.365 3.6813" xmlns="http://www.w3.org/2000/svg" xmlns:cc="http://creativecommons.org/ns#" xmlns:dc="http://purl.org/dc/elements/1.1/" xmlns:rdf="http://www.w3.org/1999/02/22-rdf-syntax-ns#">
 <metadata>
  <rdf:RDF>
   <cc:Work rdf:about="">
    <dc:format>image/svg+xml</dc:format>
    <dc:type rdf:resource="http://purl.org/dc/dcmitype/StillImage"/>
    <dc:title/>
   </cc:Work>
  </rdf:RDF>
 </metadata>
 <g transform="matrix(.01 0 0 .01 0 -.31871)" fill="#fff" fill-opacity=".62745">
  <path d="m268 367 49-34 18 34c17 31 21 33 71 33h54l-45-72-45-73 10-60c5-33 10-79 10-102v-43h-380v80h313l-7 47c-8 64-35 106-76 120-19 7-81 12-137 12l-103 1v90h109c107 0 110-1 159-33zm713.75 1c27-18 62-52 79-76 28-40 30-51 33-143l4-99h-372v80h302l-4 55c-8 98-54 125-213 125h-105v90h114c112 0 115-1 162-32zm348 21c14-7 29-24 35-39 8-25 15-29 70-35 36-4 71-15 86-27 23-18 25-26 25-94v-74h-370v89l157 3c149 3 156 4 139 21-12 11-33 17-64 17-53 0-60 4-85 43-16 24-23 27-77 27h-60v80h60c32 0 70-5 84-11zm706-24v-35s-78.026-11.78-225-30c-88-11-172-22-187-25-14.213-2.1057-27.067-3.2046-27.067-3.2046s-.9329 20.03-.9329 37.205v39l98 12c53 6 140 18 192 25 88.81 11.609 150 15 150 15zm0-125v-33.871l-185-23.129c-99-12-197-24-217-26l-38-5v76l98 11c53 7 144 18 202 25 87.501 11.364 140 16 140 16s1.7272-21.432 0-40zm0-115v-35s-60-10-219.52-29.734c-88-11-176.82-22.932-192.48-25.266-11.89-1.7615-27.336-3.1287-27.336-3.1287s-.6635 16.982-.6635 37.129v39l98 12c53 6 140 18 192 25 96.612 12.629 150 21.236 150 21.236z"/>
  <rect x="470" y="180" width="190" height="80" stroke-width="12.996"/>
 </g>
</svg>
