<?xml version="1.0" encoding="UTF-8"?>
<svg width="12.073mm" height="1.722mm" version="1.1" viewBox="0 0 12.073 1.722" xmlns="http://www.w3.org/2000/svg" xmlns:cc="http://creativecommons.org/ns#" xmlns:dc="http://purl.org/dc/elements/1.1/" xmlns:rdf="http://www.w3.org/1999/02/22-rdf-syntax-ns#">
 <metadata>
  <rdf:RDF>
   <cc:Work rdf:about="">
    <dc:format>image/svg+xml</dc:format>
    <dc:type rdf:resource="http://purl.org/dc/dcmitype/StillImage"/>
    <dc:title/>
   </cc:Work>
  </rdf:RDF>
 </metadata>
 <g transform="translate(-57.456 -54.117)">
  <g transform="matrix(.53114 0 0 .47877 27.553 27.737)" style="fill:#f5f5f5;stroke-opacity:.50196;stroke-width:.26234;stroke:#000000" aria-label="1x / 1.5x">
   <path d="m56.432 56.371v-0.41291h0.16872q0.31968 0 0.56831-0.2886l0.0444-0.05328 0.03552-0.03996h0.69707v2.3132q0 0.08436 0.01776 0.11544 0.0222 0.02664 0.07992 0.03552h0.34188v0.46619h-1.9403v-0.46175h0.31968l0.05328-0.0044h0.03552q0.05772 0 0.08436-0.0444t0.02664-0.15984v-1.4652z" style="fill:#f5f5f5;stroke-opacity:.50196;stroke-width:.26234;stroke:#000000"/>
   <path d="m59.017 58.507v-0.43067h0.19092q0.07992 0 0.12432-0.01332 0.04884-0.01332 0.1332-0.0666l0.0444-0.03108 0.03552-0.03108 0.08436-0.0666 0.51059-0.43067-0.54167-0.51947-0.01332-0.01332-0.0888-0.08436q-0.06216-0.06216-0.11544-0.08436-0.04884-0.02664-0.111-0.02664h-0.1554v-0.43955h1.6605v0.44843h-0.09324q-0.07548 0.01332-0.04884 0.06216l0.03108 0.0444 0.08436 0.10212 0.13764 0.15984 0.15096-0.16428 0.09768-0.09768 0.03552-0.04884q0.01332-0.01776-0.0044-0.03552-0.0222-0.01776-0.0444-0.0222l-0.01332-0.0044h-0.0888v-0.44399h1.1499v0.44843h-0.09768q-0.07992 0-0.09324 0.0044-0.03996 0.0222-0.05772 0.03552l-0.06216 0.0444-0.03552 0.0222-0.03552 0.03108-0.0888 0.07104-0.47951 0.39515 0.57275 0.54611 0.11544 0.09768 0.05772 0.0444 0.03108 0.02664q0.03996 0.02664 0.07104 0.03552 0.03108 0.0044 0.07548 0.0044h0.11544v0.43067h-1.7049v-0.43067h0.04884l0.08436-0.0089q0.04884-0.01332 0.04884-0.05328 0-0.02664-0.01776-0.04884l-0.0666-0.09768-0.1554-0.18648-0.1776 0.18648-0.03108 0.03108-0.06216 0.0666q-0.02664 0.03552-0.02664 0.05328 0 0.02664 0.03552 0.04884l0.0089 0.0089h0.0888v0.43067z" style="fill:#f5f5f5;stroke-opacity:.50196;stroke-width:.26234;stroke:#000000"/>
   <path d="m63.576 58.507 2.6329-3.2767h0.41291l-2.6196 3.2767z" style="fill:#f5f5f5;stroke-opacity:.50196;stroke-width:.26234;stroke:#000000"/>
   <path d="m68.624 56.371v-0.41291h0.16872q0.31968 0 0.56831-0.2886l0.0444-0.05328 0.03552-0.03996h0.69707v2.3132q0 0.08436 0.01776 0.11544 0.0222 0.02664 0.07992 0.03552h0.34188v0.46619h-1.9402v-0.46175h0.31968l0.05328-0.0044h0.03552q0.05772 0 0.08436-0.0444t0.02664-0.15984v-1.4652z" style="fill:#f5f5f5;stroke-opacity:.50196;stroke-width:.26234;stroke:#000000"/>
   <path d="m71.334 58.169q0-0.16872 0.1332-0.30192t0.35075-0.1332q0.20868 0 0.36408 0.14652 0.11988 0.11544 0.11988 0.27528 0 0.18648-0.15096 0.29748-0.14652 0.111-0.33743 0.111-0.20424 0-0.34188-0.11544-0.13764-0.11544-0.13764-0.27972z" style="fill:#f5f5f5;stroke-opacity:.50196;stroke-width:.26234;stroke:#000000"/>
   <path d="m73.162 58.027q0.20868 0.12876 0.45731 0.12876 0.333 0 0.53279-0.16428 0.1998-0.16428 0.222-0.38627 0.0044-0.03108 0.0044-0.09324 0-0.27084-0.17316-0.43067-0.17316-0.15984-0.47951-0.15984l-0.12876 0.01332q-0.111 0.0222-0.18648 0.0666-0.07104 0.0444-0.111 0.10656h-0.47947l0.07104-1.5407q0.222 0.02664 0.48839 0.04884 0.27084 0.0222 0.47951 0.0222 0.47951 0 0.74591-0.0089t0.64823-0.08436q-0.05328 0.34188-0.43511 0.49283-0.38183 0.14652-1.3187 0.14652h-0.14652l-0.03108 0.51059q0.1554-0.08436 0.29304-0.12432 0.14208-0.03996 0.27528-0.05328 0.13764-0.01776 0.1998-0.01776 0.06216 0 0.09324 0 0.51059 0 0.83471 0.24864 0.30636 0.23532 0.35964 0.61715 0.0044 0.0444 0.0044 0.07992 0.0044 0.03108 0.0044 0.05328 0 0.40847-0.31968 0.68819-0.31968 0.27528-0.93682 0.33743-0.1554 0.01776-0.32412 0.01776-0.36851 0-0.63491-0.09324-0.2664-0.09324-0.39959-0.24864-0.07548-0.08436-0.11544-0.18648-0.03996-0.10212-0.03996-0.1998 0-0.333 0.31968-0.46175 0.11544-0.03996 0.21312-0.03996 0.15096 0 0.2664 0.07992 0.11544 0.07548 0.15096 0.19536 0.0089 0.02664 0.01332 0.05772 0.0044 0.03108 0.0044 0.05772 0 0.13764-0.0888 0.23532-0.0888 0.09768-0.23088 0.09768-0.0666 0-0.10212-0.0089z" style="fill:#f5f5f5;stroke-opacity:.50196;stroke-width:.26234;stroke:#000000"/>
   <path d="m75.658 58.507v-0.43067h0.19092q0.07992 0 0.12432-0.01332 0.04884-0.01332 0.1332-0.0666l0.0444-0.03108 0.03552-0.03108 0.08436-0.0666 0.51059-0.43067-0.54167-0.51947-0.01332-0.01332-0.0888-0.08436q-0.06216-0.06216-0.11544-0.08436-0.04884-0.02664-0.111-0.02664h-0.1554v-0.43955h1.6605v0.44843h-0.09324q-0.07548 0.01332-0.04884 0.06216l0.03108 0.0444 0.08436 0.10212 0.13764 0.15984 0.15096-0.16428 0.09768-0.09768 0.03552-0.04884q0.01332-0.01776-0.0044-0.03552-0.0222-0.01776-0.0444-0.0222l-0.01332-0.0044h-0.0888v-0.44399h1.1499v0.44843h-0.09768q-0.07992 0-0.09324 0.0044-0.03996 0.0222-0.05772 0.03552l-0.06216 0.0444-0.03552 0.0222-0.03552 0.03108-0.0888 0.07104-0.47951 0.39515 0.57275 0.54611 0.11544 0.09768 0.05772 0.0444 0.03108 0.02664q0.03996 0.02664 0.07104 0.03552 0.03108 0.0044 0.07548 0.0044h0.11544v0.43067h-1.7049v-0.43067h0.04884l0.08436-0.0089q0.04884-0.01332 0.04884-0.05328 0-0.02664-0.01776-0.04884l-0.0666-0.09768-0.1554-0.18648-0.1776 0.18648-0.03108 0.03108-0.06216 0.0666q-0.02664 0.03552-0.02664 0.05328 0 0.02664 0.03552 0.04884l0.0089 0.0089h0.0888v0.43067z" style="fill:#f5f5f5;stroke-opacity:.50196;stroke-width:.26234;stroke:#000000"/>
  </g>
 </g>
</svg>
