<?xml version="1.0" encoding="UTF-8"?>
<svg width="603" height="357" version="1.1" viewBox="0 0 159.54 94.456" xmlns="http://www.w3.org/2000/svg" xmlns:cc="http://creativecommons.org/ns#" xmlns:dc="http://purl.org/dc/elements/1.1/" xmlns:rdf="http://www.w3.org/1999/02/22-rdf-syntax-ns#" xmlns:xlink="http://www.w3.org/1999/xlink">
 <defs>
  <radialGradient id="radialGradient9294" cx="119.21" cy="27.316" r="77.126" gradientTransform="matrix(-1.1765 0 0 -.81608 263.43 47.07)" gradientUnits="userSpaceOnUse">
   <stop style="stop-color:#ffffff;stop-opacity:.18824" offset="0"/>
   <stop style="stop-color:#31384a;stop-opacity:0" offset="1"/>
  </radialGradient>
 </defs>
 <metadata>
  <rdf:RDF>
   <cc:Work rdf:about="">
    <dc:format>image/svg+xml</dc:format>
    <dc:type rdf:resource="http://purl.org/dc/dcmitype/StillImage"/>
    <dc:title/>
   </cc:Work>
  </rdf:RDF>
 </metadata>
 <g>
  <path d="m1.9999 0c-1.108 0-1.9999 0.89188-1.9999 1.9999v90.456c0 1.108 0.89188 1.9999 1.9999 1.9999h155.54c1.108 0 1.9999-0.89188 1.9999-1.9999v-90.456c0-1.108-0.89188-1.9999-1.9999-1.9999zm77.772 0.42891c25.248 0.0032 50.497 0.27386 75.745 0.80202 1.0789 0.02257 1.9067 0.86934 1.9477 1.9477 1.6883 44.46 1.6906 44.349 0 88.099-0.0417 1.0783-0.86856 1.9477-1.9477 1.9477h-151.49c-1.0791 0-1.9053-0.8694-1.9477-1.9477-1.6585-42.218-1.6304-42.959 0-88.099 0.0389-1.0784 0.86881-1.9246 1.9477-1.9477 25.248-0.54088 50.497-0.8052 75.745-0.80202z" style="fill-rule:evenodd;fill:#171a23;paint-order:stroke fill markers;stop-color:#000000;stroke-linecap:round;stroke-opacity:.37647;stroke-width:.13229"/>
  <rect y="-3.0198e-15" width="159.54" height="94.456" rx="2" ry="2" style="fill-rule:evenodd;fill:url(#radialGradient9294);paint-order:stroke fill markers;stop-color:#000000;stroke-linecap:round;stroke-opacity:.37647;stroke-width:.13229"/>
 </g>
</svg>
