<svg xmlns="http://www.w3.org/2000/svg" viewBox="0 0 33.88 8.69">

<g id="Layer_2" data-name="Layer 2"><g id="Text_labels" data-name="Text labels">

<path fill="#FFFFFF" d="M1.74,1.74,4,8.18,6.32,1.74H8.06L4.74,10.26H3.35L0,1.74Z" transform="translate(0 -1.63)"/><path fill="#FFFFFF" d="M15.17,9.3a3.07,3.07,0,0,1-2.27,1A3.42,3.42,0,0,1,11.36,10a4.05,4.05,0,0,1-1.25-1A4.46,4.46,0,0,1,9.27,7.6,4.64,4.64,0,0,1,9,6,4.56,4.56,0,0,1,9.27,4.3,4.18,4.18,0,0,1,10.12,3,4.13,4.13,0,0,1,11.41,2,3.7,3.7,0,0,1,13,1.68a3.82,3.82,0,0,1,2,.5,3.28,3.28,0,0,1,1.25,1.36L15,4.45A2.26,2.26,0,0,0,13,3.14a2.06,2.06,0,0,0-1,.23,2.16,2.16,0,0,0-.72.63,2.9,2.9,0,0,0-.47.91A3.55,3.55,0,0,0,10.63,6a3.42,3.42,0,0,0,.18,1.12,2.79,2.79,0,0,0,.51.91,2.33,2.33,0,0,0,.76.6,2.06,2.06,0,0,0,1,.23,2.72,2.72,0,0,0,2.13-1.17v-.6H13.45V5.88h3.09v4.38H15.17Z" transform="translate(0 -1.63)"/><path fill="#FFFFFF" d="M25.4,10.26V4.62l-2.19,4.2h-.9l-2.2-4.2v5.64H18.46V1.74h1.77l2.52,4.85L25.3,1.74h1.76v8.52Z" transform="translate(0 -1.63)"/><path fill="#FFFFFF" d="M29.93,7.46a2.69,2.69,0,0,1,.19-1,1.76,1.76,0,0,1,.79-.82l.45-.24q.26-.15.51-.33a2,2,0,0,0,.43-.45,1.11,1.11,0,0,0,.17-.6,1,1,0,0,0-.09-.44,1.06,1.06,0,0,0-.26-.33A1,1,0,0,0,31.76,3a1.25,1.25,0,0,0-.43-.07,1.28,1.28,0,0,0-.48.09,1.9,1.9,0,0,0-.39.23,1.57,1.57,0,0,0-.32.31c-.08.12-.16.23-.22.33l-1.05-.72a2.25,2.25,0,0,1,.42-.66A2.74,2.74,0,0,1,29.87,2a2.88,2.88,0,0,1,.72-.3,3.42,3.42,0,0,1,.79-.1,3.5,3.5,0,0,1,.9.13,2.36,2.36,0,0,1,.8.42,2.22,2.22,0,0,1,.57.74A2.39,2.39,0,0,1,33.88,4a2.26,2.26,0,0,1-.09.67,1.93,1.93,0,0,1-.26.54,2.32,2.32,0,0,1-.4.43,4.19,4.19,0,0,1-.51.37l-.48.28a2.79,2.79,0,0,0-.44.29,1.65,1.65,0,0,0-.33.37,1,1,0,0,0-.12.51Zm0,2.8V8.6h1.33v1.66Z" transform="translate(0 -1.63)"/></g></g></svg>